<svg xmlns="http://www.w3.org/2000/svg" version="1.1" xmlns:xlink="http://www.w3.org/1999/xlink" xmlns:svgjs="http://svgjs.com/svgjs" width="595.3" height="753"><svg version="1.1" id="SvgjsSvg1000" xmlns="http://www.w3.org/2000/svg" xmlns:xlink="http://www.w3.org/1999/xlink" x="0px" y="0px" viewBox="0 0 595.3 753" style="enable-background:new 0 0 595.3 753;" xml:space="preserve">
<style type="text/css">
	.st0{fill:#5C94C7;}
</style>
<g>
	<polygon class="st0" points="225.7,662.8 298,745 370.3,662.3 298.5,582.8 	"></polygon>
	<path class="st0" d="M298.5,8c-58.3,0-111.2,15.8-155,42.9C74.8,93,27.8,161.6,14.7,234.8C12.9,244.3,2.9,296.3,21,346h92.6
		C92,288.2,95.1,215.9,132.2,164.8c25.3-34.8,64.6-58.7,106.6-70.5c59.6-17.2,129.2-8.1,179.8,28C469.3,158,495,219,494.1,278.2
		c0,0.9,0,1.8,0,2.7h90.8c-0.5-122.9-80.4-214.6-180.3-253c-18.1-7.2-37.1-12.2-56-15.8c-9.9-1.8-19.4-2.7-29.4-3.6
		C312.9,8,306.6,8,300.3,8L298.5,8L298.5,8z"></path>
	<path class="st0" d="M360.8,293.6v65.1h115.7c0,0-1.4,5-1.8,6.8c-0.9,2.3-1.4,4.5-2.3,6.8c-8.1,23.9-22.1,46.1-38.9,66.4
		c-9.9,12.2-37.5,50.2-57.8,45.2c-6.3-1.4-11.7-5.4-16.7-9.9c-14.5-12.2-48.8-56-61-71.8c-6.3,9-56.5,80.4-78.6,81.8
		c-13.1,0.9-24.4-7.2-33-15.8c-30.3-29.8-53.3-67.3-67.8-106.6c-0.5-0.9-0.5-1.8-0.9-2.7H25.5c0,0,3.6,9,8.1,19
		c23,51.1,52,99.4,84.5,145.5c31.2,44.7,65.1,88.1,99.9,130.6l80.9-88.1l80,87.7c13.1-14,24.9-29.8,36.6-44.7
		C472,535.3,531.6,461.2,566,375.4c6.8-17.6,12.7-35.2,15.8-53.8c1.8-9,2.7-18.1,2.7-27.6L360.8,293.6L360.8,293.6z M476.5,358.7
		C475.6,358.7,476.5,358.7,476.5,358.7L476.5,358.7z"></path>
</g>
</svg><style>@media (prefers-color-scheme: light) { :root { filter: none; } }
</style></svg>