<?xml version="1.0" encoding="utf-8"?>
<!-- Generator: Adobe Illustrator 28.0.0, SVG Export Plug-In . SVG Version: 6.00 Build 0)  -->
<svg version="1.1" id="Layer_1" xmlns="http://www.w3.org/2000/svg" xmlns:xlink="http://www.w3.org/1999/xlink" x="0px" y="0px"
	 viewBox="0 0 1433.74 1044" style="enable-background:new 0 0 1433.74 1044;" xml:space="preserve">
<path d="M1191.82,584.17c-5.71,0-11.41,0-17.12,0c-359.37,0-718.74,0.02-1078.11-0.1c-9.79,0-19.97-0.06-29.3-2.57
	c-29.4-7.93-48.84-37.17-45.32-66.32c3.89-32.28,28.08-55.16,60.07-56.71c5.91-0.29,11.84-0.19,17.77-0.19
	c358.38-0.01,716.77-0.01,1075.15-0.01c5.67,0,11.34,0,17.01,0c1.51-2.17,3.03-4.34,4.54-6.51c-4.78-2.58-10.51-4.21-14.21-7.89
	c-105.24-104.91-210.18-210.12-315.42-315.04c-19.03-18.97-27.88-40.48-20.2-66.96c12.44-42.84,63.89-59.38,99.12-32.02
	c4.65,3.61,8.78,7.94,12.97,12.13c142.43,142.43,284.84,284.87,427.25,427.32c34.94,34.95,34.87,68.95-0.2,104.04
	c-143.43,143.48-286.94,286.89-430.25,430.49c-18.81,18.85-39.95,28.58-66.71,21.27c-44.21-12.07-61.16-65.62-31.94-100.87
	c3.45-4.17,7.44-7.91,11.28-11.75c104.71-104.75,209.39-209.52,314.3-314.06c3.65-3.64,9.56-5,14.42-7.42
	C1195.21,588.72,1193.52,586.44,1191.82,584.17z"/>
</svg>
