<svg width="36" height="32" viewBox="0 0 36 32" fill="none" xmlns="http://www.w3.org/2000/svg">
<path d="M19.4414 0.993764C18.7991 -0.113154 17.2006 -0.113158 16.5583 0.993764L12.0349 8.78928C11.7176 9.33608 11.1692 9.70924 10.5441 9.80365L2.06688 11.084C0.643074 11.2991 0.143641 13.0968 1.25248 14.0154L7.56764 19.2475C8.15221 19.7318 8.42707 20.4957 8.28507 21.2414L6.63312 29.9167C6.37198 31.2881 7.81163 32.3536 9.04688 31.7032L17.0292 27.5001C17.6368 27.1802 18.3629 27.1802 18.9705 27.5001L26.9528 31.7032C28.1881 32.3536 29.6277 31.2881 29.3666 29.9167L27.7146 21.2414C27.5726 20.4957 27.8475 19.7318 28.4321 19.2475L34.7472 14.0154C35.8561 13.0968 35.3566 11.2991 33.9328 11.084L25.4556 9.80365C24.8305 9.70924 24.2821 9.33608 23.9648 8.78928L19.4414 0.993764Z" fill="#5B93C7"/>
</svg>
