<svg width="50" height="50" viewBox="0 0 50 50" fill="none" xmlns="http://www.w3.org/2000/svg">
<path d="M50 21.8739C50 23.957 50 26.0406 50 28.1237C49.5653 28.1808 49.1286 28.2278 48.6958 28.2968C47.3009 28.5201 46.3802 29.3244 46.0298 30.6761C45.677 32.0364 46.1362 33.1715 47.2305 34.0467C47.5454 34.2984 47.8704 34.5376 48.2102 34.7978C47.1624 36.6116 46.1328 38.3942 45.0917 40.1959C44.6642 40.02 44.2798 39.8513 43.8872 39.7022C42.5705 39.2023 41.3727 39.4214 40.3862 40.4198C39.4142 41.4038 39.2105 42.5906 39.7042 43.8862C39.8537 44.2783 40.0234 44.6628 40.1998 45.0898C38.3956 46.1319 36.6135 47.161 34.7983 48.2097C34.5189 47.844 34.2672 47.4864 33.9873 47.1533C33.0996 46.0954 31.9669 45.676 30.6311 46.0413C29.3225 46.3993 28.5374 47.2961 28.3064 48.6459C28.2297 49.0941 28.1841 49.5475 28.1247 49.9986C26.0416 49.9986 23.958 49.9986 21.8748 49.9986C21.8173 49.5638 21.7703 49.1272 21.7008 48.6943C21.477 47.3005 20.6751 46.3778 19.3224 46.0288C17.9631 45.678 16.8266 46.1328 15.9523 47.2286C15.7012 47.5435 15.4634 47.8694 15.2046 48.2097C13.3884 47.1605 11.6068 46.1304 9.80214 45.0874C9.97757 44.6623 10.1468 44.2779 10.2954 43.8858C10.7934 42.57 10.5772 41.3712 9.57925 40.3848C8.59568 39.4127 7.4084 39.2095 6.11327 39.7022C5.72119 39.8513 5.33725 40.022 4.91017 40.1993C3.86765 38.3947 2.83855 36.6125 1.79266 34.8021C2.16941 34.5107 2.54041 34.249 2.88264 33.9547C3.91366 33.068 4.31773 31.9439 3.9568 30.6301C3.59779 29.3225 2.70242 28.5364 1.35217 28.3059C0.904001 28.2292 0.451042 28.1841 0 28.1242C0 26.0411 0 23.9575 0 21.8743C0.434745 21.8173 0.871407 21.7703 1.30424 21.7008C2.6981 21.477 3.61984 20.6732 3.96927 19.322C4.32013 17.9636 3.86525 16.8261 2.77048 15.9514C2.45557 15.6997 2.13107 15.4596 1.79123 15.1998C2.83855 13.3865 3.86765 11.6044 4.9097 9.80022C5.33629 9.97661 5.72071 10.1468 6.11279 10.2954C7.40792 10.7871 8.59568 10.5849 9.57877 9.61328C10.5762 8.62732 10.7943 7.42853 10.2954 6.11232C10.1468 5.72023 9.97709 5.33629 9.80118 4.90922C11.6145 3.86238 13.4057 2.82896 15.2046 1.79075C15.4994 2.17708 15.7424 2.52219 16.0127 2.84478C16.8999 3.9036 18.0335 4.32109 19.368 3.95632C20.6751 3.59875 21.4621 2.70242 21.6927 1.35217C21.7689 0.904001 21.8149 0.450563 21.8748 0C23.958 0 26.0416 0 28.1247 0C28.1817 0.434745 28.2287 0.871407 28.2982 1.30471C28.5221 2.69906 29.3268 3.6208 30.6785 3.96975C32.0374 4.32061 33.1744 3.86334 34.0496 2.76856C34.3012 2.45365 34.5399 2.12819 34.7988 1.78931C36.6145 2.83807 38.3966 3.86717 40.1988 4.90826C40.0219 5.33677 39.8523 5.72119 39.7027 6.11327C39.209 7.40936 39.4146 8.59664 40.3867 9.57925C41.3732 10.5767 42.5719 10.7943 43.8882 10.2954C44.2802 10.1468 44.6651 9.97805 45.0922 9.80262C46.1376 11.614 47.1715 13.4052 48.2102 15.2051C47.8224 15.5003 47.4764 15.7433 47.1538 16.0137C46.0959 16.9014 45.6756 18.0331 46.0422 19.3689C46.4012 20.6765 47.2976 21.4626 48.6474 21.6932C49.0955 21.7689 49.549 21.8144 50 21.8739ZM24.9966 7.78084C15.4835 7.78611 7.76454 15.5137 7.78323 25.0134C7.80193 34.5165 15.4677 42.1861 24.9789 42.2168C34.4695 42.2474 42.2067 34.5232 42.2172 25.0072C42.2273 15.5008 34.505 7.77556 24.9966 7.78084Z" fill="#5B93C7"/>
<path d="M25.031 10.7105C32.9355 10.7421 39.3062 17.1315 39.2913 25.013C39.2769 32.9223 32.8214 39.3486 24.9529 39.2872C17.0373 39.2258 10.6758 32.8231 10.7165 24.9593C10.7577 17.0553 17.1629 10.6793 25.031 10.7105ZM29.3693 19.103C28.4538 18.6759 27.6035 18.279 26.7158 17.8649C24.6883 22.2128 22.6737 26.5339 20.6413 30.8919C21.5482 31.3146 22.4091 31.7158 23.2958 32.129C25.3243 27.7772 27.3336 23.4681 29.3693 19.103ZM18.8851 19.5281C17.0551 21.3572 15.2001 23.2112 13.3839 25.0269C15.1886 26.8325 17.0344 28.6793 18.854 30.4998C19.4977 29.8522 20.1678 29.1778 20.9045 28.4368C19.7747 27.3142 18.6047 26.1519 17.4016 24.9564C18.5759 23.7854 19.7354 22.6293 20.8542 21.5135C20.1673 20.8208 19.4982 20.146 18.8851 19.5281ZM31.127 19.4696C30.4742 20.1234 29.8093 20.7887 29.1038 21.4948C30.257 22.6418 31.4275 23.8061 32.6455 25.0178C31.4448 26.217 30.2776 27.3828 29.1929 28.4655C29.8846 29.1625 30.5552 29.8374 31.174 30.461C32.9815 28.6554 34.8283 26.8095 36.6517 24.9881C34.835 23.1734 32.9877 21.3275 31.127 19.4696Z" fill="#5B93C7"/>
</svg>
