<svg width="198" height="84" viewBox="0 0 198 84" fill="none" xmlns="http://www.w3.org/2000/svg">
<path d="M24.7151 74.6063L33.0211 84L41.362 74.5914L33.062 65.5201L24.7151 74.6063Z" fill="white"/>
<path d="M33.0729 0.000988921C26.3794 0.0217563 20.3059 1.78797 15.2549 4.87242C7.39043 9.67561 1.99063 17.5346 0.492676 25.8484C0.296337 26.9471 -0.8498 32.8648 1.22222 38.5274H11.8494C9.35481 31.9412 9.72655 23.7104 13.9912 17.8708C16.8884 13.9032 21.4162 11.1995 26.223 9.83186C33.0908 7.87775 41.049 8.91315 46.9022 13.0112C52.7017 17.0737 55.6478 24.0071 55.5451 30.7861C55.5431 30.8959 55.5411 31.0066 55.5391 31.1184L65.979 31.1164C65.9192 17.0994 56.7251 6.6683 45.2767 2.25474C43.1947 1.44976 41.029 0.844539 38.8334 0.47666C37.7132 0.287776 36.585 0.150316 35.4558 0.0741691C34.7263 0.0276898 33.9967 0.00197784 33.2642 0H33.0729V0.000988921Z" fill="white"/>
<path d="M40.2327 32.5385V39.9465H53.514C53.5329 39.9465 53.3585 40.529 53.3067 40.6981C53.2279 40.9631 53.1442 41.2252 53.0545 41.4853C52.1177 44.2167 50.53 46.7543 48.6105 49.0436C47.4584 50.4172 44.2881 54.7556 41.9669 54.1771C41.2653 54.0031 40.6294 53.5521 40.0404 53.0487C38.3949 51.6405 34.4353 46.6386 33.029 44.8832C32.2845 45.9097 26.5469 54.0396 23.9975 54.2196C22.4786 54.3274 21.1939 53.4008 20.1893 52.4099C16.729 48.9991 14.055 44.7309 12.4294 40.2432C12.3956 40.1463 12.3587 40.0464 12.3248 39.9465H1.71954C1.71954 39.9465 2.13315 40.9928 2.63047 42.0935C5.25961 47.9133 8.61729 53.4067 12.3168 58.6549C15.9207 63.7677 19.8076 68.7152 23.7981 73.553L33.0619 63.5353C33.0619 63.5353 42.2619 73.5234 42.2659 73.5214C43.7718 71.9035 45.0973 70.1403 46.4538 68.4067C52.9658 60.076 59.7998 51.6158 63.7465 41.8146C64.5468 39.8269 65.1886 37.7798 65.5663 35.6773C65.7537 34.6419 65.8693 33.5917 65.8972 32.5395H40.2327V32.5385Z" fill="white"/>
<path d="M113.343 72.3297C112.413 72.3297 111.558 72.1824 110.774 71.8887C109.99 71.594 109.308 71.1816 108.735 70.6496C108.159 70.1175 107.711 69.4895 107.391 68.7676C107.072 68.0457 106.912 67.2595 106.912 66.4051C106.912 65.5507 107.071 64.7635 107.391 64.0426C107.711 63.3207 108.162 62.6957 108.743 62.1636C109.322 61.6286 110.007 61.2152 110.791 60.9215C111.575 60.6298 112.43 60.4825 113.36 60.4825C114.29 60.4825 115.14 60.6209 115.913 60.8988C116.685 61.1757 117.344 61.598 117.892 62.1636L117.091 62.9449C116.577 62.4553 116.015 62.1072 115.399 61.8946C114.783 61.685 114.122 61.5802 113.411 61.5802C112.659 61.5802 111.962 61.6988 111.329 61.9372C110.696 62.1745 110.146 62.5147 109.675 62.9528C109.204 63.3919 108.836 63.9012 108.576 64.4836C108.314 65.0661 108.183 65.7059 108.183 66.4051C108.183 67.0924 108.314 67.7322 108.576 68.3187C108.835 68.9071 109.204 69.4223 109.675 69.8584C110.145 70.2975 110.695 70.6367 111.329 70.874C111.962 71.1114 112.653 71.233 113.394 71.233C114.093 71.233 114.752 71.1312 115.373 70.9334C115.995 70.7326 116.565 70.3954 117.091 69.9178L117.821 70.8483C117.242 71.3378 116.56 71.7057 115.782 71.9549C115.003 72.2051 114.19 72.3297 113.343 72.3297ZM116.583 70.697V66.4041H117.821V70.8473L116.583 70.697Z" fill="white"/>
<path d="M121.203 72.2278V63.4917H122.387V65.872L122.264 65.4557C122.521 64.7901 122.952 64.2809 123.556 63.9328C124.158 63.5817 124.907 63.4096 125.803 63.4096V64.5558C125.758 64.5558 125.71 64.5528 125.664 64.5469C125.618 64.5409 125.57 64.5409 125.524 64.5409C124.561 64.5409 123.804 64.8208 123.26 65.3786C122.713 65.9393 122.442 66.7363 122.442 67.7668V72.2268H121.203V72.2278Z" fill="white"/>
<path d="M131.692 72.3129C130.811 72.3129 130.018 72.12 129.313 71.7383C128.612 71.3566 128.056 70.8275 127.651 70.156C127.243 69.4855 127.041 68.7181 127.041 67.8528C127.041 66.9757 127.243 66.2063 127.651 65.5378C128.056 64.8722 128.609 64.3521 129.306 63.9753C130.001 63.5965 130.8 63.4096 131.692 63.4096C132.599 63.4096 133.404 63.5965 134.105 63.9753C134.81 64.3521 135.36 64.8722 135.763 65.5378C136.162 66.2053 136.365 66.9757 136.365 67.8528C136.365 68.7191 136.162 69.4855 135.763 70.156C135.361 70.8265 134.807 71.3556 134.097 71.7383C133.39 72.12 132.588 72.3129 131.692 72.3129ZM131.692 71.2626C132.354 71.2626 132.941 71.1212 133.453 70.8384C133.966 70.5556 134.368 70.156 134.664 69.6418C134.961 69.1266 135.109 68.5293 135.109 67.8538C135.109 67.1665 134.96 66.5662 134.664 66.057C134.367 65.5447 133.966 65.1481 133.453 64.8653C132.942 64.5825 132.36 64.4411 131.71 64.4411C131.061 64.4411 130.479 64.5825 129.968 64.8653C129.458 65.1481 129.05 65.5447 128.75 66.057C128.448 66.5662 128.297 67.1665 128.297 67.8538C128.297 68.5302 128.448 69.1276 128.75 69.6418C129.049 70.157 129.458 70.5556 129.968 70.8384C130.478 71.1212 131.054 71.2626 131.692 71.2626Z" fill="white"/>
<path d="M142.673 72.3129C141.894 72.3129 141.212 72.1744 140.633 71.8966C140.051 71.6197 139.601 71.2033 139.282 70.6485C138.963 70.0938 138.803 69.4005 138.803 68.5688V63.4917H140.04V68.4353C140.04 69.3659 140.283 70.068 140.765 70.5407C141.247 71.0105 141.923 71.2478 142.793 71.2478C143.435 71.2478 143.988 71.1203 144.459 70.871C144.929 70.6218 145.289 70.2599 145.54 69.7813C145.788 69.3026 145.914 68.731 145.914 68.0665V63.4907H147.151V72.2269H145.967V69.8327L146.159 70.2658C145.868 70.9086 145.417 71.409 144.807 71.771C144.195 72.1319 143.486 72.3129 142.673 72.3129Z" fill="white"/>
<path d="M155.324 72.3129C154.534 72.3129 153.818 72.1378 153.179 71.7897C152.54 71.4387 152.033 70.9353 151.656 70.2727C151.277 69.6131 151.089 68.8072 151.089 67.8528C151.089 66.8985 151.274 66.0896 151.648 65.431C152.019 64.7714 152.524 64.268 153.163 63.9258C153.802 63.5807 154.524 63.4106 155.325 63.4106C156.195 63.4106 156.976 63.5946 157.669 63.9684C158.36 64.3392 158.904 64.8594 159.297 65.5309C159.694 66.2043 159.89 66.9767 159.89 67.8538C159.89 68.7399 159.694 69.5182 159.297 70.1827C158.904 70.8483 158.36 71.3714 157.669 71.7472C156.975 72.123 156.194 72.3129 155.324 72.3129ZM150.601 75.4567V63.4917H151.785V66.1203L151.665 67.8687L151.84 69.6319V75.4557H150.601V75.4567ZM155.236 71.2627C155.886 71.2627 156.468 71.1212 156.978 70.8384C157.492 70.5556 157.896 70.1561 158.199 69.6418C158.501 69.1266 158.653 68.5293 158.653 67.8538C158.653 67.1774 158.501 66.5831 158.199 66.0738C157.897 65.5615 157.492 65.163 156.978 64.8742C156.468 64.5855 155.886 64.4411 155.236 64.4411C154.585 64.4411 154.001 64.5855 153.485 64.8742C152.969 65.163 152.561 65.5615 152.264 66.0738C151.97 66.5831 151.822 67.1774 151.822 67.8538C151.822 68.5303 151.97 69.1276 152.264 69.6418C152.561 70.157 152.969 70.5556 153.485 70.8384C154.001 71.1212 154.585 71.2627 155.236 71.2627Z" fill="white"/>
<path d="M70.127 37.134C71.4216 35.0415 73.5225 33.2723 76.0949 32.8826C77.4304 32.6581 78.7928 32.7046 80.1352 32.8589C83.0315 33.4137 85.4404 35.5527 86.2088 38.292C86.2277 38.4938 86.2646 38.9042 86.2845 39.1059C86.1619 39.1168 85.9138 39.1316 85.7902 39.1405C85.3586 37.132 84.1029 35.2363 82.1943 34.2444C80.2927 33.1625 77.9297 33.0498 75.8188 33.5244C73.1528 34.1415 71.0658 36.2104 70.106 38.6174C69.9765 39.014 69.8579 39.4145 69.7004 39.8041C69.1094 42.8668 69.2878 46.3063 71.2631 48.9022C74.0497 52.8856 80.8588 53.2544 84.1338 49.6409C85.0357 48.7825 85.5669 47.6581 85.9227 46.5031C85.9985 45.6269 86.0304 44.7448 86.0264 43.8666C83.48 43.8429 80.9286 43.8775 78.3811 43.8557C78.3851 43.7183 78.3941 43.4463 78.4001 43.3158C81.1259 43.297 83.8567 43.3266 86.5865 43.2989C86.6124 46.2351 86.5735 49.1731 86.6124 52.1093C86.4609 52.1152 86.1549 52.1241 86.0035 52.1261C86.0294 50.6456 86.0224 49.1642 85.9845 47.6868C85.2639 49.8644 83.3185 51.5396 81.085 52.2507C78.3313 53.0023 75.1082 52.8203 72.7282 51.1797C71.5113 50.4172 70.697 49.2305 69.9615 48.0576C68.3978 44.6172 68.3809 40.5161 70.127 37.134Z" fill="white"/>
<path d="M89.4528 33.1931L89.964 33.1971C89.964 33.1971 89.97 41.687 90.0567 46.0452C90.1972 47.7323 90.6378 49.6063 92.1098 50.701C93.6117 52.0291 95.7814 52.224 97.7299 52.0736C99.5467 51.9411 101.376 51.0778 102.333 49.5489C103.218 48.0715 103.421 46.3211 103.417 44.6468C103.41 40.8395 103.417 37.0311 103.41 33.2258C103.554 33.2258 103.841 33.2297 103.986 33.2347C103.98 37.3407 103.997 41.4497 103.975 45.5576C103.962 47.7699 103.189 50.2046 101.195 51.505C99.3026 52.7619 96.8658 52.8074 94.6642 52.5177C93.0496 52.2091 91.4999 51.3656 90.6278 49.9949C89.5574 48.3098 89.374 46.2726 89.4149 44.3452C89.4498 40.6892 89.4528 33.1931 89.4528 33.1931Z" fill="white"/>
<path d="M107.013 33.204H107.472C107.513 39.3531 107.483 45.4993 107.483 51.6474C111.085 51.6662 114.688 51.6474 118.29 51.6563C118.61 51.6988 119.151 51.5554 119.162 52.0202C118.695 52.3011 118.143 52.2516 117.621 52.2645C114.094 52.2536 110.563 52.2516 107.035 52.2605C106.942 45.9107 106.989 39.5568 107.013 33.204Z" fill="white"/>
<path d="M120.298 33.1981C124.897 33.1922 129.529 33.1941 134.126 33.1941C135.717 38.7519 137.061 44.3027 138.726 49.8407C139.472 46.6563 140.59 43.5699 141.409 40.4024C142.011 38.0468 143.438 33.1981 143.438 33.1981H146.021C146.021 33.1981 147.747 39.2315 148.532 42.1993C149.164 44.7606 150.109 47.2408 150.698 49.8149C152.371 44.3383 155.322 33.1981 155.322 33.1981H157.203C157.203 33.1981 154.059 44.007 152.539 49.4639C152.278 50.4024 152.021 51.3418 151.702 52.2655C151.076 52.2596 150.45 52.2596 149.826 52.2694C149.106 50.4943 148.687 48.6282 148.123 46.8106C146.966 42.9192 145.848 39.0169 144.666 35.1344C143.91 37.672 143.251 40.2333 142.449 42.759C141.448 45.9196 140.749 49.1751 139.533 52.2704C138.9 52.2556 138.266 52.2536 137.633 52.2596C136.507 48.4364 135.415 44.6033 134.299 40.7762C133.679 38.4097 132.911 36.0838 132.247 33.7262C128.458 33.7153 124.671 33.7301 120.883 33.7222C120.868 36.4853 120.87 39.2473 120.885 42.0084C124.451 42.045 128.018 41.9609 131.586 42.0529C131.469 42.4059 131.23 42.5691 130.869 42.5394C127.538 42.5543 124.207 42.5305 120.876 42.5464C120.876 45.7416 120.87 48.9388 120.878 52.134H120.297C120.319 45.7989 120.23 39.5311 120.298 33.1981Z" fill="white"/>
<path d="M166.084 35.0286C164.683 38.2238 163.414 41.4724 162.109 44.7042C164.671 44.7339 167.231 44.719 169.795 44.7131C168.636 41.4586 167.201 38.2989 166.084 35.0286ZM165.035 33.1981H167.198C167.198 33.1981 172.41 45.8513 174.912 52.2605C174.254 52.2586 173.597 52.2536 172.945 52.2586C172.088 50.2857 171.283 48.294 170.52 46.2894C167.518 46.2786 164.513 46.2934 161.513 46.2805C160.738 48.199 159.859 50.0819 159.243 52.0539C158.52 52.2813 157.764 52.311 157.045 52.0499C158.858 48.1476 160.395 44.1306 162.115 40.1828C163.028 37.8856 165.035 33.1981 165.035 33.1981Z" fill="white"/>
<path d="M174.498 33.1981C175.208 33.1852 175.95 33.207 176.665 33.1981C178.933 36.3636 181.009 39.5311 183.157 42.7709C185.438 39.7299 189.701 33.1981 189.701 33.1981H192.002C192.002 33.1981 186.758 40.5715 184.258 44.279C183.993 46.9085 184.238 49.6033 184.138 52.2586C183.521 52.2516 182.908 52.2546 182.297 52.2645C182.187 49.6389 182.373 46.9985 182.189 44.3828C179.685 40.5952 176.978 37.0054 174.498 33.1981Z" fill="white"/>
<path fill-rule="evenodd" clip-rule="evenodd" d="M195.738 33.1931C196.985 33.1931 198 34.1821 198 35.4014C198 36.6207 196.985 37.6097 195.738 37.6097C194.49 37.6097 193.475 36.6198 193.475 35.4014C193.475 34.1831 194.491 33.1931 195.738 33.1931ZM195.738 33.4681C196.832 33.4681 197.719 34.3334 197.719 35.4024C197.719 36.4714 196.832 37.3387 195.738 37.3387C194.643 37.3387 193.756 36.4714 193.756 35.4024C193.756 34.3334 194.643 33.4681 195.738 33.4681Z" fill="white"/>
<path d="M194.976 36.3379V34.4679H195.844C196.019 34.4679 196.153 34.4827 196.244 34.5173C196.335 34.5519 196.405 34.6093 196.462 34.6953C196.516 34.7814 196.542 34.8753 196.542 34.9781C196.542 35.1107 196.497 35.2224 196.408 35.3144C196.318 35.4044 196.179 35.4617 195.992 35.4874C196.058 35.5171 196.112 35.5497 196.147 35.5794C196.223 35.6457 196.294 35.7297 196.363 35.8276L196.704 36.3369H196.378L196.117 35.9473C196.042 35.8355 195.979 35.7505 195.932 35.6902C195.882 35.6298 195.839 35.5893 195.8 35.5636C195.761 35.5399 195.723 35.525 195.682 35.5141C195.652 35.5082 195.604 35.5052 195.537 35.5052H195.237V36.3359H194.976V36.3379ZM195.235 35.2926H195.792C195.911 35.2926 196.004 35.2817 196.07 35.258C196.137 35.2343 196.187 35.1957 196.222 35.1443C196.257 35.0929 196.274 35.0375 196.274 34.9772C196.274 34.8891 196.242 34.817 196.174 34.7586C196.107 34.7012 196 34.6726 195.854 34.6726H195.234V35.2926H195.235Z" fill="white"/>
</svg>
