<svg width="1920" height="1080" viewBox="0 0 1920 1080" fill="none" xmlns="http://www.w3.org/2000/svg">
<g clip-path="url(#clip0_463_29)">
<rect width="1920" height="1080" fill="white"/>
<rect width="1920" height="1080" fill="url(#paint0_linear_463_29)"/>
<mask id="path-2-outside-1_463_29" maskUnits="userSpaceOnUse" x="-52.4215" y="277.613" width="995.51" height="852.411" fill="black">
<rect fill="white" x="-52.4215" y="277.613" width="995.51" height="852.411"/>
<path d="M234.229 1038.48C213.633 1053.92 192.128 1062.73 169.715 1064.91C147.303 1067.08 125.594 1063.05 104.589 1052.8C83.4282 1042.34 64.5051 1025.98 47.8197 1003.72C30.9784 981.249 20.5333 958.209 16.4844 934.6C12.4876 910.627 15.0164 887.774 24.0709 866.04C33.1776 843.943 48.9654 824.474 71.4344 807.633C97.0242 788.452 122.845 778.684 148.897 778.328C174.949 777.972 198.581 786.741 219.791 804.635L175.165 838.084C164.196 830.384 152.237 827.001 139.288 827.933C126.184 828.657 112.766 834.165 99.0354 844.457C77.1905 860.83 65.5626 880.431 64.1518 903.258C62.585 925.878 70.846 949.254 88.9348 973.388C107.024 997.521 126.883 1011.88 148.514 1016.46C170.197 1020.68 191.128 1015.23 211.309 1000.1C231.073 985.286 241.972 968.832 244.006 950.736C246.091 932.277 241.625 913.53 230.606 894.494L175.37 935.896L152.915 905.937L248.408 834.362L338.462 954.509L301.638 982.11L276.998 955.738C277.721 971.442 274.883 986.08 268.483 999.65C262.083 1013.22 250.665 1026.16 234.229 1038.48ZM421.61 892.187L200.142 717.011L242.896 684.966L412.502 829.316L328.403 620.875L372.405 587.894L547.629 728.035L456.664 524.74L499.729 492.461L604.171 755.352L556.736 790.906L391.961 661.454L468.732 856.867L421.61 892.187ZM692.413 689.211L528.679 470.762L576.113 435.208L749.559 521.606L714.36 331.588L761.795 296.034L925.53 514.483L885.585 544.423L772.608 393.693L801.34 558.828L769.821 582.452L619.381 508.541L732.358 659.271L692.413 689.211Z"/>
</mask>
<path d="M169.715 1064.91L170.682 1074.86L169.715 1064.91ZM104.589 1052.8L100.158 1061.76L100.181 1061.77L100.203 1061.78L104.589 1052.8ZM16.4844 934.6L6.62056 936.245L6.62438 936.268L6.6283 936.291L16.4844 934.6ZM24.0709 866.04L33.3019 869.886L33.3093 869.869L33.3166 869.851L24.0709 866.04ZM148.897 778.328L148.76 768.329L148.897 778.328ZM219.791 804.635L225.789 812.637L235.848 805.098L226.24 796.992L219.791 804.635ZM175.165 838.084L169.42 846.269L175.358 850.436L181.163 846.086L175.165 838.084ZM139.288 827.933L139.84 837.918L139.923 837.913L140.006 837.907L139.288 827.933ZM64.1518 903.258L74.1279 903.95L74.1305 903.912L74.1328 903.875L64.1518 903.258ZM148.514 1016.46L146.441 1026.24L146.523 1026.26L146.604 1026.28L148.514 1016.46ZM244.006 950.736L234.069 949.614L234.068 949.62L244.006 950.736ZM230.606 894.494L239.261 889.485L233.62 879.739L224.609 886.493L230.606 894.494ZM175.37 935.896L167.368 941.893L173.366 949.895L181.368 943.898L175.37 935.896ZM152.915 905.937L146.917 897.935L138.916 903.933L144.913 911.935L152.915 905.937ZM248.408 834.362L256.41 828.364L250.413 820.362L242.411 826.36L248.408 834.362ZM338.462 954.509L344.46 962.51L352.462 956.513L346.464 948.511L338.462 954.509ZM301.638 982.11L294.331 988.937L300.457 995.492L307.636 990.111L301.638 982.11ZM276.998 955.738L284.305 948.911L265.759 929.062L267.009 956.198L276.998 955.738ZM268.483 999.65L277.527 1003.92L268.483 999.65ZM228.232 1030.48C208.887 1044.98 189.088 1052.98 168.748 1054.95L170.682 1074.86C195.168 1072.48 218.378 1062.86 240.227 1046.49L228.232 1030.48ZM168.748 1054.95C148.247 1056.94 128.385 1053.28 108.975 1043.81L100.203 1061.78C122.803 1072.81 146.359 1077.22 170.682 1074.86L168.748 1054.95ZM109.02 1043.83C89.4961 1034.18 71.7332 1018.95 55.8215 997.72L39.8179 1009.72C57.2769 1033.01 77.3602 1050.49 100.158 1061.76L109.02 1043.83ZM55.8215 997.72C39.7675 976.301 30.0789 954.708 26.3405 932.91L6.6283 936.291C10.9878 961.71 22.1894 986.196 39.8179 1009.72L55.8215 997.72ZM26.3483 932.956C22.6499 910.773 24.9941 889.827 33.3019 869.886L14.84 862.195C5.03879 885.72 2.32527 910.481 6.62056 936.245L26.3483 932.956ZM33.3166 869.851C41.6256 849.689 56.1487 831.587 77.432 815.634L65.4368 799.631C41.7821 817.361 24.7295 838.198 14.8253 862.23L33.3166 869.851ZM77.432 815.634C101.72 797.429 125.54 788.648 149.034 788.327L148.76 768.329C120.151 768.72 92.3279 779.475 65.4368 799.631L77.432 815.634ZM149.034 788.327C172.514 788.006 193.842 795.827 213.343 812.278L226.24 796.992C203.319 777.655 177.384 767.937 148.76 768.329L149.034 788.327ZM213.794 796.633L169.168 830.082L181.163 846.086L225.789 812.637L213.794 796.633ZM180.91 829.899C168.123 820.923 153.894 816.856 138.57 817.959L140.006 837.907C150.579 837.146 160.269 839.846 169.42 846.269L180.91 829.899ZM138.737 817.948C123.138 818.81 107.869 825.338 93.0378 836.455L105.033 852.459C117.664 842.992 129.231 838.504 139.84 837.918L138.737 817.948ZM93.0378 836.455C69.3469 854.212 55.7979 876.316 54.1709 902.642L74.1328 903.875C75.3274 884.546 85.0341 867.449 105.033 852.459L93.0378 836.455ZM54.1757 902.567C52.395 928.275 61.8858 953.973 80.933 979.386L96.9366 967.39C79.8062 944.536 72.7751 923.481 74.1279 903.95L54.1757 902.567ZM80.933 979.386C99.9431 1004.75 121.698 1021 146.441 1026.24L150.586 1006.68C132.068 1002.76 114.104 990.295 96.9366 967.39L80.933 979.386ZM146.604 1026.28C171.467 1031.11 195.219 1024.66 217.306 1008.1L205.311 992.099C187.038 1005.8 168.926 1010.25 150.424 1006.65L146.604 1026.28ZM217.306 1008.1C238.462 992.246 251.504 973.559 253.943 951.853L234.068 949.62C232.44 964.105 223.685 978.327 205.311 992.099L217.306 1008.1ZM253.942 951.859C256.31 930.9 251.149 910.022 239.261 889.485L221.952 899.504C232.1 917.037 235.872 933.654 234.069 949.614L253.942 951.859ZM224.609 886.493L169.372 927.894L181.368 943.898L236.604 902.496L224.609 886.493ZM183.372 929.898L160.917 899.939L144.913 911.935L167.368 941.893L183.372 929.898ZM158.913 913.939L254.406 842.363L242.411 826.36L146.917 897.935L158.913 913.939ZM240.407 840.359L330.461 960.506L346.464 948.511L256.41 828.364L240.407 840.359ZM332.465 946.507L295.641 974.108L307.636 990.111L344.46 962.51L332.465 946.507ZM308.945 975.282L284.305 948.911L269.691 962.565L294.331 988.937L308.945 975.282ZM267.009 956.198C267.661 970.354 265.109 983.36 259.438 995.384L277.527 1003.92C284.657 988.799 287.782 972.531 286.988 955.278L267.009 956.198ZM259.438 995.384C253.943 1007.04 243.82 1018.8 228.232 1030.48L240.227 1046.49C257.51 1033.53 270.223 1019.4 277.527 1003.92L259.438 995.384ZM421.61 892.187L415.406 900.03L421.445 904.807L427.607 900.189L421.61 892.187ZM200.142 717.011L194.144 709.009L183.753 716.798L193.938 724.854L200.142 717.011ZM242.896 684.966L249.377 677.35L243.292 672.171L236.898 676.964L242.896 684.966ZM412.502 829.316L406.021 836.932L421.776 825.575L412.502 829.316ZM328.403 620.875L322.405 612.873L316.252 617.486L319.129 624.617L328.403 620.875ZM372.405 587.894L378.651 580.085L372.603 575.248L366.407 579.893L372.405 587.894ZM547.629 728.035L541.383 735.844L556.757 723.951L547.629 728.035ZM456.664 524.74L450.666 516.738L444.272 521.53L447.536 528.824L456.664 524.74ZM499.729 492.461L509.023 488.768L504.195 476.616L493.732 484.459L499.729 492.461ZM604.171 755.352L610.168 763.354L616.288 758.767L613.464 751.66L604.171 755.352ZM556.736 790.906L550.558 798.769L556.593 803.51L562.734 798.907L556.736 790.906ZM391.961 661.454L398.138 653.591L369.194 630.851L382.653 665.111L391.961 661.454ZM468.732 856.867L474.73 864.869L480.825 860.3L478.04 853.211L468.732 856.867ZM427.813 884.344L206.346 709.168L193.938 724.854L415.406 900.03L427.813 884.344ZM206.14 725.013L248.893 692.967L236.898 676.964L194.144 709.009L206.14 725.013ZM236.414 692.581L406.021 836.932L418.984 821.701L249.377 677.35L236.414 692.581ZM421.776 825.575L337.676 617.134L319.129 624.617L403.229 833.058L421.776 825.575ZM334.4 628.877L378.402 595.896L366.407 579.893L322.405 612.873L334.4 628.877ZM366.159 595.704L541.383 735.844L553.875 720.225L378.651 580.085L366.159 595.704ZM556.757 723.951L465.792 520.655L447.536 528.824L538.501 732.119L556.757 723.951ZM462.661 532.741L505.727 500.462L493.732 484.459L450.666 516.738L462.661 532.741ZM490.436 496.153L594.877 759.044L613.464 751.66L509.023 488.768L490.436 496.153ZM598.173 747.35L550.738 782.904L562.734 798.907L610.168 763.354L598.173 747.35ZM562.914 783.042L398.138 653.591L385.783 669.318L550.558 798.769L562.914 783.042ZM382.653 665.111L459.425 860.524L478.04 853.211L401.268 657.798L382.653 665.111ZM462.735 848.865L415.612 884.185L427.607 900.189L474.73 864.869L462.735 848.865ZM692.413 689.211L684.411 695.209L690.409 703.21L698.411 697.213L692.413 689.211ZM528.679 470.762L522.681 462.76L514.679 468.758L520.677 476.76L528.679 470.762ZM576.113 435.208L580.572 426.257L575.051 423.507L570.116 427.206L576.113 435.208ZM749.559 521.606L745.101 530.557L763.043 539.495L759.392 519.785L749.559 521.606ZM714.36 331.588L708.363 323.586L703.397 327.308L704.528 333.409L714.36 331.588ZM761.795 296.034L769.797 290.036L763.799 282.034L755.797 288.032L761.795 296.034ZM925.53 514.483L931.527 522.485L939.529 516.487L933.531 508.485L925.53 514.483ZM885.585 544.423L877.583 550.421L883.58 558.422L891.582 552.425L885.585 544.423ZM772.608 393.693L780.61 387.695L762.756 395.407L772.608 393.693ZM801.34 558.828L807.338 566.829L812.243 563.153L811.192 557.114L801.34 558.828ZM769.821 582.452L765.412 591.428L770.914 594.131L775.819 590.454L769.821 582.452ZM619.381 508.541L623.791 499.566L611.38 514.539L619.381 508.541ZM732.358 659.271L738.356 667.273L746.358 661.275L740.36 653.273L732.358 659.271ZM700.415 683.213L536.68 464.764L520.677 476.76L684.411 695.209L700.415 683.213ZM534.676 478.764L582.111 443.21L570.116 427.206L522.681 462.76L534.676 478.764ZM571.655 444.159L745.101 530.557L754.018 512.655L580.572 426.257L571.655 444.159ZM759.392 519.785L724.193 329.766L704.528 333.409L739.727 523.428L759.392 519.785ZM720.358 339.589L767.793 304.036L755.797 288.032L708.363 323.586L720.358 339.589ZM753.793 302.031L917.528 520.48L933.531 508.485L769.797 290.036L753.793 302.031ZM919.532 506.481L879.587 536.421L891.582 552.425L931.527 522.485L919.532 506.481ZM893.586 538.425L780.61 387.695L764.606 399.691L877.583 550.421L893.586 538.425ZM762.756 395.407L791.488 560.542L811.192 557.114L782.46 391.979L762.756 395.407ZM795.343 550.826L763.824 574.45L775.819 590.454L807.338 566.829L795.343 550.826ZM774.231 573.477L623.791 499.566L614.972 517.516L765.412 591.428L774.231 573.477ZM611.38 514.539L724.356 665.269L740.36 653.273L627.383 502.544L611.38 514.539ZM726.361 651.269L686.416 681.209L698.411 697.213L738.356 667.273L726.361 651.269Z" fill="white" fill-opacity="0.04" mask="url(#path-2-outside-1_463_29)"/>
<mask id="path-4-outside-2_463_29" maskUnits="userSpaceOnUse" x="887.578" y="232.613" width="995.51" height="852.411" fill="black">
<rect fill="white" x="887.578" y="232.613" width="995.51" height="852.411"/>
<path d="M1174.23 993.483C1153.63 1008.92 1132.13 1017.73 1109.72 1019.91C1087.3 1022.08 1065.59 1018.05 1044.59 1007.8C1023.43 997.338 1004.51 980.979 987.82 958.718C970.978 936.249 960.533 913.209 956.484 889.6C952.488 865.627 955.016 842.774 964.071 821.04C973.178 798.943 988.965 779.474 1011.43 762.633C1037.02 743.452 1062.85 733.684 1088.9 733.328C1114.95 732.972 1138.58 741.741 1159.79 759.635L1115.17 793.084C1104.2 785.384 1092.24 782.001 1079.29 782.933C1066.18 783.657 1052.77 789.165 1039.04 799.457C1017.19 815.83 1005.56 835.431 1004.15 858.258C1002.59 880.878 1010.85 904.254 1028.93 928.388C1047.02 952.521 1066.88 966.879 1088.51 971.462C1110.2 975.68 1131.13 970.227 1151.31 955.101C1171.07 940.286 1181.97 923.832 1184.01 905.736C1186.09 887.277 1181.62 868.53 1170.61 849.494L1115.37 890.896L1092.91 860.937L1188.41 789.362L1278.46 909.509L1241.64 937.11L1217 910.738C1217.72 926.442 1214.88 941.08 1208.48 954.65C1202.08 968.22 1190.67 981.164 1174.23 993.483ZM1361.61 847.187L1140.14 672.011L1182.9 639.966L1352.5 784.316L1268.4 575.875L1312.4 542.894L1487.63 683.035L1396.66 479.74L1439.73 447.461L1544.17 710.352L1496.74 745.906L1331.96 616.454L1408.73 811.867L1361.61 847.187ZM1632.41 644.211L1468.68 425.762L1516.11 390.208L1689.56 476.606L1654.36 286.588L1701.8 251.034L1865.53 469.483L1825.58 499.423L1712.61 348.693L1741.34 513.828L1709.82 537.452L1559.38 463.541L1672.36 614.271L1632.41 644.211Z"/>
</mask>
<path d="M1109.72 1019.91L1110.68 1029.86L1109.72 1019.91ZM1044.59 1007.8L1040.16 1016.76L1040.18 1016.77L1040.2 1016.78L1044.59 1007.8ZM956.484 889.6L946.621 891.245L946.624 891.268L946.628 891.291L956.484 889.6ZM964.071 821.04L973.302 824.886L973.309 824.869L973.317 824.851L964.071 821.04ZM1088.9 733.328L1088.76 723.329L1088.9 733.328ZM1159.79 759.635L1165.79 767.637L1175.85 760.098L1166.24 751.992L1159.79 759.635ZM1115.17 793.084L1109.42 801.269L1115.36 805.436L1121.16 801.086L1115.17 793.084ZM1079.29 782.933L1079.84 792.918L1079.92 792.913L1080.01 792.907L1079.29 782.933ZM1004.15 858.258L1014.13 858.95L1014.13 858.912L1014.13 858.875L1004.15 858.258ZM1088.51 971.462L1086.44 981.245L1086.52 981.262L1086.6 981.278L1088.51 971.462ZM1184.01 905.736L1174.07 904.614L1174.07 904.62L1184.01 905.736ZM1170.61 849.494L1179.26 844.485L1173.62 834.739L1164.61 841.493L1170.61 849.494ZM1115.37 890.896L1107.37 896.893L1113.37 904.895L1121.37 898.898L1115.37 890.896ZM1092.92 860.937L1086.92 852.935L1078.92 858.933L1084.91 866.935L1092.92 860.937ZM1188.41 789.362L1196.41 783.364L1190.41 775.362L1182.41 781.36L1188.41 789.362ZM1278.46 909.509L1284.46 917.51L1292.46 911.513L1286.46 903.511L1278.46 909.509ZM1241.64 937.11L1234.33 943.937L1240.46 950.492L1247.64 945.111L1241.64 937.11ZM1217 910.738L1224.3 903.911L1205.76 884.062L1207.01 911.198L1217 910.738ZM1208.48 954.65L1217.53 958.915L1208.48 954.65ZM1168.23 985.482C1148.89 999.981 1129.09 1007.98 1108.75 1009.95L1110.68 1029.86C1135.17 1027.48 1158.38 1017.86 1180.23 1001.49L1168.23 985.482ZM1108.75 1009.95C1088.25 1011.94 1068.39 1008.28 1048.97 998.81L1040.2 1016.78C1062.8 1027.81 1086.36 1032.22 1110.68 1029.86L1108.75 1009.95ZM1049.02 998.832C1029.5 989.183 1011.73 973.949 995.822 952.72L979.818 964.715C997.277 988.008 1017.36 1005.49 1040.16 1016.76L1049.02 998.832ZM995.822 952.72C979.767 931.301 970.079 909.708 966.341 887.91L946.628 891.291C950.988 916.71 962.189 941.196 979.818 964.715L995.822 952.72ZM966.348 887.956C962.65 865.773 964.994 844.827 973.302 824.886L954.84 817.195C945.039 840.72 942.325 865.481 946.621 891.245L966.348 887.956ZM973.317 824.851C981.626 804.689 996.149 786.587 1017.43 770.634L1005.44 754.631C981.782 772.361 964.729 793.198 954.825 817.23L973.317 824.851ZM1017.43 770.634C1041.72 752.429 1065.54 743.648 1089.03 743.327L1088.76 723.329C1060.15 723.72 1032.33 734.475 1005.44 754.631L1017.43 770.634ZM1089.03 743.327C1112.51 743.006 1133.84 750.827 1153.34 767.278L1166.24 751.992C1143.32 732.655 1117.38 722.937 1088.76 723.329L1089.03 743.327ZM1153.79 751.633L1109.17 785.082L1121.16 801.086L1165.79 767.637L1153.79 751.633ZM1120.91 784.899C1108.12 775.923 1093.89 771.856 1078.57 772.959L1080.01 792.907C1090.58 792.146 1100.27 794.846 1109.42 801.269L1120.91 784.899ZM1078.74 772.948C1063.14 773.81 1047.87 780.338 1033.04 791.455L1045.03 807.459C1057.66 797.992 1069.23 793.504 1079.84 792.918L1078.74 772.948ZM1033.04 791.455C1009.35 809.212 995.798 831.316 994.171 857.642L1014.13 858.875C1015.33 839.546 1025.03 822.449 1045.03 807.459L1033.04 791.455ZM994.176 857.567C992.395 883.275 1001.89 908.973 1020.93 934.386L1036.94 922.39C1019.81 899.536 1012.78 878.481 1014.13 858.95L994.176 857.567ZM1020.93 934.386C1039.94 959.748 1061.7 976.003 1086.44 981.245L1090.59 961.679C1072.07 957.756 1054.1 945.295 1036.94 922.39L1020.93 934.386ZM1086.6 981.278C1111.47 986.115 1135.22 979.658 1157.31 963.102L1145.31 947.099C1127.04 960.795 1108.93 965.246 1090.42 961.646L1086.6 981.278ZM1157.31 963.102C1178.46 947.246 1191.5 928.559 1193.94 906.853L1174.07 904.62C1172.44 919.105 1163.68 933.327 1145.31 947.099L1157.31 963.102ZM1193.94 906.859C1196.31 885.9 1191.15 865.022 1179.26 844.485L1161.95 854.504C1172.1 872.037 1175.87 888.654 1174.07 904.614L1193.94 906.859ZM1164.61 841.493L1109.37 882.894L1121.37 898.898L1176.6 857.496L1164.61 841.493ZM1123.37 884.898L1100.92 854.939L1084.91 866.935L1107.37 896.893L1123.37 884.898ZM1098.91 868.939L1194.41 797.363L1182.41 781.36L1086.92 852.935L1098.91 868.939ZM1180.41 795.359L1270.46 915.506L1286.46 903.511L1196.41 783.364L1180.41 795.359ZM1272.46 901.507L1235.64 929.108L1247.64 945.111L1284.46 917.51L1272.46 901.507ZM1248.95 930.282L1224.3 903.911L1209.69 917.565L1234.33 943.937L1248.95 930.282ZM1207.01 911.198C1207.66 925.354 1205.11 938.36 1199.44 950.384L1217.53 958.915C1224.66 943.799 1227.78 927.531 1226.99 910.278L1207.01 911.198ZM1199.44 950.384C1193.94 962.036 1183.82 973.797 1168.23 985.482L1180.23 1001.49C1197.51 988.531 1210.22 974.404 1217.53 958.915L1199.44 950.384ZM1361.61 847.187L1355.41 855.03L1361.45 859.807L1367.61 855.189L1361.61 847.187ZM1140.14 672.011L1134.14 664.009L1123.75 671.798L1133.94 679.854L1140.14 672.011ZM1182.9 639.966L1189.38 632.35L1183.29 627.171L1176.9 631.964L1182.9 639.966ZM1352.5 784.316L1346.02 791.932L1361.78 780.575L1352.5 784.316ZM1268.4 575.875L1262.41 567.873L1256.25 572.486L1259.13 579.617L1268.4 575.875ZM1312.4 542.894L1318.65 535.085L1312.6 530.248L1306.41 534.893L1312.4 542.894ZM1487.63 683.035L1481.38 690.844L1496.76 678.951L1487.63 683.035ZM1396.66 479.74L1390.67 471.738L1384.27 476.53L1387.54 483.824L1396.66 479.74ZM1439.73 447.461L1449.02 443.768L1444.19 431.616L1433.73 439.459L1439.73 447.461ZM1544.17 710.352L1550.17 718.354L1556.29 713.767L1553.46 706.66L1544.17 710.352ZM1496.74 745.906L1490.56 753.769L1496.59 758.51L1502.73 753.907L1496.74 745.906ZM1331.96 616.454L1338.14 608.591L1309.19 585.851L1322.65 620.111L1331.96 616.454ZM1408.73 811.867L1414.73 819.869L1420.83 815.3L1418.04 808.211L1408.73 811.867ZM1367.81 839.344L1146.35 664.168L1133.94 679.854L1355.41 855.03L1367.81 839.344ZM1146.14 680.013L1188.89 647.967L1176.9 631.964L1134.14 664.009L1146.14 680.013ZM1176.41 647.581L1346.02 791.932L1358.98 776.701L1189.38 632.35L1176.41 647.581ZM1361.78 780.575L1277.68 572.134L1259.13 579.617L1343.23 788.058L1361.78 780.575ZM1274.4 583.877L1318.4 550.896L1306.41 534.893L1262.41 567.873L1274.4 583.877ZM1306.16 550.704L1481.38 690.844L1493.87 675.225L1318.65 535.085L1306.16 550.704ZM1496.76 678.951L1405.79 475.655L1387.54 483.824L1478.5 687.119L1496.76 678.951ZM1402.66 487.741L1445.73 455.462L1433.73 439.459L1390.67 471.738L1402.66 487.741ZM1430.44 451.153L1534.88 714.044L1553.46 706.66L1449.02 443.768L1430.44 451.153ZM1538.17 702.35L1490.74 737.904L1502.73 753.907L1550.17 718.354L1538.17 702.35ZM1502.91 738.042L1338.14 608.591L1325.78 624.318L1490.56 753.769L1502.91 738.042ZM1322.65 620.111L1399.42 815.524L1418.04 808.211L1341.27 612.798L1322.65 620.111ZM1402.73 803.865L1355.61 839.185L1367.61 855.189L1414.73 819.869L1402.73 803.865ZM1632.41 644.211L1624.41 650.209L1630.41 658.21L1638.41 652.213L1632.41 644.211ZM1468.68 425.762L1462.68 417.76L1454.68 423.758L1460.68 431.76L1468.68 425.762ZM1516.11 390.208L1520.57 381.257L1515.05 378.507L1510.12 382.206L1516.11 390.208ZM1689.56 476.606L1685.1 485.557L1703.04 494.495L1699.39 474.785L1689.56 476.606ZM1654.36 286.588L1648.36 278.586L1643.4 282.308L1644.53 288.409L1654.36 286.588ZM1701.8 251.034L1709.8 245.036L1703.8 237.034L1695.8 243.032L1701.8 251.034ZM1865.53 469.483L1871.53 477.485L1879.53 471.487L1873.53 463.485L1865.53 469.483ZM1825.58 499.423L1817.58 505.421L1823.58 513.422L1831.58 507.425L1825.58 499.423ZM1712.61 348.693L1720.61 342.695L1702.76 350.407L1712.61 348.693ZM1741.34 513.828L1747.34 521.829L1752.24 518.153L1751.19 512.114L1741.34 513.828ZM1709.82 537.452L1705.41 546.428L1710.91 549.131L1715.82 545.454L1709.82 537.452ZM1559.38 463.541L1563.79 454.566L1551.38 469.539L1559.38 463.541ZM1672.36 614.271L1678.36 622.273L1686.36 616.275L1680.36 608.273L1672.36 614.271ZM1640.42 638.213L1476.68 419.764L1460.68 431.76L1624.41 650.209L1640.42 638.213ZM1474.68 433.764L1522.11 398.21L1510.12 382.206L1462.68 417.76L1474.68 433.764ZM1511.65 399.159L1685.1 485.557L1694.02 467.655L1520.57 381.257L1511.65 399.159ZM1699.39 474.785L1664.19 284.766L1644.53 288.409L1679.73 478.428L1699.39 474.785ZM1660.36 294.589L1707.79 259.036L1695.8 243.032L1648.36 278.586L1660.36 294.589ZM1693.79 257.031L1857.53 475.48L1873.53 463.485L1709.8 245.036L1693.79 257.031ZM1859.53 461.481L1819.59 491.421L1831.58 507.425L1871.53 477.485L1859.53 461.481ZM1833.59 493.425L1720.61 342.695L1704.61 354.691L1817.58 505.421L1833.59 493.425ZM1702.76 350.407L1731.49 515.542L1751.19 512.114L1722.46 346.979L1702.76 350.407ZM1735.34 505.826L1703.82 529.45L1715.82 545.454L1747.34 521.829L1735.34 505.826ZM1714.23 528.477L1563.79 454.566L1554.97 472.516L1705.41 546.428L1714.23 528.477ZM1551.38 469.539L1664.36 620.269L1680.36 608.273L1567.38 457.544L1551.38 469.539ZM1666.36 606.269L1626.42 636.209L1638.41 652.213L1678.36 622.273L1666.36 606.269Z" fill="white" fill-opacity="0.04" mask="url(#path-4-outside-2_463_29)"/>
<mask id="path-6-outside-3_463_29" maskUnits="userSpaceOnUse" x="850.578" y="-382.387" width="995.51" height="852.411" fill="black">
<rect fill="white" x="850.578" y="-382.387" width="995.51" height="852.411"/>
<path d="M1137.23 378.483C1116.63 393.921 1095.13 402.729 1072.72 404.906C1050.3 407.083 1028.59 403.047 1007.59 392.797C986.428 382.338 967.505 365.979 950.82 343.718C933.978 321.249 923.533 298.209 919.484 274.6C915.488 250.627 918.016 227.774 927.071 206.04C936.178 183.943 951.965 164.474 974.434 147.633C1000.02 128.452 1025.85 118.684 1051.9 118.328C1077.95 117.972 1101.58 126.741 1122.79 144.635L1078.17 178.084C1067.2 170.384 1055.24 167.001 1042.29 167.933C1029.18 168.657 1015.77 174.165 1002.04 184.457C980.191 200.83 968.563 220.431 967.152 243.258C965.585 265.878 973.846 289.254 991.935 313.388C1010.02 337.521 1029.88 351.879 1051.51 356.462C1073.2 360.68 1094.13 355.227 1114.31 340.101C1134.07 325.286 1144.97 308.832 1147.01 290.736C1149.09 272.277 1144.62 253.53 1133.61 234.494L1078.37 275.896L1055.91 245.937L1151.41 174.362L1241.46 294.509L1204.64 322.11L1180 295.738C1180.72 311.442 1177.88 326.08 1171.48 339.65C1165.08 353.22 1153.67 366.164 1137.23 378.483ZM1324.61 232.187L1103.14 57.0108L1145.9 24.9656L1315.5 169.316L1231.4 -39.1248L1275.4 -72.1056L1450.63 68.0349L1359.66 -135.26L1402.73 -167.539L1507.17 95.3518L1459.74 130.906L1294.96 1.45426L1371.73 196.867L1324.61 232.187ZM1595.41 29.2111L1431.68 -189.238L1479.11 -224.792L1652.56 -138.394L1617.36 -328.412L1664.8 -363.966L1828.53 -145.517L1788.58 -115.577L1675.61 -266.307L1704.34 -101.172L1672.82 -77.5477L1522.38 -151.459L1635.36 -0.728957L1595.41 29.2111Z"/>
</mask>
<path d="M1072.72 404.906L1073.68 414.859L1072.72 404.906ZM1007.59 392.797L1003.16 401.761L1003.18 401.773L1003.2 401.784L1007.59 392.797ZM919.484 274.6L909.621 276.245L909.624 276.268L909.628 276.291L919.484 274.6ZM927.071 206.04L936.302 209.886L936.309 209.869L936.317 209.851L927.071 206.04ZM1051.9 118.328L1051.76 108.329L1051.9 118.328ZM1122.79 144.635L1128.79 152.637L1138.85 145.098L1129.24 136.992L1122.79 144.635ZM1078.17 178.084L1072.42 186.269L1078.36 190.436L1084.16 186.086L1078.17 178.084ZM1042.29 167.933L1042.84 177.918L1042.92 177.913L1043.01 177.907L1042.29 167.933ZM967.152 243.258L977.128 243.95L977.13 243.912L977.133 243.875L967.152 243.258ZM1051.51 356.462L1049.44 366.245L1049.52 366.262L1049.6 366.278L1051.51 356.462ZM1147.01 290.736L1137.07 289.614L1137.07 289.62L1147.01 290.736ZM1133.61 234.494L1142.26 229.485L1136.62 219.739L1127.61 226.493L1133.61 234.494ZM1078.37 275.896L1070.37 281.893L1076.37 289.895L1084.37 283.898L1078.37 275.896ZM1055.92 245.937L1049.92 237.935L1041.92 243.933L1047.91 251.935L1055.92 245.937ZM1151.41 174.362L1159.41 168.364L1153.41 160.362L1145.41 166.36L1151.41 174.362ZM1241.46 294.509L1247.46 302.51L1255.46 296.513L1249.46 288.511L1241.46 294.509ZM1204.64 322.11L1197.33 328.937L1203.46 335.492L1210.64 330.111L1204.64 322.11ZM1180 295.738L1187.3 288.911L1168.76 269.062L1170.01 296.198L1180 295.738ZM1171.48 339.65L1180.53 343.915L1171.48 339.65ZM1131.23 370.482C1111.89 384.981 1092.09 392.977 1071.75 394.953L1073.68 414.859C1098.17 412.481 1121.38 402.862 1143.23 386.485L1131.23 370.482ZM1071.75 394.953C1051.25 396.945 1031.39 393.282 1011.97 383.81L1003.2 401.784C1025.8 412.812 1049.36 417.222 1073.68 414.859L1071.75 394.953ZM1012.02 383.832C992.496 374.183 974.733 358.949 958.822 337.72L942.818 349.715C960.277 373.008 980.36 390.494 1003.16 401.761L1012.02 383.832ZM958.822 337.72C942.767 316.301 933.079 294.708 929.341 272.91L909.628 276.291C913.988 301.71 925.189 326.196 942.818 349.715L958.822 337.72ZM929.348 272.956C925.65 250.773 927.994 229.827 936.302 209.886L917.84 202.195C908.039 225.72 905.325 250.481 909.621 276.245L929.348 272.956ZM936.317 209.851C944.626 189.689 959.149 171.587 980.432 155.634L968.437 139.631C944.782 157.361 927.729 178.198 917.825 202.23L936.317 209.851ZM980.432 155.634C1004.72 137.429 1028.54 128.648 1052.03 128.327L1051.76 108.329C1023.15 108.72 995.328 119.475 968.437 139.631L980.432 155.634ZM1052.03 128.327C1075.51 128.006 1096.84 135.827 1116.34 152.278L1129.24 136.992C1106.32 117.655 1080.38 107.937 1051.76 108.329L1052.03 128.327ZM1116.79 136.633L1072.17 170.082L1084.16 186.086L1128.79 152.637L1116.79 136.633ZM1083.91 169.899C1071.12 160.923 1056.89 156.856 1041.57 157.959L1043.01 177.907C1053.58 177.146 1063.27 179.846 1072.42 186.269L1083.91 169.899ZM1041.74 157.948C1026.14 158.81 1010.87 165.338 996.038 176.455L1008.03 192.459C1020.66 182.992 1032.23 178.504 1042.84 177.918L1041.74 157.948ZM996.038 176.455C972.347 194.212 958.798 216.316 957.171 242.642L977.133 243.875C978.327 224.546 988.034 207.449 1008.03 192.459L996.038 176.455ZM957.176 242.567C955.395 268.275 964.886 293.973 983.933 319.386L999.937 307.39C982.806 284.536 975.775 263.481 977.128 243.95L957.176 242.567ZM983.933 319.386C1002.94 344.748 1024.7 361.003 1049.44 366.245L1053.59 346.679C1035.07 342.756 1017.1 330.295 999.937 307.39L983.933 319.386ZM1049.6 366.278C1074.47 371.115 1098.22 364.658 1120.31 348.102L1108.31 332.099C1090.04 345.795 1071.93 350.246 1053.42 346.646L1049.6 366.278ZM1120.31 348.102C1141.46 332.246 1154.5 313.559 1156.94 291.853L1137.07 289.62C1135.44 304.105 1126.68 318.327 1108.31 332.099L1120.31 348.102ZM1156.94 291.859C1159.31 270.9 1154.15 250.022 1142.26 229.485L1124.95 239.504C1135.1 257.037 1138.87 273.654 1137.07 289.614L1156.94 291.859ZM1127.61 226.493L1072.37 267.894L1084.37 283.898L1139.6 242.496L1127.61 226.493ZM1086.37 269.898L1063.92 239.939L1047.91 251.935L1070.37 281.893L1086.37 269.898ZM1061.91 253.939L1157.41 182.363L1145.41 166.36L1049.92 237.935L1061.91 253.939ZM1143.41 180.359L1233.46 300.506L1249.46 288.511L1159.41 168.364L1143.41 180.359ZM1235.46 286.507L1198.64 314.108L1210.64 330.111L1247.46 302.51L1235.46 286.507ZM1211.95 315.282L1187.3 288.911L1172.69 302.565L1197.33 328.937L1211.95 315.282ZM1170.01 296.198C1170.66 310.354 1168.11 323.36 1162.44 335.384L1180.53 343.915C1187.66 328.799 1190.78 312.531 1189.99 295.278L1170.01 296.198ZM1162.44 335.384C1156.94 347.036 1146.82 358.797 1131.23 370.482L1143.23 386.485C1160.51 373.531 1173.22 359.404 1180.53 343.915L1162.44 335.384ZM1324.61 232.187L1318.41 240.03L1324.45 244.807L1330.61 240.189L1324.61 232.187ZM1103.14 57.0108L1097.14 49.009L1086.75 56.7976L1096.94 64.8539L1103.14 57.0108ZM1145.9 24.9656L1152.38 17.3503L1146.29 12.1714L1139.9 16.9638L1145.9 24.9656ZM1315.5 169.316L1309.02 176.932L1324.78 165.575L1315.5 169.316ZM1231.4 -39.1248L1225.41 -47.1266L1219.25 -42.5145L1222.13 -35.3832L1231.4 -39.1248ZM1275.4 -72.1056L1281.65 -79.9151L1275.6 -84.7516L1269.41 -80.1074L1275.4 -72.1056ZM1450.63 68.0349L1444.38 75.8444L1459.76 63.9506L1450.63 68.0349ZM1359.66 -135.26L1353.67 -143.262L1347.27 -138.47L1350.54 -131.176L1359.66 -135.26ZM1402.73 -167.539L1412.02 -171.232L1407.19 -183.384L1396.73 -175.541L1402.73 -167.539ZM1507.17 95.3518L1513.17 103.354L1519.29 98.7669L1516.46 91.6597L1507.17 95.3518ZM1459.74 130.906L1453.56 138.769L1459.59 143.51L1465.73 138.907L1459.74 130.906ZM1294.96 1.45426L1301.14 -6.40928L1272.19 -29.1491L1285.65 5.11087L1294.96 1.45426ZM1371.73 196.867L1377.73 204.869L1383.83 200.3L1381.04 193.211L1371.73 196.867ZM1330.81 224.344L1109.35 49.1677L1096.94 64.8539L1318.41 240.03L1330.81 224.344ZM1109.14 65.0126L1151.89 32.9674L1139.9 16.9638L1097.14 49.009L1109.14 65.0126ZM1139.41 32.5809L1309.02 176.932L1321.98 161.701L1152.38 17.3503L1139.41 32.5809ZM1324.78 165.575L1240.68 -42.8664L1222.13 -35.3832L1306.23 173.058L1324.78 165.575ZM1237.4 -31.123L1281.4 -64.1038L1269.41 -80.1074L1225.41 -47.1266L1237.4 -31.123ZM1269.16 -64.2961L1444.38 75.8444L1456.87 60.2254L1281.65 -79.9151L1269.16 -64.2961ZM1459.76 63.9506L1368.79 -139.345L1350.54 -131.176L1441.5 72.1192L1459.76 63.9506ZM1365.66 -127.259L1408.73 -159.538L1396.73 -175.541L1353.67 -143.262L1365.66 -127.259ZM1393.44 -163.847L1497.88 99.0439L1516.46 91.6597L1412.02 -171.232L1393.44 -163.847ZM1501.17 87.35L1453.74 122.904L1465.73 138.907L1513.17 103.354L1501.17 87.35ZM1465.91 123.042L1301.14 -6.40928L1288.78 9.31778L1453.56 138.769L1465.91 123.042ZM1285.65 5.11087L1362.42 200.524L1381.04 193.211L1304.27 -2.20235L1285.65 5.11087ZM1365.73 188.865L1318.61 224.185L1330.61 240.189L1377.73 204.869L1365.73 188.865ZM1595.41 29.2111L1587.41 35.2087L1593.41 43.2105L1601.41 37.2129L1595.41 29.2111ZM1431.68 -189.238L1425.68 -197.24L1417.68 -191.242L1423.68 -183.24L1431.68 -189.238ZM1479.11 -224.792L1483.57 -233.743L1478.05 -236.493L1473.12 -232.794L1479.11 -224.792ZM1652.56 -138.394L1648.1 -129.443L1666.04 -120.505L1662.39 -140.215L1652.56 -138.394ZM1617.36 -328.412L1611.36 -336.414L1606.4 -332.692L1607.53 -326.591L1617.36 -328.412ZM1664.8 -363.966L1672.8 -369.964L1666.8 -377.966L1658.8 -371.968L1664.8 -363.966ZM1828.53 -145.517L1834.53 -137.515L1842.53 -143.513L1836.53 -151.515L1828.53 -145.517ZM1788.58 -115.577L1780.58 -109.579L1786.58 -101.578L1794.58 -107.575L1788.58 -115.577ZM1675.61 -266.307L1683.61 -272.305L1665.76 -264.593L1675.61 -266.307ZM1704.34 -101.172L1710.34 -93.1705L1715.24 -96.8471L1714.19 -102.886L1704.34 -101.172ZM1672.82 -77.5477L1668.41 -68.5725L1673.91 -65.8693L1678.82 -69.5459L1672.82 -77.5477ZM1522.38 -151.459L1526.79 -160.434L1514.38 -145.461L1522.38 -151.459ZM1635.36 -0.728957L1641.36 7.27284L1649.36 1.27524L1643.36 -6.72656L1635.36 -0.728957ZM1603.42 23.2135L1439.68 -195.236L1423.68 -183.24L1587.41 35.2087L1603.42 23.2135ZM1437.68 -181.236L1485.11 -216.79L1473.12 -232.794L1425.68 -197.24L1437.68 -181.236ZM1474.65 -215.841L1648.1 -129.443L1657.02 -147.345L1483.57 -233.743L1474.65 -215.841ZM1662.39 -140.215L1627.19 -330.234L1607.53 -326.591L1642.73 -136.572L1662.39 -140.215ZM1623.36 -320.411L1670.79 -355.964L1658.8 -371.968L1611.36 -336.414L1623.36 -320.411ZM1656.79 -357.969L1820.53 -139.52L1836.53 -151.515L1672.8 -369.964L1656.79 -357.969ZM1822.53 -153.519L1782.59 -123.579L1794.58 -107.575L1834.53 -137.515L1822.53 -153.519ZM1796.59 -121.575L1683.61 -272.305L1667.61 -260.309L1780.58 -109.579L1796.59 -121.575ZM1665.76 -264.593L1694.49 -99.4581L1714.19 -102.886L1685.46 -268.021L1665.76 -264.593ZM1698.34 -109.174L1666.82 -85.5495L1678.82 -69.5459L1710.34 -93.1705L1698.34 -109.174ZM1677.23 -86.523L1526.79 -160.434L1517.97 -142.484L1668.41 -68.5725L1677.23 -86.523ZM1514.38 -145.461L1627.36 5.26865L1643.36 -6.72656L1530.38 -157.456L1514.38 -145.461ZM1629.36 -8.73075L1589.42 21.2093L1601.41 37.2129L1641.36 7.27284L1629.36 -8.73075Z" fill="white" fill-opacity="0.04" mask="url(#path-6-outside-3_463_29)"/>
</g>
<defs>
<linearGradient id="paint0_linear_463_29" x1="960" y1="0" x2="960" y2="1080" gradientUnits="userSpaceOnUse">
<stop stop-color="#5B93C7"/>
<stop offset="1" stop-color="#9DBEDD"/>
</linearGradient>
<clipPath id="clip0_463_29">
<rect width="1920" height="1080" fill="white"/>
</clipPath>
</defs>
</svg>
