<svg width="1920" height="600" viewBox="0 0 1920 600" fill="none" xmlns="http://www.w3.org/2000/svg">
<rect width="1920" height="600" fill="url(#paint0_linear_571_810)"/>
<mask id="mask0_571_810" style="mask-type:alpha" maskUnits="userSpaceOnUse" x="0" y="0" width="1920" height="600">
<rect width="1920" height="600" fill="url(#paint1_linear_571_810)"/>
</mask>
<g mask="url(#mask0_571_810)">
<mask id="path-3-outside-1_571_810" maskUnits="userSpaceOnUse" x="-88.8301" y="130.42" width="772.484" height="662.454" fill="black">
<rect fill="white" x="-88.8301" y="130.42" width="772.484" height="662.454"/>
<path d="M135.055 719.059C119.211 730.934 102.669 737.709 85.4289 739.384C68.1884 741.059 51.4893 737.954 35.3317 730.069C19.0541 722.024 4.49783 709.44 -8.33704 692.316C-21.2919 675.032 -29.3266 657.31 -32.4411 639.149C-35.5156 620.708 -33.5703 603.128 -26.6053 586.41C-19.6002 569.412 -7.45576 554.436 9.82812 541.481C29.5125 526.727 49.3748 519.213 69.4149 518.939C89.455 518.665 107.633 525.411 123.949 539.175L89.6211 564.905C81.1829 558.983 71.9837 556.38 62.0234 557.097C51.9433 557.654 41.622 561.891 31.0596 569.808C14.2559 582.403 5.31135 597.48 4.2261 615.04C3.02089 632.439 9.3755 650.421 23.2899 668.985C37.2044 687.549 52.4811 698.594 69.12 702.119C85.7991 705.364 101.9 701.169 117.424 689.533C132.627 678.138 141.011 665.481 142.575 651.561C144.179 637.361 140.744 622.94 132.268 608.298L89.7786 640.145L72.5055 617.1L145.962 562.042L215.234 654.463L186.908 675.694L167.954 655.409C168.51 667.489 166.327 678.748 161.404 689.187C156.481 699.625 147.698 709.583 135.055 719.059ZM279.194 606.523L108.834 471.772L141.721 447.122L272.188 558.161L207.496 397.822L241.344 372.452L376.131 480.252L306.158 323.871L339.286 299.041L419.625 501.265L383.137 528.614L256.387 429.036L315.442 579.354L279.194 606.523ZM487.504 450.388L361.554 282.35L398.043 255.001L531.463 321.461L504.387 175.293L540.875 147.944L666.824 315.981L636.098 339.012L549.192 223.066L571.294 350.093L547.049 368.266L431.326 311.411L518.231 427.357L487.504 450.388Z"/>
</mask>
<path d="M85.4289 739.384L86.3958 749.337L85.4289 739.384ZM35.3317 730.069L30.901 739.034L30.9235 739.045L30.9461 739.056L35.3317 730.069ZM-32.4411 639.149L-42.305 640.793L-42.3012 640.816L-42.2972 640.839L-32.4411 639.149ZM-26.6053 586.41L-17.3744 590.256L-17.367 590.238L-17.3597 590.221L-26.6053 586.41ZM69.4149 518.939L69.2782 508.94L69.4149 518.939ZM123.949 539.175L129.946 547.177L140.005 539.638L130.397 531.532L123.949 539.175ZM89.6211 564.905L83.8762 573.09L89.814 577.258L95.6187 572.907L89.6211 564.905ZM62.0234 557.097L62.5752 567.082L62.6584 567.077L62.7415 567.071L62.0234 557.097ZM4.2261 615.04L14.2022 615.731L14.2048 615.693L14.2071 615.656L4.2261 615.04ZM69.12 702.119L67.0475 711.902L67.1288 711.919L67.2103 711.935L69.12 702.119ZM142.575 651.561L132.638 650.438L132.638 650.444L142.575 651.561ZM132.268 608.298L140.923 603.288L135.281 593.542L126.271 600.296L132.268 608.298ZM89.7786 640.145L81.7768 646.143L87.7744 654.145L95.7762 648.147L89.7786 640.145ZM72.5055 617.1L66.5079 609.098L58.5061 615.096L64.5037 623.098L72.5055 617.1ZM145.962 562.042L153.964 556.044L147.966 548.043L139.964 554.04L145.962 562.042ZM215.234 654.463L221.232 662.465L229.234 656.467L223.236 648.465L215.234 654.463ZM186.908 675.694L179.601 682.521L185.726 689.077L192.906 683.696L186.908 675.694ZM167.954 655.409L175.261 648.581L156.715 628.732L157.965 655.869L167.954 655.409ZM161.404 689.187L170.448 693.452L161.404 689.187ZM129.057 711.057C114.466 721.994 99.6293 727.957 84.462 729.431L86.3958 749.337C105.709 747.461 123.957 739.874 141.053 727.061L129.057 711.057ZM84.462 729.431C69.1325 730.92 54.2804 728.189 39.7173 721.082L30.9461 739.056C48.6982 747.719 67.2442 751.198 86.3958 749.337L84.462 729.431ZM39.7624 721.104C25.122 713.868 11.726 702.41 -0.335247 686.318L-16.3388 698.313C-2.7303 716.469 12.9861 730.18 30.901 739.034L39.7624 721.104ZM-0.335247 686.318C-12.5028 670.085 -19.781 653.808 -22.585 637.458L-42.2972 640.839C-38.8721 660.811 -30.0809 679.979 -16.3388 698.313L-0.335247 686.318ZM-22.5773 637.504C-25.3533 620.853 -23.5927 605.182 -17.3744 590.256L-35.8363 582.565C-43.548 601.075 -45.6779 620.562 -42.305 640.793L-22.5773 637.504ZM-17.3597 590.221C-11.1522 575.158 -0.272445 561.549 15.8257 549.483L3.83052 533.479C-14.6391 547.323 -28.0483 563.667 -35.851 582.6L-17.3597 590.221ZM15.8257 549.483C34.2088 535.704 52.0693 529.177 69.5516 528.938L69.2782 508.94C46.6803 509.249 24.8162 517.75 3.83052 533.479L15.8257 549.483ZM69.5516 528.938C87.0199 528.699 102.895 534.496 117.501 546.819L130.397 531.532C112.371 516.325 91.89 508.631 69.2782 508.94L69.5516 528.938ZM117.951 531.174L83.6235 556.903L95.6187 572.907L129.946 547.177L117.951 531.174ZM95.366 556.72C85.1098 549.521 73.641 546.235 61.3054 547.123L62.7415 567.071C70.3263 566.525 77.256 568.444 83.8762 573.09L95.366 556.72ZM61.4717 547.112C48.8969 547.807 36.7248 553.064 25.062 561.806L37.0572 577.809C46.5192 570.717 54.9897 567.501 62.5752 567.082L61.4717 547.112ZM25.062 561.806C6.41226 575.784 -4.45342 593.365 -5.75486 614.423L14.2071 615.656C15.0761 601.595 22.0995 589.021 37.0572 577.809L25.062 561.806ZM-5.75 614.349C-7.16913 634.837 0.415291 655.14 15.2881 674.983L31.2917 662.988C18.3357 645.702 13.2109 630.042 14.2022 615.731L-5.75 614.349ZM15.2881 674.983C30.1239 694.776 47.296 707.717 67.0475 711.902L71.1925 692.336C57.6662 689.471 44.2848 680.323 31.2917 662.988L15.2881 674.983ZM67.2103 711.935C87.0695 715.799 105.991 710.6 123.421 697.535L111.426 681.532C97.8098 691.738 84.5287 694.929 71.0298 692.303L67.2103 711.935ZM123.421 697.535C140.016 685.097 150.543 670.207 152.513 652.678L132.638 650.444C131.479 660.754 125.239 671.179 111.426 681.532L123.421 697.535ZM152.512 652.684C154.399 635.984 150.268 619.433 140.923 603.288L123.613 613.308C131.219 626.448 133.96 638.739 132.638 650.438L152.512 652.684ZM126.271 600.296L83.781 632.143L95.7762 648.147L138.266 616.3L126.271 600.296ZM97.7804 634.148L80.5073 611.102L64.5037 623.098L81.7768 646.143L97.7804 634.148ZM78.5031 625.102L151.96 570.044L139.964 554.04L66.5079 609.098L78.5031 625.102ZM137.96 568.04L207.233 660.46L223.236 648.465L153.964 556.044L137.96 568.04ZM209.237 646.461L180.91 667.692L192.906 683.696L221.232 662.465L209.237 646.461ZM194.215 668.867L175.261 648.581L160.647 662.236L179.601 682.521L194.215 668.867ZM157.965 655.869C158.45 666.401 156.553 676.028 152.359 684.921L170.448 693.452C176.101 681.468 178.571 668.577 177.943 654.948L157.965 655.869ZM152.359 684.921C148.341 693.441 140.853 702.216 129.057 711.057L141.053 727.061C154.542 716.949 164.621 705.809 170.448 693.452L152.359 684.921ZM279.194 606.523L272.99 614.366L279.029 619.143L285.191 614.525L279.194 606.523ZM108.834 471.772L102.836 463.77L92.4451 471.559L102.63 479.615L108.834 471.772ZM141.721 447.122L148.203 439.507L142.118 434.328L135.724 439.12L141.721 447.122ZM272.188 558.161L265.707 565.776L281.462 554.419L272.188 558.161ZM207.496 397.822L201.499 389.82L195.345 394.432L198.223 401.563L207.496 397.822ZM241.344 372.452L247.59 364.642L241.542 359.806L235.346 364.45L241.344 372.452ZM376.131 480.252L369.886 488.062L385.259 476.168L376.131 480.252ZM306.158 323.871L300.161 315.869L293.767 320.662L297.03 327.955L306.158 323.871ZM339.286 299.041L348.579 295.349L343.751 283.197L333.288 291.039L339.286 299.041ZM419.625 501.265L425.623 509.267L431.742 504.68L428.919 497.573L419.625 501.265ZM383.137 528.614L376.959 536.478L382.994 541.219L389.135 536.616L383.137 528.614ZM256.387 429.036L262.565 421.173L233.62 398.433L247.079 432.693L256.387 429.036ZM315.442 579.354L321.439 587.356L327.535 582.787L324.749 575.697L315.442 579.354ZM285.397 598.68L115.038 463.929L102.63 479.615L272.99 614.366L285.397 598.68ZM114.832 479.774L147.719 455.124L135.724 439.12L102.836 463.77L114.832 479.774ZM135.24 454.737L265.707 565.776L278.669 550.546L148.203 439.507L135.24 454.737ZM281.462 554.419L216.77 394.08L198.223 401.563L262.915 561.903L281.462 554.419ZM213.494 405.823L247.341 380.454L235.346 364.45L201.499 389.82L213.494 405.823ZM235.098 380.261L369.886 488.062L382.377 472.443L247.59 364.642L235.098 380.261ZM385.259 476.168L315.286 319.787L297.03 327.955L367.004 484.336L385.259 476.168ZM312.156 331.873L345.283 307.043L333.288 291.039L300.161 315.869L312.156 331.873ZM329.992 302.733L410.332 504.957L428.919 497.573L348.579 295.349L329.992 302.733ZM413.628 493.263L377.139 520.612L389.135 536.616L425.623 509.267L413.628 493.263ZM389.315 520.751L262.565 421.173L250.209 436.9L376.959 536.478L389.315 520.751ZM247.079 432.693L306.134 583.011L324.749 575.697L265.694 425.38L247.079 432.693ZM309.444 571.352L273.196 598.521L285.191 614.525L321.439 587.356L309.444 571.352ZM487.504 450.388L479.502 456.385L485.5 464.387L493.502 458.389L487.504 450.388ZM361.554 282.35L355.557 274.348L347.555 280.346L353.553 288.348L361.554 282.35ZM398.043 255.001L402.501 246.05L396.98 243.3L392.045 246.999L398.043 255.001ZM531.463 321.461L527.004 330.412L544.947 339.349L541.295 319.639L531.463 321.461ZM504.387 175.293L498.389 167.291L493.424 171.013L494.554 177.114L504.387 175.293ZM540.875 147.944L548.877 141.946L542.879 133.944L534.877 139.942L540.875 147.944ZM666.824 315.981L672.822 323.983L680.824 317.986L674.826 309.984L666.824 315.981ZM636.098 339.012L628.096 345.01L634.093 353.012L642.095 347.014L636.098 339.012ZM549.192 223.066L557.194 217.069L539.34 224.78L549.192 223.066ZM571.294 350.093L577.292 358.095L582.197 354.418L581.146 348.379L571.294 350.093ZM547.049 368.266L542.639 377.241L548.141 379.944L553.046 376.267L547.049 368.266ZM431.326 311.411L435.735 302.436L423.324 317.408L431.326 311.411ZM518.231 427.357L524.229 435.359L532.23 429.361L526.233 421.359L518.231 427.357ZM495.506 444.39L369.556 276.352L353.553 288.348L479.502 456.385L495.506 444.39ZM367.552 290.352L404.04 263.003L392.045 246.999L355.557 274.348L367.552 290.352ZM393.584 263.952L527.004 330.412L535.921 312.51L402.501 246.05L393.584 263.952ZM541.295 319.639L514.219 173.471L494.554 177.114L521.63 323.282L541.295 319.639ZM510.384 183.295L546.872 155.945L534.877 139.942L498.389 167.291L510.384 183.295ZM532.873 153.941L658.823 321.979L674.826 309.984L548.877 141.946L532.873 153.941ZM660.827 307.98L630.1 331.01L642.095 347.014L672.822 323.983L660.827 307.98ZM644.099 333.015L557.194 217.069L541.19 229.064L628.096 345.01L644.099 333.015ZM539.34 224.78L561.442 351.807L581.146 348.379L559.044 221.352L539.34 224.78ZM565.297 342.091L541.051 360.264L553.046 376.267L577.292 358.095L565.297 342.091ZM551.458 359.29L435.735 302.436L426.916 320.386L542.639 377.241L551.458 359.29ZM423.324 317.408L510.229 433.355L526.233 421.359L439.328 305.413L423.324 317.408ZM512.233 419.355L481.507 442.386L493.502 458.389L524.229 435.359L512.233 419.355Z" fill="white" fill-opacity="0.04" mask="url(#path-3-outside-1_571_810)"/>
<mask id="path-5-outside-2_571_810" maskUnits="userSpaceOnUse" x="760.17" y="-112.579" width="772.484" height="662.454" fill="black">
<rect fill="white" x="760.17" y="-112.579" width="772.484" height="662.454"/>
<path d="M984.055 476.059C968.211 487.934 951.669 494.709 934.429 496.384C917.188 498.059 900.489 494.954 884.332 487.069C868.054 479.024 853.498 466.44 840.663 449.316C827.708 432.032 819.673 414.31 816.559 396.149C813.484 377.708 815.43 360.129 822.395 343.411C829.4 326.413 841.544 311.436 858.828 298.482C878.513 283.727 898.375 276.213 918.415 275.939C938.455 275.665 956.633 282.411 972.949 296.176L938.621 321.905C930.183 315.983 920.984 313.38 911.023 314.097C900.943 314.654 890.622 318.891 880.06 326.808C863.256 339.403 854.311 354.48 853.226 372.04C852.021 389.44 858.376 407.421 872.29 425.986C886.204 444.55 901.481 455.594 918.12 459.119C934.799 462.364 950.9 458.169 966.424 446.534C981.627 435.138 990.011 422.481 991.575 408.561C993.179 394.362 989.744 379.941 981.268 365.298L938.779 397.146L921.505 374.1L994.962 319.042L1064.23 411.463L1035.91 432.695L1016.95 412.409C1017.51 424.489 1015.33 435.748 1010.4 446.187C1005.48 456.626 996.698 466.583 984.055 476.059ZM1128.19 363.524L957.834 228.772L990.721 204.122L1121.19 315.161L1056.5 154.822L1090.34 129.452L1225.13 237.253L1155.16 80.8716L1188.29 56.0415L1268.63 258.266L1232.14 285.615L1105.39 186.037L1164.44 336.354L1128.19 363.524ZM1336.5 207.388L1210.55 39.3503L1247.04 12.0013L1380.46 78.4612L1353.39 -67.7069L1389.87 -95.056L1515.82 72.9817L1485.1 96.0125L1398.19 -19.9335L1420.29 107.093L1396.05 125.266L1280.33 68.4112L1367.23 184.357L1336.5 207.388Z"/>
</mask>
<path d="M934.429 496.384L935.396 506.337L934.429 496.384ZM884.332 487.069L879.901 496.034L879.923 496.045L879.946 496.056L884.332 487.069ZM816.559 396.149L806.695 397.793L806.699 397.816L806.703 397.839L816.559 396.149ZM822.395 343.411L831.626 347.256L831.633 347.239L831.64 347.221L822.395 343.411ZM918.415 275.939L918.278 265.94L918.415 275.939ZM972.949 296.176L978.946 304.178L989.005 296.638L979.397 288.532L972.949 296.176ZM938.621 321.905L932.876 330.091L938.814 334.258L944.619 329.907L938.621 321.905ZM911.023 314.097L911.575 324.082L911.658 324.077L911.741 324.071L911.023 314.097ZM853.226 372.04L863.202 372.731L863.205 372.694L863.207 372.657L853.226 372.04ZM918.12 459.119L916.048 468.902L916.129 468.919L916.21 468.935L918.12 459.119ZM991.575 408.561L981.638 407.439L981.638 407.445L991.575 408.561ZM981.268 365.298L989.923 360.289L984.281 350.543L975.271 357.296L981.268 365.298ZM938.779 397.146L930.777 403.143L936.774 411.145L944.776 405.147L938.779 397.146ZM921.505 374.1L915.508 366.099L907.506 372.096L913.504 380.098L921.505 374.1ZM994.962 319.042L1002.96 313.045L996.966 305.043L988.964 311.041L994.962 319.042ZM1064.23 411.463L1070.23 419.465L1078.23 413.467L1072.24 405.465L1064.23 411.463ZM1035.91 432.695L1028.6 439.522L1034.73 446.077L1041.91 440.696L1035.91 432.695ZM1016.95 412.409L1024.26 405.582L1005.71 385.733L1006.96 412.869L1016.95 412.409ZM1010.4 446.187L1019.45 450.453L1010.4 446.187ZM978.057 468.057C963.466 478.994 948.629 484.958 933.462 486.431L935.396 506.337C954.709 504.461 972.957 496.875 990.053 484.061L978.057 468.057ZM933.462 486.431C918.133 487.92 903.28 485.189 888.717 478.082L879.946 496.056C897.698 504.719 916.244 508.198 935.396 506.337L933.462 486.431ZM888.762 478.104C874.122 470.869 860.726 459.41 848.665 443.319L832.661 455.314C846.27 473.47 861.986 487.18 879.901 496.034L888.762 478.104ZM848.665 443.319C836.497 427.085 829.219 410.809 826.415 394.459L806.703 397.839C810.128 417.811 818.919 436.98 832.661 455.314L848.665 443.319ZM826.423 394.504C823.647 377.854 825.407 362.182 831.626 347.256L813.164 339.565C805.452 358.075 803.322 377.562 806.695 397.793L826.423 394.504ZM831.64 347.221C837.848 332.158 848.728 318.549 864.826 306.483L852.831 290.48C834.361 304.323 820.952 320.667 813.149 339.6L831.64 347.221ZM864.826 306.483C883.209 292.705 901.069 286.178 918.552 285.938L918.278 265.94C895.68 266.249 873.816 274.75 852.831 290.48L864.826 306.483ZM918.552 285.938C936.02 285.7 951.895 291.497 966.501 303.819L979.397 288.532C961.371 273.325 940.89 265.631 918.278 265.94L918.552 285.938ZM966.951 288.174L932.624 313.904L944.619 329.907L978.946 304.178L966.951 288.174ZM944.366 313.72C934.11 306.522 922.641 303.235 910.305 304.123L911.741 324.071C919.326 323.525 926.256 325.444 932.876 330.091L944.366 313.72ZM910.472 304.112C897.897 304.807 885.725 310.065 874.062 318.806L886.057 334.81C895.519 327.718 903.99 324.501 911.575 324.082L910.472 304.112ZM874.062 318.806C855.412 332.785 844.547 350.366 843.245 371.423L863.207 372.657C864.076 358.595 871.099 346.021 886.057 334.81L874.062 318.806ZM843.25 371.349C841.831 391.837 849.415 412.14 864.288 431.983L880.292 419.988C867.336 402.703 862.211 387.042 863.202 372.731L843.25 371.349ZM864.288 431.983C879.124 451.777 896.296 464.718 916.048 468.902L920.193 449.336C906.666 446.471 893.285 437.323 880.292 419.988L864.288 431.983ZM916.21 468.935C936.069 472.799 954.991 467.6 972.421 454.536L960.426 438.532C946.81 448.738 933.529 451.93 920.03 449.303L916.21 468.935ZM972.421 454.536C989.016 442.098 999.543 427.208 1001.51 409.678L981.638 407.445C980.479 417.754 974.239 428.179 960.426 438.532L972.421 454.536ZM1001.51 409.684C1003.4 392.985 999.268 376.433 989.923 360.289L972.613 370.308C980.219 383.448 982.96 395.739 981.638 407.439L1001.51 409.684ZM975.271 357.296L932.781 389.144L944.776 405.147L987.266 373.3L975.271 357.296ZM946.78 391.148L929.507 368.103L913.504 380.098L930.777 403.143L946.78 391.148ZM927.503 382.102L1000.96 327.044L988.964 311.041L915.508 366.099L927.503 382.102ZM986.96 325.04L1056.23 417.461L1072.24 405.465L1002.96 313.045L986.96 325.04ZM1058.24 403.461L1029.91 424.693L1041.91 440.696L1070.23 419.465L1058.24 403.461ZM1043.21 425.867L1024.26 405.582L1009.65 419.236L1028.6 439.522L1043.21 425.867ZM1006.96 412.869C1007.45 423.401 1005.55 433.029 1001.36 441.921L1019.45 450.453C1025.1 438.468 1027.57 425.577 1026.94 411.949L1006.96 412.869ZM1001.36 441.921C997.341 450.442 989.853 459.216 978.057 468.057L990.053 484.061C1003.54 473.95 1013.62 462.809 1019.45 450.453L1001.36 441.921ZM1128.19 363.524L1121.99 371.367L1128.03 376.144L1134.19 371.525L1128.19 363.524ZM957.834 228.772L951.836 220.771L941.445 228.559L951.63 236.616L957.834 228.772ZM990.721 204.122L997.203 196.507L991.118 191.328L984.724 196.121L990.721 204.122ZM1121.19 315.161L1114.71 322.777L1130.46 311.42L1121.19 315.161ZM1056.5 154.822L1050.5 146.82L1044.35 151.432L1047.22 158.564L1056.5 154.822ZM1090.34 129.452L1096.59 121.643L1090.54 116.806L1084.35 121.45L1090.34 129.452ZM1225.13 237.253L1218.89 245.062L1234.26 233.168L1225.13 237.253ZM1155.16 80.8716L1149.16 72.8698L1142.77 77.6622L1146.03 84.9558L1155.16 80.8716ZM1188.29 56.0415L1197.58 52.3494L1192.75 40.1972L1182.29 48.0397L1188.29 56.0415ZM1268.63 258.266L1274.62 266.267L1280.74 261.681L1277.92 254.573L1268.63 258.266ZM1232.14 285.615L1225.96 293.478L1231.99 298.219L1238.13 293.616L1232.14 285.615ZM1105.39 186.037L1111.56 178.173L1082.62 155.433L1096.08 189.693L1105.39 186.037ZM1164.44 336.354L1170.44 344.356L1176.53 339.788L1173.75 332.698L1164.44 336.354ZM1134.4 355.68L964.038 220.929L951.63 236.616L1121.99 371.367L1134.4 355.68ZM963.832 236.774L996.719 212.124L984.724 196.121L951.836 220.771L963.832 236.774ZM984.24 211.738L1114.71 322.777L1127.67 307.546L997.203 196.507L984.24 211.738ZM1130.46 311.42L1065.77 151.08L1047.22 158.564L1111.91 318.903L1130.46 311.42ZM1062.49 162.824L1096.34 137.454L1084.35 121.45L1050.5 146.82L1062.49 162.824ZM1084.1 137.262L1218.89 245.062L1231.38 229.443L1096.59 121.643L1084.1 137.262ZM1234.26 233.168L1164.29 76.7872L1146.03 84.9558L1216 241.337L1234.26 233.168ZM1161.16 88.8734L1194.28 64.0433L1182.29 48.0397L1149.16 72.8698L1161.16 88.8734ZM1178.99 59.7336L1259.33 261.958L1277.92 254.573L1197.58 52.3494L1178.99 59.7336ZM1262.63 250.264L1226.14 277.613L1238.13 293.616L1274.62 266.267L1262.63 250.264ZM1238.31 277.751L1111.56 178.173L1099.21 193.9L1225.96 293.478L1238.31 277.751ZM1096.08 189.693L1155.13 340.011L1173.75 332.698L1114.69 182.38L1096.08 189.693ZM1158.44 328.353L1122.2 355.522L1134.19 371.525L1170.44 344.356L1158.44 328.353ZM1336.5 207.388L1328.5 213.386L1334.5 221.387L1342.5 215.39L1336.5 207.388ZM1210.55 39.3503L1204.56 31.3485L1196.56 37.3461L1202.55 45.3479L1210.55 39.3503ZM1247.04 12.0013L1251.5 3.05028L1245.98 0.300198L1241.05 3.99946L1247.04 12.0013ZM1380.46 78.4612L1376 87.4122L1393.95 96.3498L1390.3 76.6398L1380.46 78.4612ZM1353.39 -67.7069L1347.39 -75.7087L1342.42 -71.987L1343.55 -65.8855L1353.39 -67.7069ZM1389.87 -95.056L1397.88 -101.054L1391.88 -109.055L1383.88 -103.058L1389.87 -95.056ZM1515.82 72.9818L1521.82 80.9836L1529.82 74.9859L1523.83 66.9842L1515.82 72.9818ZM1485.1 96.0125L1477.1 102.01L1483.09 110.012L1491.1 104.014L1485.1 96.0125ZM1398.19 -19.9335L1406.19 -25.9311L1388.34 -18.2193L1398.19 -19.9335ZM1420.29 107.093L1426.29 115.095L1431.2 111.418L1430.15 105.379L1420.29 107.093ZM1396.05 125.266L1391.64 134.241L1397.14 136.944L1402.05 133.268L1396.05 125.266ZM1280.33 68.4112L1284.74 59.4359L1272.32 74.4088L1280.33 68.4112ZM1367.23 184.357L1373.23 192.359L1381.23 186.361L1375.23 178.36L1367.23 184.357ZM1344.51 201.39L1218.56 33.3527L1202.55 45.3479L1328.5 213.386L1344.51 201.39ZM1216.55 47.3521L1253.04 20.0031L1241.05 3.99946L1204.56 31.3485L1216.55 47.3521ZM1242.58 20.9522L1376 87.4122L1384.92 69.5102L1251.5 3.05028L1242.58 20.9522ZM1390.3 76.6398L1363.22 -69.5283L1343.55 -65.8855L1370.63 80.2827L1390.3 76.6398ZM1359.38 -59.7051L1395.87 -87.0542L1383.88 -103.058L1347.39 -75.7087L1359.38 -59.7051ZM1381.87 -89.0584L1507.82 78.9794L1523.83 66.9842L1397.88 -101.054L1381.87 -89.0584ZM1509.83 64.98L1479.1 88.0107L1491.1 104.014L1521.82 80.9836L1509.83 64.98ZM1493.1 90.0149L1406.19 -25.9311L1390.19 -13.9359L1477.1 102.01L1493.1 90.0149ZM1388.34 -18.2193L1410.44 108.807L1430.15 105.379L1408.04 -21.6477L1388.34 -18.2193ZM1414.3 99.0914L1390.05 117.264L1402.05 133.268L1426.29 115.095L1414.3 99.0914ZM1400.46 116.291L1284.74 59.4359L1275.92 77.3865L1391.64 134.241L1400.46 116.291ZM1272.32 74.4088L1359.23 190.355L1375.23 178.36L1288.33 62.4136L1272.32 74.4088ZM1361.23 176.355L1330.51 199.386L1342.5 215.39L1373.23 192.359L1361.23 176.355Z" fill="white" fill-opacity="0.04" mask="url(#path-5-outside-2_571_810)"/>
<mask id="path-7-outside-3_571_810" maskUnits="userSpaceOnUse" x="1151.17" y="168.421" width="772.484" height="662.454" fill="black">
<rect fill="white" x="1151.17" y="168.421" width="772.484" height="662.454"/>
<path d="M1375.05 757.059C1359.21 768.934 1342.67 775.709 1325.43 777.384C1308.19 779.059 1291.49 775.954 1275.33 768.069C1259.05 760.024 1244.5 747.44 1231.66 730.316C1218.71 713.032 1210.67 695.31 1207.56 677.149C1204.48 658.708 1206.43 641.129 1213.39 624.411C1220.4 607.413 1232.54 592.436 1249.83 579.482C1269.51 564.727 1289.37 557.213 1309.41 556.939C1329.45 556.665 1347.63 563.411 1363.95 577.176L1329.62 602.905C1321.18 596.983 1311.98 594.38 1302.02 595.097C1291.94 595.654 1281.62 599.891 1271.06 607.808C1254.26 620.403 1245.31 635.48 1244.23 653.04C1243.02 670.44 1249.38 688.421 1263.29 706.986C1277.2 725.55 1292.48 736.594 1309.12 740.119C1325.8 743.364 1341.9 739.169 1357.42 727.534C1372.63 716.138 1381.01 703.481 1382.58 689.561C1384.18 675.362 1380.74 660.941 1372.27 646.298L1329.78 678.146L1312.51 655.1L1385.96 600.042L1455.23 692.463L1426.91 713.695L1407.95 693.409C1408.51 705.489 1406.33 716.748 1401.4 727.187C1396.48 737.626 1387.7 747.583 1375.05 757.059ZM1519.19 644.524L1348.83 509.772L1381.72 485.122L1512.19 596.161L1447.5 435.822L1481.34 410.452L1616.13 518.253L1546.16 361.872L1579.29 337.041L1659.63 539.266L1623.14 566.615L1496.39 467.037L1555.44 617.354L1519.19 644.524ZM1727.5 488.388L1601.55 320.35L1638.04 293.001L1771.46 359.461L1744.39 213.293L1780.87 185.944L1906.82 353.982L1876.1 377.013L1789.19 261.067L1811.29 388.093L1787.05 406.266L1671.33 349.411L1758.23 465.357L1727.5 488.388Z"/>
</mask>
<path d="M1325.43 777.384L1326.4 787.337L1325.43 777.384ZM1275.33 768.069L1270.9 777.034L1270.92 777.045L1270.95 777.056L1275.33 768.069ZM1207.56 677.149L1197.7 678.793L1197.7 678.816L1197.7 678.839L1207.56 677.149ZM1213.39 624.411L1222.63 628.256L1222.63 628.239L1222.64 628.221L1213.39 624.411ZM1309.41 556.939L1309.28 546.94L1309.41 556.939ZM1363.95 577.176L1369.95 585.178L1380.01 577.638L1370.4 569.532L1363.95 577.176ZM1329.62 602.905L1323.88 611.091L1329.81 615.258L1335.62 610.907L1329.62 602.905ZM1302.02 595.097L1302.58 605.082L1302.66 605.077L1302.74 605.071L1302.02 595.097ZM1244.23 653.04L1254.2 653.731L1254.2 653.694L1254.21 653.657L1244.23 653.04ZM1309.12 740.119L1307.05 749.902L1307.13 749.919L1307.21 749.935L1309.12 740.119ZM1382.58 689.561L1372.64 688.439L1372.64 688.445L1382.58 689.561ZM1372.27 646.298L1380.92 641.289L1375.28 631.543L1366.27 638.296L1372.27 646.298ZM1329.78 678.146L1321.78 684.143L1327.77 692.145L1335.78 686.147L1329.78 678.146ZM1312.51 655.1L1306.51 647.099L1298.51 653.096L1304.5 661.098L1312.51 655.1ZM1385.96 600.042L1393.96 594.045L1387.97 586.043L1379.96 592.041L1385.96 600.042ZM1455.23 692.463L1461.23 700.465L1469.23 694.467L1463.24 686.465L1455.23 692.463ZM1426.91 713.695L1419.6 720.522L1425.73 727.077L1432.91 721.696L1426.91 713.695ZM1407.95 693.409L1415.26 686.582L1396.71 666.733L1397.96 693.869L1407.95 693.409ZM1401.4 727.187L1410.45 731.453L1401.4 727.187ZM1369.06 749.057C1354.47 759.994 1339.63 765.958 1324.46 767.431L1326.4 787.337C1345.71 785.461 1363.96 777.875 1381.05 765.061L1369.06 749.057ZM1324.46 767.431C1309.13 768.92 1294.28 766.189 1279.72 759.082L1270.95 777.056C1288.7 785.719 1307.24 789.198 1326.4 787.337L1324.46 767.431ZM1279.76 759.104C1265.12 751.869 1251.73 740.41 1239.66 724.319L1223.66 736.314C1237.27 754.47 1252.99 768.18 1270.9 777.034L1279.76 759.104ZM1239.66 724.319C1227.5 708.085 1220.22 691.809 1217.41 675.459L1197.7 678.839C1201.13 698.811 1209.92 717.98 1223.66 736.314L1239.66 724.319ZM1217.42 675.504C1214.65 658.854 1216.41 643.182 1222.63 628.256L1204.16 620.565C1196.45 639.075 1194.32 658.562 1197.7 678.793L1217.42 675.504ZM1222.64 628.221C1228.85 613.158 1239.73 599.549 1255.83 587.483L1243.83 571.48C1225.36 585.323 1211.95 601.667 1204.15 620.6L1222.64 628.221ZM1255.83 587.483C1274.21 573.705 1292.07 567.178 1309.55 566.938L1309.28 546.94C1286.68 547.249 1264.82 555.75 1243.83 571.48L1255.83 587.483ZM1309.55 566.938C1327.02 566.7 1342.89 572.497 1357.5 584.819L1370.4 569.532C1352.37 554.325 1331.89 546.631 1309.28 546.94L1309.55 566.938ZM1357.95 569.174L1323.62 594.904L1335.62 610.907L1369.95 585.178L1357.95 569.174ZM1335.37 594.72C1325.11 587.522 1313.64 584.235 1301.31 585.123L1302.74 605.071C1310.33 604.525 1317.26 606.444 1323.88 611.091L1335.37 594.72ZM1301.47 585.112C1288.9 585.807 1276.72 591.065 1265.06 599.806L1277.06 615.81C1286.52 608.718 1294.99 605.501 1302.58 605.082L1301.47 585.112ZM1265.06 599.806C1246.41 613.785 1235.55 631.366 1234.25 652.423L1254.21 653.657C1255.08 639.595 1262.1 627.021 1277.06 615.81L1265.06 599.806ZM1234.25 652.349C1232.83 672.837 1240.42 693.14 1255.29 712.983L1271.29 700.988C1258.34 683.703 1253.21 668.042 1254.2 653.731L1234.25 652.349ZM1255.29 712.983C1270.12 732.777 1287.3 745.718 1307.05 749.902L1311.19 730.336C1297.67 727.471 1284.28 718.323 1271.29 700.988L1255.29 712.983ZM1307.21 749.935C1327.07 753.799 1345.99 748.6 1363.42 735.536L1351.43 719.532C1337.81 729.738 1324.53 732.93 1311.03 730.303L1307.21 749.935ZM1363.42 735.536C1380.02 723.098 1390.54 708.208 1392.51 690.678L1372.64 688.445C1371.48 698.754 1365.24 709.179 1351.43 719.532L1363.42 735.536ZM1392.51 690.684C1394.4 673.985 1390.27 657.433 1380.92 641.289L1363.61 651.308C1371.22 664.448 1373.96 676.739 1372.64 688.439L1392.51 690.684ZM1366.27 638.296L1323.78 670.144L1335.78 686.147L1378.27 654.3L1366.27 638.296ZM1337.78 672.148L1320.51 649.103L1304.5 661.098L1321.78 684.143L1337.78 672.148ZM1318.5 663.102L1391.96 608.044L1379.96 592.041L1306.51 647.099L1318.5 663.102ZM1377.96 606.04L1447.23 698.461L1463.24 686.465L1393.96 594.045L1377.96 606.04ZM1449.24 684.461L1420.91 705.693L1432.91 721.696L1461.23 700.465L1449.24 684.461ZM1434.21 706.867L1415.26 686.582L1400.65 700.236L1419.6 720.522L1434.21 706.867ZM1397.96 693.869C1398.45 704.401 1396.55 714.029 1392.36 722.921L1410.45 731.453C1416.1 719.468 1418.57 706.577 1417.94 692.949L1397.96 693.869ZM1392.36 722.921C1388.34 731.442 1380.85 740.216 1369.06 749.057L1381.05 765.061C1394.54 754.95 1404.62 743.809 1410.45 731.453L1392.36 722.921ZM1519.19 644.524L1512.99 652.367L1519.03 657.144L1525.19 652.525L1519.19 644.524ZM1348.83 509.772L1342.84 501.771L1332.45 509.559L1342.63 517.616L1348.83 509.772ZM1381.72 485.122L1388.2 477.507L1382.12 472.328L1375.72 477.121L1381.72 485.122ZM1512.19 596.161L1505.71 603.777L1521.46 592.42L1512.19 596.161ZM1447.5 435.822L1441.5 427.82L1435.35 432.432L1438.22 439.564L1447.5 435.822ZM1481.34 410.452L1487.59 402.643L1481.54 397.806L1475.35 402.45L1481.34 410.452ZM1616.13 518.253L1609.89 526.062L1625.26 514.168L1616.13 518.253ZM1546.16 361.872L1540.16 353.87L1533.77 358.662L1537.03 365.956L1546.16 361.872ZM1579.29 337.041L1588.58 333.349L1583.75 321.197L1573.29 329.04L1579.29 337.041ZM1659.63 539.266L1665.62 547.267L1671.74 542.681L1668.92 535.573L1659.63 539.266ZM1623.14 566.615L1616.96 574.478L1622.99 579.219L1629.13 574.616L1623.14 566.615ZM1496.39 467.037L1502.56 459.173L1473.62 436.433L1487.08 470.693L1496.39 467.037ZM1555.44 617.354L1561.44 625.356L1567.53 620.788L1564.75 613.698L1555.44 617.354ZM1525.4 636.68L1355.04 501.929L1342.63 517.616L1512.99 652.367L1525.4 636.68ZM1354.83 517.774L1387.72 493.124L1375.72 477.121L1342.84 501.771L1354.83 517.774ZM1375.24 492.738L1505.71 603.777L1518.67 588.546L1388.2 477.507L1375.24 492.738ZM1521.46 592.42L1456.77 432.08L1438.22 439.564L1502.91 599.903L1521.46 592.42ZM1453.49 443.824L1487.34 418.454L1475.35 402.45L1441.5 427.82L1453.49 443.824ZM1475.1 418.262L1609.89 526.062L1622.38 510.443L1487.59 402.643L1475.1 418.262ZM1625.26 514.168L1555.29 357.787L1537.03 365.956L1607 522.337L1625.26 514.168ZM1552.16 369.873L1585.28 345.043L1573.29 329.04L1540.16 353.87L1552.16 369.873ZM1569.99 340.734L1650.33 542.958L1668.92 535.573L1588.58 333.349L1569.99 340.734ZM1653.63 531.264L1617.14 558.613L1629.13 574.616L1665.62 547.267L1653.63 531.264ZM1629.31 558.751L1502.56 459.173L1490.21 474.9L1616.96 574.478L1629.31 558.751ZM1487.08 470.693L1546.13 621.011L1564.75 613.698L1505.69 463.38L1487.08 470.693ZM1549.44 609.353L1513.2 636.522L1525.19 652.525L1561.44 625.356L1549.44 609.353ZM1727.5 488.388L1719.5 494.386L1725.5 502.387L1733.5 496.39L1727.5 488.388ZM1601.55 320.35L1595.56 312.349L1587.56 318.346L1593.55 326.348L1601.55 320.35ZM1638.04 293.001L1642.5 284.05L1636.98 281.3L1632.05 284.999L1638.04 293.001ZM1771.46 359.461L1767 368.412L1784.95 377.35L1781.3 357.64L1771.46 359.461ZM1744.39 213.293L1738.39 205.291L1733.42 209.013L1734.55 215.115L1744.39 213.293ZM1780.87 185.944L1788.88 179.946L1782.88 171.945L1774.88 177.942L1780.87 185.944ZM1906.82 353.982L1912.82 361.984L1920.82 355.986L1914.83 347.984L1906.82 353.982ZM1876.1 377.013L1868.1 383.01L1874.09 391.012L1882.1 385.014L1876.1 377.013ZM1789.19 261.067L1797.19 255.069L1779.34 262.781L1789.19 261.067ZM1811.29 388.093L1817.29 396.095L1822.2 392.418L1821.15 386.379L1811.29 388.093ZM1787.05 406.266L1782.64 415.241L1788.14 417.944L1793.05 414.268L1787.05 406.266ZM1671.33 349.411L1675.74 340.436L1663.32 355.409L1671.33 349.411ZM1758.23 465.357L1764.23 473.359L1772.23 467.361L1766.23 459.36L1758.23 465.357ZM1735.51 482.39L1609.56 314.353L1593.55 326.348L1719.5 494.386L1735.51 482.39ZM1607.55 328.352L1644.04 301.003L1632.05 284.999L1595.56 312.349L1607.55 328.352ZM1633.58 301.952L1767 368.412L1775.92 350.51L1642.5 284.05L1633.58 301.952ZM1781.3 357.64L1754.22 211.472L1734.55 215.115L1761.63 361.283L1781.3 357.64ZM1750.38 221.295L1786.87 193.946L1774.88 177.942L1738.39 205.291L1750.38 221.295ZM1772.87 191.942L1898.82 359.979L1914.83 347.984L1788.88 179.946L1772.87 191.942ZM1900.83 345.98L1870.1 369.011L1882.1 385.014L1912.82 361.984L1900.83 345.98ZM1884.1 371.015L1797.19 255.069L1781.19 267.064L1868.1 383.01L1884.1 371.015ZM1779.34 262.781L1801.44 389.807L1821.15 386.379L1799.04 259.352L1779.34 262.781ZM1805.3 380.091L1781.05 398.264L1793.05 414.268L1817.29 396.095L1805.3 380.091ZM1791.46 397.291L1675.74 340.436L1666.92 358.387L1782.64 415.241L1791.46 397.291ZM1663.32 355.409L1750.23 471.355L1766.23 459.36L1679.33 343.414L1663.32 355.409ZM1752.23 457.355L1721.51 480.386L1733.5 496.39L1764.23 473.359L1752.23 457.355Z" fill="white" fill-opacity="0.04" mask="url(#path-7-outside-3_571_810)"/>
</g>
<defs>
<linearGradient id="paint0_linear_571_810" x1="960" y1="0" x2="960" y2="600" gradientUnits="userSpaceOnUse">
<stop stop-color="#9BB0C4"/>
<stop offset="1" stop-color="#4A545E"/>
</linearGradient>
<linearGradient id="paint1_linear_571_810" x1="960" y1="0" x2="960" y2="600" gradientUnits="userSpaceOnUse">
<stop stop-color="#5B93C7"/>
<stop offset="1" stop-color="#9DBEDD"/>
</linearGradient>
</defs>
</svg>
