<?xml version="1.0" encoding="utf-8"?>
<!-- Generator: Adobe Illustrator 28.0.0, SVG Export Plug-In . SVG Version: 6.00 Build 0)  -->
<svg version="1.1" id="Layer_1" xmlns="http://www.w3.org/2000/svg" xmlns:xlink="http://www.w3.org/1999/xlink" x="0px" y="0px"
	 viewBox="0 0 390.1 163.7" style="enable-background:new 0 0 390.1 163.7;" xml:space="preserve">
<style type="text/css">
	.st0{fill:#5B93C7;}
	.st1{fill-rule:evenodd;clip-rule:evenodd;fill:#5B93C7;}
</style>
<g>
	<g>
		<polygon class="st0" points="48.1,145.2 64.1,163.4 80.1,145.1 64.2,127.5 		"/>
		<path class="st0" d="M64.2,0.3c-12.9,0-24.6,3.5-34.3,9.5C14.7,19.1,4.3,34.3,1.4,50.5C1,52.6-1.2,64.1,2.8,75.1h20.5
			c-4.8-12.8-4.1-28.8,4.1-40.1C33,27.3,41.7,22,51,19.4c13.2-3.8,28.6-1.8,39.8,6.2c11.2,7.9,16.9,21.4,16.7,34.5
			c0,0.2,0,0.4,0,0.6h20.1c-0.1-27.2-17.8-47.5-39.9-56c-4-1.6-8.2-2.7-12.4-3.5c-2.2-0.4-4.3-0.6-6.5-0.8c-1.4-0.1-2.8-0.1-4.2-0.1
			L64.2,0.3L64.2,0.3z"/>
		<path class="st0" d="M78,63.5v14.4h25.6c0,0-0.3,1.1-0.4,1.5c-0.2,0.5-0.3,1-0.5,1.5c-1.8,5.3-4.9,10.2-8.6,14.7
			c-2.2,2.7-8.3,11.1-12.8,10c-1.4-0.3-2.6-1.2-3.7-2.2c-3.2-2.7-10.8-12.4-13.5-15.9c-1.4,2-12.5,17.8-17.4,18.1
			c-2.9,0.2-5.4-1.6-7.3-3.5c-6.7-6.6-11.8-14.9-15-23.6c-0.1-0.2-0.1-0.4-0.2-0.6H3.8c0,0,0.8,2,1.8,4.2
			c5.1,11.3,11.5,22,18.7,32.2c6.9,9.9,14.4,19.5,22.1,28.9l17.9-19.5L82,143.1c2.9-3.1,5.5-6.6,8.1-9.9
			c12.5-16.2,25.7-32.6,33.3-51.6c1.5-3.9,2.8-7.8,3.5-11.9c0.4-2,0.6-4,0.6-6.1L78,63.5L78,63.5z M103.6,77.9
			C103.4,77.9,103.6,77.9,103.6,77.9L103.6,77.9z"/>
	</g>
	<g>
		<g>
			<polygon class="st0" points="187.4,117.5 187.4,95.2 189.4,95.2 199.5,112.6 198.5,112.6 208.6,95.2 210.5,95.2 210.5,117.5 
				208.3,117.5 208.3,98.7 208.8,98.7 199.5,114.6 198.4,114.6 189.1,98.7 189.7,98.7 189.7,117.5 			"/>
			<path class="st0" d="M227.8,117.5v-3.7l-0.1-0.6V107c0-1.4-0.4-2.5-1.2-3.3s-2-1.1-3.5-1.1c-1.1,0-2.1,0.2-3.1,0.5
				c-1,0.4-1.8,0.8-2.5,1.4l-1-1.7c0.8-0.7,1.9-1.3,3.1-1.7c1.2-0.4,2.4-0.6,3.8-0.6c2.2,0,3.8,0.5,5,1.6s1.8,2.7,1.8,4.9v10.4
				L227.8,117.5L227.8,117.5z M222,117.6c-1.3,0-2.3-0.2-3.3-0.6c-0.9-0.4-1.6-1-2.1-1.7s-0.7-1.6-0.7-2.5s0.2-1.7,0.6-2.4
				c0.4-0.7,1.1-1.3,2-1.7c0.9-0.4,2.2-0.7,3.8-0.7h5.8v1.7h-5.7c-1.6,0-2.7,0.3-3.4,0.9c-0.6,0.6-0.9,1.3-0.9,2.1
				c0,1,0.4,1.7,1.1,2.3c0.7,0.6,1.8,0.9,3.1,0.9s2.4-0.3,3.3-0.9c0.9-0.6,1.6-1.4,2-2.5l0.5,1.6c-0.4,1.1-1.2,2-2.2,2.6
				C224.9,117.3,223.6,117.6,222,117.6L222,117.6z"/>
			<path class="st0" d="M236.1,117.5v-16.7h2.2v4.5l-0.2-0.8c0.5-1.3,1.2-2.2,2.4-2.9c1.1-0.7,2.5-1,4.1-1v2.2c-0.1,0-0.2,0-0.3,0
				s-0.2,0-0.3,0c-1.8,0-3.1,0.5-4.1,1.6s-1.5,2.6-1.5,4.6v8.5L236.1,117.5L236.1,117.5z"/>
			<path class="st0" d="M250.3,113.1l0.1-2.9l10.4-9.5h2.8l-7.3,7l-1.3,1.1L250.3,113.1L250.3,113.1z M248.6,117.5V93.9h2.3v23.6
				H248.6L248.6,117.5z M261.5,117.5l-7-8.7l1.5-1.7l8.3,10.4L261.5,117.5L261.5,117.5z"/>
			<path class="st0" d="M274.1,117.6c-1.7,0-3.3-0.4-4.6-1.1c-1.3-0.7-2.3-1.7-3.1-3c-0.7-1.3-1.1-2.8-1.1-4.4
				c0-1.7,0.4-3.1,1.1-4.4s1.7-2.3,2.9-3c1.2-0.7,2.6-1.1,4.2-1.1s3,0.4,4.2,1.1s2.2,1.7,2.9,3c0.7,1.3,1,2.8,1,4.4
				c0,0.1,0,0.2,0,0.3c0,0.1,0,0.2,0,0.4H267v-1.7h13.3l-0.9,0.7c0-1.2-0.3-2.3-0.8-3.2c-0.5-0.9-1.2-1.7-2.1-2.2s-1.9-0.8-3.1-0.8
				c-1.1,0-2.2,0.3-3.1,0.8s-1.6,1.3-2.1,2.2c-0.5,1-0.8,2-0.8,3.3v0.3c0,1.3,0.3,2.4,0.8,3.4c0.6,1,1.3,1.7,2.4,2.3
				c1,0.5,2.2,0.8,3.4,0.8c1,0,2-0.2,2.8-0.5c0.9-0.4,1.6-0.9,2.3-1.7l1.3,1.5c-0.7,0.9-1.7,1.6-2.8,2
				C276.7,117.4,275.4,117.6,274.1,117.6L274.1,117.6z"/>
			<path class="st0" d="M291.5,117.6c-1.6,0-2.8-0.4-3.6-1.3c-0.8-0.8-1.3-2-1.3-3.6V97.1h2.3v15.5c0,1,0.2,1.7,0.7,2.3
				c0.5,0.5,1.2,0.8,2.1,0.8c1,0,1.8-0.3,2.5-0.9l0.8,1.6c-0.4,0.4-1,0.7-1.6,0.9C292.8,117.5,292.1,117.6,291.5,117.6L291.5,117.6z
				 M283.6,102.6v-1.9h10.3v1.9H283.6L283.6,102.6z"/>
			<path class="st0" d="M299.6,117.5V101h0.6v16.4L299.6,117.5L299.6,117.5z M299.9,96.5c-0.2,0-0.4-0.1-0.6-0.3
				c-0.2-0.2-0.3-0.4-0.3-0.6s0.1-0.4,0.3-0.6c0.2-0.2,0.4-0.2,0.6-0.2s0.4,0.1,0.6,0.2c0.2,0.2,0.2,0.4,0.2,0.6s-0.1,0.4-0.2,0.6
				C300.4,96.4,300.2,96.5,299.9,96.5L299.9,96.5z"/>
			<path class="st0" d="M315.1,100.9c1.4,0,2.5,0.3,3.5,0.8s1.7,1.3,2.3,2.3c0.5,1,0.8,2.3,0.8,3.8v9.7h-0.6v-9.7
				c0-2-0.5-3.6-1.6-4.6c-1-1.1-2.5-1.6-4.4-1.6c-1.4,0-2.7,0.3-3.7,0.9s-1.8,1.4-2.4,2.4s-0.8,2.3-0.8,3.7v8.9h-0.6V101h0.6v4.7
				l-0.1-0.1c0.5-1.4,1.3-2.6,2.5-3.4C311.8,101.3,313.3,100.9,315.1,100.9L315.1,100.9z"/>
			<path class="st0" d="M335.4,123.7c-1.5,0-2.9-0.2-4.2-0.7c-1.3-0.5-2.3-1.2-3.1-2l0.4-0.4c0.8,0.8,1.9,1.5,3,1.9
				c1.2,0.4,2.4,0.7,3.8,0.7c2.4,0,4.1-0.6,5.3-1.7c1.1-1.1,1.7-2.9,1.7-5.3v-5.3l0.3-1.9l-0.3-1.9v-6h0.6v15c0,2.6-0.6,4.6-1.9,5.8
				C339.9,123.1,338,123.7,335.4,123.7L335.4,123.7z M335,116.9c-1.5,0-2.9-0.3-4.1-1s-2.2-1.6-2.9-2.8c-0.7-1.2-1.1-2.6-1.1-4.1
				c0-1.6,0.4-3,1.1-4.1c0.7-1.2,1.7-2.1,2.9-2.8c1.2-0.7,2.6-1,4.1-1s2.9,0.3,4.1,1s2.1,1.6,2.8,2.8c0.7,1.2,1,2.6,1,4.1
				s-0.3,2.9-1,4.1s-1.6,2.2-2.8,2.8C337.9,116.6,336.5,116.9,335,116.9L335,116.9z M335,116.3c1.4,0,2.7-0.3,3.8-0.9
				c1.1-0.6,2-1.5,2.6-2.6s1-2.4,1-3.8c0-1.5-0.3-2.7-1-3.8c-0.6-1.1-1.5-2-2.6-2.6s-2.4-0.9-3.8-0.9s-2.7,0.3-3.8,0.9
				c-1.1,0.6-2,1.5-2.7,2.6s-1,2.4-1,3.8s0.3,2.7,1,3.8c0.6,1.1,1.5,2,2.7,2.6C332.3,116,333.5,116.3,335,116.3L335,116.3z"/>
		</g>
		<g>
			<path class="st0" d="M143.3,48.5c2.5-4.1,6.5-7.5,11.5-8.3c2.6-0.4,5.2-0.3,7.8,0c5.6,1.1,10.2,5.2,11.7,10.6
				c0,0.4,0.1,1.2,0.1,1.6c-0.2,0-0.7,0.1-1,0.1c-0.8-3.9-3.3-7.6-6.9-9.5c-3.7-2.1-8.2-2.3-12.3-1.4c-5.1,1.2-9.2,5.2-11,9.9
				c-0.2,0.8-0.5,1.5-0.8,2.3c-1.1,5.9-0.8,12.6,3,17.7c5.4,7.7,18.5,8.5,24.8,1.4c1.7-1.7,2.8-3.9,3.4-6.1c0.1-1.7,0.2-3.4,0.2-5.1
				c-4.9,0-9.8,0-14.7,0c0-0.3,0-0.8,0-1c5.3,0,10.5,0,15.8,0c0,5.7,0,11.4,0,17.1c-0.3,0-0.9,0-1.2,0c0.1-2.9,0-5.8,0-8.6
				c-1.4,4.2-5.1,7.5-9.4,8.9c-5.3,1.5-11.5,1.1-16.1-2.1c-2.3-1.5-3.9-3.8-5.3-6.1C140,63.1,139.9,55.1,143.3,48.5"/>
			<path class="st0" d="M180.5,40.9h1c0,0,0,16.5,0.2,24.9c0.3,3.3,1.1,6.9,4,9c2.9,2.6,7.1,3,10.8,2.7c3.5-0.3,7-1.9,8.9-4.9
				c1.7-2.9,2.1-6.3,2.1-9.5c0-7.4,0-14.8,0-22.2c0.3,0,0.8,0,1.1,0c0,8,0,16,0,23.9c0,4.3-1.5,9-5.4,11.5c-3.6,2.4-8.3,2.5-12.6,2
				c-3.1-0.6-6.1-2.2-7.8-4.9c-2.1-3.3-2.4-7.2-2.3-11C180.5,55.4,180.5,40.9,180.5,40.9"/>
			<path class="st0" d="M214.4,40.9h0.9c0.1,11.9,0,23.9,0,35.8c6.9,0,13.9,0,20.8,0c0.6,0.1,1.7-0.2,1.7,0.7c-0.9,0.5-2,0.4-3,0.5
				c-6.8,0-13.6,0-20.4,0C214.2,65.6,214.3,53.2,214.4,40.9"/>
			<path class="st0" d="M240,40.9c8.9,0,17.8,0,26.6,0c3.1,10.8,5.7,21.6,8.9,32.3c1.4-6.2,3.6-12.2,5.2-18.3c1.2-4.6,3.9-14,3.9-14
				h5c0,0,3.3,11.7,4.8,17.5c1.2,5,3,9.8,4.2,14.8c3.2-10.6,8.9-32.3,8.9-32.3h3.6c0,0-6.1,21-9,31.6c-0.5,1.8-1,3.6-1.6,5.4
				c-1.2,0-2.4,0-3.6,0c-1.4-3.4-2.2-7.1-3.3-10.6c-2.2-7.6-4.4-15.1-6.7-22.7c-1.5,4.9-2.7,9.9-4.3,14.8
				c-1.9,6.1-3.3,12.5-5.6,18.5c-1.2,0-2.4,0-3.7,0c-2.2-7.4-4.3-14.9-6.4-22.3c-1.2-4.6-2.7-9.1-4-13.7c-7.3,0-14.6,0-21.9,0
				c0,5.4,0,10.7,0,16.1c6.9,0.1,13.7-0.1,20.6,0.1c-0.2,0.7-0.7,1-1.4,0.9c-6.4,0-12.8,0-19.3,0c0,6.2,0,12.4,0,18.6H240
				C240,65.4,239.8,53.2,240,40.9"/>
			<path class="st0" d="M328.2,44.4c-2.7,6.2-5.1,12.5-7.7,18.8c4.9,0.1,9.9,0,14.8,0C333.1,56.9,330.4,50.8,328.2,44.4 M326.2,40.9
				h4.2c0,0,10,24.6,14.9,37c-1.3,0-2.5,0-3.8,0c-1.7-3.8-3.2-7.7-4.7-11.6c-5.8,0-11.6,0-17.4,0c-1.5,3.7-3.2,7.4-4.4,11.2
				c-1.4,0.4-2.8,0.5-4.2,0c3.5-7.6,6.5-15.4,9.8-23C322.3,50,326.2,40.9,326.2,40.9"/>
			<path class="st0" d="M344.4,40.9c1.4,0,2.8,0,4.2,0c4.4,6.1,8.4,12.3,12.5,18.6c4.4-5.9,12.6-18.6,12.6-18.6h4.4
				c0,0-10.1,14.3-14.9,21.5c-0.5,5.1,0,10.3-0.2,15.5c-1.2,0-2.4,0-3.5,0c-0.2-5.1,0.1-10.2-0.2-15.3
				C354.4,55.3,349.2,48.3,344.4,40.9"/>
			<path class="st1" d="M385.3,40.9c2.4,0,4.4,1.9,4.4,4.3c0,2.4-2,4.3-4.4,4.3s-4.4-1.9-4.4-4.3C381,42.8,382.9,40.9,385.3,40.9
				L385.3,40.9z M385.3,41.4c2.1,0,3.8,1.7,3.8,3.8s-1.7,3.8-3.8,3.8s-3.8-1.7-3.8-3.8C381.5,43.1,383.2,41.4,385.3,41.4L385.3,41.4
				z"/>
			<path class="st0" d="M383.9,47v-3.6h1.7c0.3,0,0.6,0,0.8,0.1s0.3,0.2,0.4,0.3c0.1,0.2,0.2,0.3,0.2,0.5c0,0.3-0.1,0.5-0.3,0.7
				c-0.2,0.2-0.4,0.3-0.8,0.3c0.1,0.1,0.2,0.1,0.3,0.2c0.1,0.1,0.3,0.3,0.4,0.5l0.7,1h-0.6l-0.5-0.8c-0.1-0.2-0.3-0.4-0.4-0.5
				s-0.2-0.2-0.3-0.2c-0.1,0-0.1-0.1-0.2-0.1s-0.1,0-0.3,0h-0.6V47H383.9L383.9,47z M384.4,45h1.1c0.2,0,0.4,0,0.5-0.1
				c0.1,0,0.2-0.1,0.3-0.2c0.1-0.1,0.1-0.2,0.1-0.3c0-0.2-0.1-0.3-0.2-0.4c-0.1-0.1-0.3-0.2-0.6-0.2h-1.2L384.4,45L384.4,45z"/>
		</g>
	</g>
</g>
</svg>
