<?xml version="1.0" encoding="utf-8"?>
<!-- Generator: Adobe Illustrator 27.6.1, SVG Export Plug-In . SVG Version: 6.00 Build 0)  -->
<svg version="1.1" id="Layer_1" xmlns="http://www.w3.org/2000/svg" xmlns:xlink="http://www.w3.org/1999/xlink" x="0px" y="0px"
	 viewBox="0 0 2698.42 1060.64" style="enable-background:new 0 0 2698.42 1060.64;" xml:space="preserve">
<style type="text/css">
	.st0{fill:#5A94C8;}
	.st1{fill:#9BB0C4;}
	.st2{fill:#9BB2C5;}
	.st3{fill-rule:evenodd;clip-rule:evenodd;fill:#9BB2C5;}
</style>
<g>
	<g>
		<polygon class="st0" points="311.12,883.81 397.11,985.63 483.46,883.63 397.54,785.29 311.12,883.81 		"/>
		<path class="st0" d="M397.65,75.01c-69.3,0.22-132.18,19.37-184.47,52.81C131.76,179.9,75.86,265.08,60.36,355.22
			c-2.04,11.9-13.9,76.06,7.55,137.45h110.02c-25.81-71.4-21.97-160.63,22.17-223.92c30-43.02,76.88-72.33,126.64-87.16
			c71.09-21.17,153.51-9.95,214.09,34.49c60.02,44.03,90.54,119.2,89.47,192.69c-0.02,1.19-0.04,2.39-0.07,3.58l108.1-0.01
			c-0.64-151.95-95.8-265.04-214.33-312.89c-21.58-8.71-43.98-15.29-66.72-19.28c-11.59-2.04-23.28-3.54-34.98-4.34
			c-7.55-0.52-15.11-0.79-22.66-0.81H397.65L397.65,75.01z"/>
		<path class="st0" d="M471.77,427.75v80.3h137.51c0.19,0-1.62,6.3-2.14,8.14c-0.81,2.87-1.69,5.73-2.61,8.55
			c-9.69,29.59-26.12,57.11-46,81.93c-11.93,14.9-44.75,61.91-68.8,55.66c-7.25-1.89-13.84-6.78-19.94-12.25
			c-17.04-15.27-58.03-69.5-72.58-88.52c-7.72,11.14-67.1,99.26-93.51,101.22c-15.73,1.17-29.04-8.88-39.44-19.62
			c-35.82-36.98-63.49-83.26-80.32-131.91c-0.37-1.07-0.73-2.14-1.09-3.21H73.05c0,0,4.28,11.32,9.43,23.27
			c27.21,63.1,61.99,122.64,100.28,179.54c37.3,55.43,77.55,109.05,118.86,161.51l95.92-108.61c0,0,95.24,108.28,95.29,108.26
			c15.6-17.55,29.32-36.64,43.36-55.45c67.41-90.3,138.16-182.04,179.04-288.29c8.28-21.54,14.92-43.75,18.85-66.52
			c1.93-11.24,3.14-22.61,3.41-34.02H471.77L471.77,427.75z M609.28,508.05C608.22,508.05,609.28,508.05,609.28,508.05
			L609.28,508.05z"/>
	</g>
	<g>
		<path class="st0" d="M853.01,420.65c17.87-29.1,46.85-53.71,82.36-59.13c18.44-3.13,37.23-2.47,55.76-0.33
			c39.97,7.71,73.22,37.47,83.82,75.57c0.27,2.8,0.77,8.52,1.04,11.32c-1.7,0.15-5.12,0.36-6.82,0.48
			c-5.96-27.94-23.29-54.3-49.62-68.09c-26.24-15.04-58.86-16.62-87.99-10.01c-36.79,8.58-65.59,37.35-78.85,70.83
			c-1.79,5.51-3.43,11.08-5.6,16.5c-8.16,42.6-5.69,90.43,21.57,126.53c38.45,55.4,132.43,60.53,177.62,10.28
			c12.45-11.94,19.78-27.58,24.69-43.64c1.04-12.18,1.49-24.45,1.43-36.67c-35.15-0.33-70.36,0.15-105.5-0.15
			c0.06-1.91,0.18-5.69,0.27-7.51c37.62-0.27,75.3,0.15,112.98-0.24c0.36,40.84-0.18,81.7,0.36,122.54
			c-2.09,0.09-6.31,0.21-8.4,0.24c0.36-20.58,0.27-41.2-0.27-61.75c-9.95,30.29-36.79,53.59-67.62,63.48
			c-38.01,10.46-82.48,7.92-115.33-14.89c-16.8-10.6-28.03-27.11-38.19-43.43C829.15,524.73,828.91,467.69,853.01,420.65"/>
		<path class="st0" d="M1119.72,365.84l7.06,0.06c0,0,0.09,118.07,1.28,178.69c1.94,23.47,8.01,49.53,28.33,64.76
			c20.73,18.47,50.67,21.18,77.56,19.09c25.08-1.85,50.31-13.85,63.53-35.12c12.21-20.55,15.01-44.89,14.95-68.18
			c-0.09-52.96,0-105.92-0.09-158.85c2,0,5.96,0.06,7.95,0.12c-0.09,57.1,0.15,114.26-0.15,171.39
			c-0.18,30.77-10.84,64.64-38.36,82.72c-26.12,17.48-59.75,18.11-90.13,14.09c-22.28-4.29-43.67-16.03-55.7-35.09
			c-14.77-23.44-17.31-51.77-16.74-78.58C1119.69,470.1,1119.72,365.84,1119.72,365.84"/>
		<path class="st0" d="M1362.06,365.99h6.34c0.57,85.52,0.15,171.01,0.15,256.52c49.71,0.27,99.43,0,149.14,0.12
			c4.41,0.6,11.89-1.4,12.03,5.06c-6.43,3.9-14.06,3.22-21.27,3.4c-48.67-0.15-97.4-0.18-146.1-0.06
			C1361.08,542.72,1361.74,454.34,1362.06,365.99"/>
		<path class="st0" d="M1545.4,365.9c63.48-0.09,127.4-0.06,190.84-0.06c21.95,77.3,40.51,154.5,63.47,231.53
			c10.31-44.29,25.74-87.21,37.03-131.27c8.31-32.77,28-100.2,28-100.2h35.66c0,0,23.83,83.91,34.64,125.19
			c8.73,35.63,21.77,70.12,29.91,105.92c23.09-76.16,63.8-231.12,63.8-231.12h25.97c0,0-43.4,150.33-64.37,226.23
			c-3.6,13.05-7.15,26.12-11.56,38.96c-8.64-0.09-17.28-0.09-25.88,0.06c-9.95-24.69-15.73-50.64-23.5-75.93
			c-15.97-54.12-31.39-108.39-47.72-162.4c-10.43,35.3-19.51,70.92-30.59,106.04c-13.82,43.97-23.47,89.24-40.24,132.28
			c-8.73-0.21-17.49-0.24-26.21-0.15c-15.55-53.17-30.62-106.49-46.02-159.72c-8.55-32.92-19.15-65.26-28.33-98.06
			c-52.28-0.15-104.55,0.06-156.83-0.06c-0.21,38.42-0.18,76.85,0.03,115.24c49.21,0.51,98.45-0.65,147.68,0.63
			c-1.61,4.92-4.92,7.18-9.89,6.76c-45.96,0.21-91.95-0.12-137.91,0.09c0,44.44-0.09,88.91,0.03,133.35h-8.01
			C1545.7,541.17,1544.48,453.98,1545.4,365.9L1545.4,365.9z"/>
		<path class="st1" d="M2177.29,391.37c-19.33,44.44-36.85,89.63-54.87,134.58c35.36,0.42,70.68,0.21,106.07,0.12
			C2212.5,480.79,2192.69,436.86,2177.29,391.37 M2162.82,365.9h29.85c0,0,71.93,175.98,106.46,265.13
			c-9.08-0.03-18.14-0.09-27.14-0.03c-11.83-27.43-22.94-55.14-33.48-83.02c-41.43-0.15-82.9,0.06-124.3-0.12
			c-10.69,26.69-22.82,52.87-31.34,80.3c-9.98,3.16-20.4,3.58-30.32-0.06c25.02-54.27,46.23-110.15,69.97-165.05
			C2135.11,431.11,2162.82,365.9,2162.82,365.9"/>
		<path class="st2" d="M2293.4,365.9c9.8-0.18,20.05,0.12,29.9,0c31.31,44.02,59.96,88.08,89.6,133.15
			c31.48-42.3,90.31-133.15,90.31-133.15h31.75c0,0-72.38,102.55-106.87,154.12c-3.66,36.58-0.27,74.05-1.67,110.99
			c-8.52-0.09-16.98-0.06-25.41,0.09c-1.52-36.52,1.04-73.25-1.49-109.62C2364.98,468.79,2327.63,418.86,2293.4,365.9"/>
		<path class="st0" d="M1545.4,365.9c63.48-0.09,127.4-0.06,190.84-0.06c21.95,77.3,40.51,154.5,63.47,231.53
			c10.31-44.29,25.74-87.21,37.03-131.27c8.31-32.77,28-100.2,28-100.2h35.66c0,0,23.83,83.91,34.64,125.19
			c8.73,35.63,21.77,70.12,29.91,105.92c23.09-76.16,63.8-231.12,63.8-231.12h25.97c0,0-43.4,150.33-64.37,226.23
			c-3.6,13.05-7.15,26.12-11.56,38.96c-8.64-0.09-17.28-0.09-25.88,0.06c-9.95-24.69-15.73-50.64-23.5-75.93
			c-15.97-54.12-31.39-108.39-47.72-162.4c-10.43,35.3-19.51,70.92-30.59,106.04c-13.82,43.97-23.47,89.24-40.24,132.28
			c-8.73-0.21-17.49-0.24-26.21-0.15c-15.55-53.17-30.62-106.49-46.02-159.72c-8.55-32.92-19.15-65.26-28.33-98.06
			c-52.28-0.15-104.55,0.06-156.83-0.06c-0.21,38.42-0.18,76.85,0.03,115.24c49.21,0.51,98.45-0.65,147.68,0.63
			c-1.61,4.92-4.92,7.18-9.89,6.76c-45.96,0.21-91.95-0.12-137.91,0.09c0,44.44-0.09,88.91,0.03,133.35h-8.01
			C1545.7,541.17,1544.48,453.98,1545.4,365.9L1545.4,365.9z"/>
		<path class="st2" d="M2054.72,365.9c0,0-43.39,150.33-64.36,226.23c-3.61,13.05-7.15,26.13-11.56,38.96
			c-8.63-0.09-17.27-0.09-25.88,0.07c-9.95-24.7-15.73-50.65-23.5-75.93c-15.97-54.12-31.4-108.4-47.72-162.4
			c-10.43,35.29-19.51,70.92-30.59,106.04c-13.83,43.97-23.48,89.24-40.24,132.29c-8.73-0.22-17.49-0.24-26.22-0.15
			c-15.54-53.17-30.61-106.48-46.01-159.71c-8.52-32.84-19.1-65.12-28.26-97.84v-7.61h25.88c21.95,77.29,40.5,154.5,63.47,231.53
			c10.31-44.3,25.74-87.22,37.03-131.27c8.31-32.77,28-100.2,28-100.2h35.65c0,0,23.84,83.9,34.65,125.2
			c8.72,35.62,21.77,70.11,29.9,105.92c23.08-76.16,63.81-231.11,63.81-231.11H2054.72z"/>
		<path class="st0" d="M1710.37,365.85v7.61c-0.02-0.08-0.04-0.15-0.07-0.23c-52.27-0.14-104.55,0.07-156.82-0.05
			c-0.21,38.43-0.19,76.85,0.02,115.25c49.21,0.5,98.45-0.66,147.69,0.62c-1.61,4.91-4.92,7.18-9.89,6.75
			c-45.96,0.21-91.95-0.11-137.92,0.1c0,44.44-0.09,88.91,0.03,133.35h-8.01c0.3-88.08-0.92-175.26,0-263.34
			C1600.25,365.83,1655.45,365.84,1710.37,365.85z"/>
		<g>
			<path class="st3" d="M2584.2,365.84c17.22,0,31.22,13.76,31.22,30.71s-14,30.71-31.22,30.71c-17.22,0-31.22-13.76-31.22-30.71
				S2566.98,365.84,2584.2,365.84L2584.2,365.84z M2584.2,369.66c15.1,0,27.34,12.03,27.34,26.9c0,14.86-12.24,26.93-27.34,26.93
				c-15.1,0-27.34-12.06-27.34-26.93C2556.85,381.69,2569.1,369.66,2584.2,369.66L2584.2,369.66z"/>
			<path class="st2" d="M2573.68,409.57v-26h11.97c2.41,0,4.26,0.21,5.51,0.68s2.23,1.28,3.01,2.47c0.74,1.19,1.1,2.5,1.1,3.93
				c0,1.85-0.62,3.4-1.85,4.68c-1.25,1.25-3.16,2.06-5.75,2.41c0.92,0.42,1.67,0.86,2.14,1.28c1.04,0.92,2.03,2.09,2.98,3.46
				l4.71,7.09h-4.5l-3.6-5.42c-1.04-1.55-1.91-2.74-2.56-3.57c-0.69-0.83-1.28-1.4-1.82-1.76c-0.54-0.33-1.07-0.54-1.64-0.69
				c-0.42-0.09-1.07-0.12-2-0.12h-4.14v11.56H2573.68L2573.68,409.57z M2577.26,395.04h7.68c1.64,0,2.92-0.15,3.84-0.48
				c0.92-0.33,1.61-0.86,2.09-1.58c0.48-0.71,0.71-1.49,0.71-2.32c0-1.22-0.45-2.23-1.37-3.04c-0.92-0.8-2.41-1.19-4.41-1.19h-8.55
				V395.04L2577.26,395.04z"/>
		</g>
	</g>
</g>
</svg>
