<svg width="200" height="85" viewBox="0 0 200 85" fill="none" xmlns="http://www.w3.org/2000/svg">
<path d="M24.9648 75.4944L33.3547 85L41.7799 75.4794L33.396 66.3L24.9648 75.4944Z" fill="#5B93C7"/>
<path d="M33.4069 0.00100069C26.6459 0.0220153 20.511 1.80926 15.409 4.93042C7.46508 9.79079 2.01073 17.7433 0.497652 26.1562C0.299331 27.2679 -0.858383 33.2561 1.23456 38.9861H11.9691C9.4493 32.3214 9.8248 23.9926 14.1325 18.0835C17.059 14.0688 21.6325 11.3329 26.4878 9.9489C33.4251 7.97153 41.4636 9.01926 47.376 13.1661C53.234 17.277 56.2099 24.2929 56.1062 31.1526C56.1042 31.2637 56.1022 31.3758 56.1001 31.4888L66.6454 31.4868C66.585 17.303 57.2981 6.74768 45.7341 2.28158C43.6311 1.46702 41.4435 0.854593 39.2257 0.482335C38.0942 0.291202 36.9546 0.152106 35.814 0.0750521C35.0771 0.0280194 34.3402 0.00200139 33.6002 0H33.4069V0.00100069Z" fill="#5B93C7"/>
<path d="M40.639 32.9259V40.4221H54.0544C54.0735 40.4221 53.8974 41.0115 53.845 41.1826C53.7655 41.4508 53.6809 41.716 53.5903 41.9792C52.644 44.7431 51.0403 47.3109 49.1014 49.6275C47.9377 51.0174 44.7353 55.4075 42.3907 54.8221C41.682 54.6459 41.0397 54.1896 40.4447 53.6803C38.7827 52.2553 34.783 47.1938 33.3625 45.4175C32.6105 46.4563 26.8149 54.683 24.2398 54.8651C22.7055 54.9742 21.4079 54.0365 20.3931 53.0338C16.8978 49.5824 14.1968 45.2634 12.5549 40.7223C12.5207 40.6242 12.4834 40.5231 12.4492 40.4221H1.73682C1.73682 40.4221 2.1546 41.4808 2.65695 42.5946C5.31264 48.4837 8.70424 54.0425 12.4411 59.3532C16.0814 64.5268 20.0076 69.5333 24.0384 74.4287L33.3958 64.2916C33.3958 64.2916 42.6887 74.3987 42.6927 74.3967C44.2138 72.7595 45.5528 70.9753 46.9229 69.2211C53.5007 60.7912 60.4037 52.2303 64.3903 42.3124C65.1987 40.301 65.847 38.2296 66.2285 36.1021C66.4178 35.0543 66.5346 33.9916 66.5628 32.9269H40.639V32.9259Z" fill="#5B93C7"/>
<path d="M114.488 73.1908C113.549 73.1908 112.685 73.0417 111.893 72.7445C111.101 72.4463 110.412 72.029 109.833 71.4906C109.252 70.9523 108.8 70.3168 108.476 69.5863C108.154 68.8558 107.992 68.0602 107.992 67.1956C107.992 66.331 108.153 65.5345 108.476 64.805C108.8 64.0745 109.255 63.442 109.842 62.9037C110.426 62.3623 111.118 61.944 111.91 61.6468C112.703 61.3516 113.566 61.2025 114.506 61.2025C115.445 61.2025 116.304 61.3426 117.084 61.6238C117.864 61.904 118.529 62.3313 119.083 62.9037L118.274 63.6942C117.755 63.1989 117.187 62.8466 116.565 62.6315C115.943 62.4193 115.275 62.3133 114.557 62.3133C113.797 62.3133 113.093 62.4333 112.454 62.6745C111.815 62.9147 111.259 63.2589 110.783 63.7022C110.308 64.1465 109.936 64.6619 109.673 65.2513C109.409 65.8407 109.276 66.4882 109.276 67.1956C109.276 67.8911 109.409 68.5386 109.673 69.132C109.935 69.7274 110.308 70.2488 110.783 70.6901C111.258 71.1344 111.814 71.4776 112.454 71.7178C113.093 71.958 113.791 72.081 114.54 72.081C115.246 72.081 115.911 71.978 116.539 71.7778C117.167 71.5747 117.743 71.2334 118.274 70.7501L119.012 71.6918C118.427 72.1871 117.738 72.5594 116.952 72.8115C116.165 73.0647 115.344 73.1908 114.488 73.1908ZM117.761 71.5387V67.1946H119.012V71.6908L117.761 71.5387Z" fill="#5B93C7"/>
<path d="M122.427 73.0877V64.2475H123.623V66.6562L123.499 66.2349C123.759 65.5615 124.194 65.0461 124.804 64.6939C125.412 64.3386 126.169 64.1645 127.074 64.1645V65.3243C127.028 65.3243 126.98 65.3213 126.933 65.3153C126.887 65.3093 126.839 65.3093 126.792 65.3093C125.819 65.3093 125.055 65.5925 124.505 66.1569C123.952 66.7243 123.679 67.5308 123.679 68.5735V73.0867H122.427V73.0877Z" fill="#5B93C7"/>
<path d="M133.023 73.1737C132.133 73.1737 131.332 72.9786 130.62 72.5923C129.911 72.2061 129.35 71.6707 128.941 70.9912C128.529 70.3128 128.325 69.5362 128.325 68.6606C128.325 67.773 128.529 66.9945 128.941 66.318C129.35 65.6445 129.908 65.1182 130.612 64.7369C131.315 64.3536 132.122 64.1645 133.023 64.1645C133.939 64.1645 134.752 64.3536 135.46 64.7369C136.172 65.1182 136.728 65.6445 137.134 66.318C137.538 66.9935 137.742 67.773 137.742 68.6606C137.742 69.5372 137.538 70.3128 137.134 70.9912C136.729 71.6697 136.169 72.2051 135.452 72.5923C134.737 72.9786 133.928 73.1737 133.023 73.1737ZM133.023 72.111C133.691 72.111 134.284 71.9679 134.801 71.6817C135.319 71.3955 135.726 70.9912 136.025 70.4709C136.325 69.9495 136.474 69.3451 136.474 68.6616C136.474 67.9661 136.324 67.3587 136.025 66.8434C135.725 66.325 135.319 65.9237 134.801 65.6375C134.285 65.3513 133.698 65.2082 133.041 65.2082C132.385 65.2082 131.797 65.3513 131.281 65.6375C130.766 65.9237 130.354 66.325 130.051 66.8434C129.746 67.3587 129.593 67.9661 129.593 68.6616C129.593 69.3461 129.746 69.9505 130.051 70.4709C130.353 70.9922 130.766 71.3955 131.281 71.6817C131.796 71.9679 132.378 72.111 133.023 72.111Z" fill="#5B93C7"/>
<path d="M144.114 73.1737C143.328 73.1737 142.639 73.0337 142.054 72.7525C141.466 72.4723 141.011 72.051 140.689 71.4896C140.367 70.9282 140.205 70.2267 140.205 69.3851V64.2476H141.455V69.25C141.455 70.1917 141.7 70.9022 142.187 71.3805C142.675 71.8558 143.357 72.096 144.236 72.096C144.884 72.096 145.443 71.9669 145.918 71.7147C146.393 71.4626 146.757 71.0963 147.01 70.612C147.261 70.1276 147.388 69.5492 147.388 68.8768V64.2466H148.638V73.0867H147.442V70.664L147.636 71.1023C147.342 71.7528 146.887 72.2591 146.27 72.6254C145.652 72.9906 144.936 73.1737 144.114 73.1737Z" fill="#5B93C7"/>
<path d="M156.893 73.1738C156.095 73.1738 155.372 72.9966 154.727 72.6444C154.082 72.2891 153.569 71.7798 153.189 71.1093C152.805 70.4419 152.616 69.6263 152.616 68.6606C152.616 67.6949 152.803 66.8764 153.181 66.2099C153.555 65.5425 154.066 65.0331 154.711 64.6869C155.356 64.3376 156.085 64.1655 156.894 64.1655C157.773 64.1655 158.562 64.3516 159.262 64.7299C159.96 65.1052 160.509 65.6315 160.907 66.311C161.308 66.9925 161.506 67.774 161.506 68.6616C161.506 69.5582 161.308 70.3458 160.907 71.0183C160.509 71.6917 159.96 72.2211 159.262 72.6014C158.561 72.9816 157.772 73.1738 156.893 73.1738ZM152.123 76.355V64.2476H153.319V66.9074L153.198 68.6766L153.374 70.4609V76.354H152.123V76.355ZM156.805 72.111C157.461 72.111 158.049 71.9679 158.564 71.6817C159.083 71.3955 159.492 70.9912 159.798 70.4709C160.103 69.9495 160.256 69.3451 160.256 68.6616C160.256 67.9771 160.103 67.3757 159.798 66.8604C159.493 66.342 159.083 65.9387 158.564 65.6465C158.049 65.3543 157.461 65.2082 156.805 65.2082C156.147 65.2082 155.557 65.3543 155.036 65.6465C154.515 65.9387 154.103 66.342 153.803 66.8604C153.506 67.3757 153.356 67.9771 153.356 68.6616C153.356 69.3461 153.506 69.9505 153.803 70.4709C154.103 70.9922 154.515 71.3955 155.036 71.6817C155.557 71.9679 156.147 72.111 156.805 72.111Z" fill="#5B93C7"/>
<path d="M70.8355 37.5761C72.1432 35.4586 74.2653 33.6684 76.8636 33.2741C78.2126 33.0469 79.5888 33.094 80.9448 33.2501C83.8703 33.8115 86.3035 35.976 87.0797 38.7479C87.0988 38.952 87.1361 39.3673 87.1562 39.5715C87.0324 39.5825 86.7817 39.5975 86.6569 39.6065C86.221 37.5741 84.9525 35.6557 83.0247 34.652C81.1039 33.5573 78.717 33.4432 76.5848 33.9235C73.8918 34.548 71.7838 36.6414 70.8143 39.0771C70.6835 39.4784 70.5637 39.8837 70.4046 40.2779C69.8076 43.3771 69.9878 46.8575 71.9831 49.4843C74.7979 53.5151 81.6757 53.8884 84.9837 50.2319C85.8948 49.3633 86.4314 48.2255 86.7908 47.0567C86.8673 46.17 86.8995 45.2774 86.8955 44.3888C84.3234 44.3648 81.7462 44.3998 79.173 44.3778C79.1771 44.2387 79.1861 43.9635 79.1922 43.8314C81.9455 43.8124 84.7039 43.8424 87.4613 43.8144C87.4874 46.7855 87.4482 49.7585 87.4874 52.7296C87.3344 52.7356 87.0254 52.7446 86.8723 52.7466C86.8985 51.2486 86.8915 49.7495 86.8532 48.2545C86.1254 50.458 84.1603 52.1532 81.9042 52.8727C79.1227 53.6332 75.867 53.4491 73.463 51.7889C72.2338 51.0174 71.4113 49.8166 70.6684 48.6297C69.0888 45.1483 69.0717 40.9985 70.8355 37.5761Z" fill="#5B93C7"/>
<path d="M90.3565 33.5883L90.8729 33.5923C90.8729 33.5923 90.8789 42.1833 90.9665 46.5933C91.1085 48.3005 91.5534 50.1968 93.0403 51.3046C94.5574 52.6485 96.7491 52.8457 98.7172 52.6936C100.552 52.5595 102.4 51.6859 103.367 50.1388C104.261 48.6438 104.465 46.8725 104.461 45.1784C104.454 41.3257 104.461 37.472 104.454 33.6213C104.6 33.6213 104.89 33.6253 105.036 33.6303C105.03 37.7852 105.047 41.9431 105.025 46.1C105.012 48.3386 104.232 50.8023 102.217 52.1182C100.306 53.3901 97.8444 53.4361 95.6205 53.1429C93.9897 52.8307 92.4242 51.9771 91.5434 50.5901C90.4622 48.8849 90.2769 46.8235 90.3182 44.8731C90.3534 41.1736 90.3565 33.5883 90.3565 33.5883Z" fill="#5B93C7"/>
<path d="M108.094 33.5993H108.558C108.599 39.8216 108.569 46.0409 108.569 52.2623C112.207 52.2813 115.846 52.2623 119.485 52.2713C119.808 52.3143 120.354 52.1692 120.365 52.6395C119.894 52.9237 119.337 52.8737 118.809 52.8867C115.246 52.8757 111.68 52.8737 108.116 52.8827C108.022 46.4572 108.069 40.0278 108.094 33.5993Z" fill="#5B93C7"/>
<path d="M121.513 33.5933C126.159 33.5873 130.837 33.5893 135.481 33.5893C137.088 39.2132 138.446 44.8301 140.127 50.434C140.881 47.2118 142.011 44.0886 142.837 40.8834C143.445 38.4997 144.887 33.5933 144.887 33.5933H147.496C147.496 33.5933 149.24 39.6986 150.032 42.7016C150.671 45.2934 151.626 47.8032 152.221 50.408C153.91 44.8661 156.891 33.5933 156.891 33.5933H158.791C158.791 33.5933 155.615 44.5309 154.08 50.0527C153.816 51.0024 153.557 51.9531 153.234 52.8877C152.602 52.8817 151.97 52.8817 151.34 52.8917C150.612 51.0955 150.189 49.2072 149.619 47.3679C148.451 43.4301 147.321 39.4814 146.127 35.5527C145.364 38.1205 144.699 40.7123 143.888 43.268C142.876 46.4662 142.171 49.7605 140.943 52.8927C140.303 52.8777 139.663 52.8757 139.024 52.8817C137.886 49.013 136.783 45.1343 135.655 41.2616C135.029 38.867 134.254 36.5133 133.583 34.1277C129.756 34.1167 125.931 34.1317 122.104 34.1237C122.089 36.9196 122.091 39.7146 122.106 42.5085C125.708 42.5455 129.311 42.4605 132.915 42.5535C132.797 42.9108 132.556 43.0759 132.191 43.0459C128.827 43.0609 125.461 43.0369 122.097 43.0529C122.097 46.2861 122.091 49.5214 122.099 52.7546H121.512C121.534 46.3442 121.445 40.0018 121.513 33.5933Z" fill="#5B93C7"/>
<path d="M167.762 35.4456C166.347 38.6788 165.065 41.9661 163.746 45.2364C166.335 45.2664 168.92 45.2514 171.51 45.2454C170.339 41.9521 168.89 38.7549 167.762 35.4456ZM166.702 33.5933H168.887C168.887 33.5933 174.152 46.3972 176.679 52.8827C176.014 52.8807 175.351 52.8757 174.692 52.8807C173.827 50.8843 173.013 48.8689 172.242 46.8405C169.21 46.8295 166.175 46.8445 163.144 46.8315C162.362 48.7728 161.474 50.6782 160.851 52.6735C160.121 52.9037 159.358 52.9337 158.631 52.6695C160.463 48.7208 162.015 44.656 163.752 40.6612C164.675 38.3366 166.702 33.5933 166.702 33.5933Z" fill="#5B93C7"/>
<path d="M176.261 33.5933C176.978 33.5803 177.728 33.6023 178.449 33.5933C180.741 36.7965 182.838 40.0018 185.007 43.28C187.311 40.2029 191.617 33.5933 191.617 33.5933H193.942C193.942 33.5933 188.644 41.0545 186.119 44.8061C185.852 47.4669 186.099 50.1938 185.998 52.8807C185.374 52.8737 184.755 52.8767 184.138 52.8867C184.027 50.2299 184.215 47.558 184.03 44.9112C181.5 41.0785 178.765 37.446 176.261 33.5933Z" fill="#5B93C7"/>
<path fill-rule="evenodd" clip-rule="evenodd" d="M197.715 33.5883C198.975 33.5883 200 34.589 200 35.8229C200 37.0567 198.975 38.0574 197.715 38.0574C196.455 38.0574 195.43 37.0557 195.43 35.8229C195.43 34.59 196.456 33.5883 197.715 33.5883ZM197.715 33.8665C198.82 33.8665 199.716 34.7421 199.716 35.8239C199.716 36.9056 198.82 37.7832 197.715 37.7832C196.61 37.7832 195.714 36.9056 195.714 35.8239C195.714 34.7421 196.61 33.8665 197.715 33.8665Z" fill="#5B93C7"/>
<path d="M196.946 36.7705V34.8782H197.823C197.999 34.8782 198.135 34.8932 198.226 34.9282C198.318 34.9633 198.389 35.0213 198.447 35.1084C198.501 35.1954 198.527 35.2905 198.527 35.3946C198.527 35.5287 198.482 35.6417 198.392 35.7348C198.301 35.8259 198.161 35.8839 197.972 35.9099C198.039 35.9399 198.093 35.973 198.129 36.003C198.205 36.07 198.277 36.1551 198.347 36.2542L198.691 36.7695H198.362L198.098 36.3752C198.022 36.2622 197.959 36.1761 197.911 36.1151C197.861 36.054 197.818 36.013 197.778 35.987C197.739 35.963 197.7 35.9479 197.659 35.9369C197.628 35.9309 197.58 35.9279 197.513 35.9279H197.21V36.7685H196.946V36.7705ZM197.208 35.7128H197.77C197.89 35.7128 197.984 35.7018 198.051 35.6778C198.119 35.6537 198.169 35.6147 198.204 35.5627C198.239 35.5106 198.257 35.4546 198.257 35.3936C198.257 35.3045 198.224 35.2314 198.156 35.1724C198.088 35.1144 197.98 35.0853 197.833 35.0853H197.207V35.7128H197.208Z" fill="#5B93C7"/>
</svg>
