<?xml version="1.0" encoding="utf-8"?>
<!-- Generator: Adobe Illustrator 28.0.0, SVG Export Plug-In . SVG Version: 6.00 Build 0)  -->
<svg version="1.1" id="Layer_1" xmlns="http://www.w3.org/2000/svg" xmlns:xlink="http://www.w3.org/1999/xlink" x="0px" y="0px"
	 viewBox="0 0 1920 600" style="enable-background:new 0 0 1920 600;" xml:space="preserve">
<style type="text/css">
	.st0{fill:url(#SVGID_1_);}
	.st1{fill:#FFFFFF;filter:url(#Adobe_OpacityMaskFilter);}
	.st2{mask:url(#path-2-outside-1_946_1128_00000111184555053958772450000006907061399268353198_);fill:#FFFFFF;fill-opacity:0.04;}
	.st3{fill:#FFFFFF;filter:url(#Adobe_OpacityMaskFilter_00000047043523820558015530000001410167324754343359_);}
	.st4{mask:url(#path-4-outside-2_946_1128_00000173877656790889125320000004971189404670749079_);fill:#FFFFFF;fill-opacity:0.04;}
	.st5{fill:#FFFFFF;filter:url(#Adobe_OpacityMaskFilter_00000178162717419946918840000012513418767107100823_);}
	.st6{mask:url(#path-6-outside-3_946_1128_00000125598224301074160780000002477761211253533594_);fill:#FFFFFF;fill-opacity:0.04;}
</style>
<linearGradient id="SVGID_1_" gradientUnits="userSpaceOnUse" x1="960" y1="942" x2="960" y2="342" gradientTransform="matrix(1 0 0 -1 0 942)">
	<stop  offset="0" style="stop-color:#5B93C7"/>
	<stop  offset="1" style="stop-color:#9DBEDD"/>
</linearGradient>
<rect class="st0" width="1920" height="600"/>
<defs>
	<filter id="Adobe_OpacityMaskFilter" filterUnits="userSpaceOnUse" x="-43.85" y="133.94" width="724.68" height="615.88">
		<feColorMatrix  type="matrix" values="1 0 0 0 0  0 1 0 0 0  0 0 1 0 0  0 0 0 1 0"/>
	</filter>
</defs>
<mask maskUnits="userSpaceOnUse" x="-43.85" y="133.94" width="724.68" height="615.88" id="path-2-outside-1_946_1128_00000111184555053958772450000006907061399268353198_">
	<rect x="-88.83" y="130.42" class="st1" width="772.48" height="662.45"/>
	<path d="M135.05,719.06c-15.84,11.88-32.39,18.65-49.63,20.32c-17.24,1.68-33.94-1.43-50.1-9.32
		c-16.28-8.04-30.83-20.63-43.67-37.75c-12.95-17.28-20.99-35.01-24.1-53.17c-3.07-18.44-1.13-36.02,5.84-52.74
		c7.01-17,19.15-31.97,36.43-44.93c19.68-14.75,39.55-22.27,59.59-22.54c20.04-0.27,38.22,6.47,54.53,20.24l-34.33,25.73
		c-8.44-5.92-17.64-8.53-27.6-7.81c-10.08,0.56-20.4,4.79-30.96,12.71c-16.8,12.6-25.75,27.67-26.83,45.23
		c-1.21,17.4,5.15,35.38,19.06,53.95c13.91,18.56,29.19,29.61,45.83,33.13c16.68,3.24,32.78-0.95,48.3-12.59
		c15.2-11.4,23.59-24.05,25.15-37.97c1.6-14.2-1.83-28.62-10.31-43.26l-42.49,31.85L72.51,617.1l73.46-55.06l69.27,92.42
		l-28.33,21.23l-18.95-20.28c0.56,12.08-1.63,23.34-6.55,33.78C156.48,699.62,147.7,709.58,135.05,719.06z M279.19,606.52
		L108.83,471.77l32.89-24.65l130.47,111.04L207.5,397.82l33.85-25.37l134.79,107.8l-69.97-156.38l33.13-24.83l80.34,202.22
		l-36.49,27.35l-126.75-99.58l59.05,150.32L279.19,606.52z M487.5,450.39L361.55,282.35L398.04,255l133.42,66.46l-27.08-146.17
		l36.49-27.35l125.95,168.04l-30.73,23.03l-86.91-115.95l22.1,127.03l-24.24,18.17l-115.72-56.85l86.91,115.95L487.5,450.39z"/>
</mask>
<path class="st2" d="M85.43,739.38l0.97,9.95L85.43,739.38z M35.33,730.07l-4.43,8.97l0.02,0.01l0.02,0.01L35.33,730.07z
	 M-32.44,639.15l-9.86,1.64l0,0.02l0,0.02L-32.44,639.15z M-26.61,586.41l9.23,3.85l0.01-0.02l0.01-0.02L-26.61,586.41z
	 M69.41,518.94l-0.14-10L69.41,518.94z M123.95,539.17l6,8l10.06-7.54l-9.61-8.11L123.95,539.17z M89.62,564.91l-5.74,8.18
	l5.94,4.17l5.8-4.35L89.62,564.91z M62.02,557.1l0.55,9.98l0.08,0l0.08-0.01L62.02,557.1z M4.23,615.04l9.98,0.69l0-0.04l0-0.04
	L4.23,615.04z M69.12,702.12l-2.07,9.78l0.08,0.02l0.08,0.02L69.12,702.12z M142.57,651.56l-9.94-1.12v0.01L142.57,651.56z
	 M132.27,608.3l8.65-5.01l-5.64-9.75l-9.01,6.75L132.27,608.3z M89.78,640.15l-8,6l6,8l8-6L89.78,640.15z M72.51,617.1l-6-8l-8,6
	l6,8L72.51,617.1z M145.96,562.04l8-6l-6-8l-8,6L145.96,562.04z M215.23,654.46l6,8l8-6l-6-8L215.23,654.46z M186.91,675.69
	l-7.31,6.83l6.12,6.56l7.18-5.38L186.91,675.69z M167.95,655.41l7.31-6.83l-18.55-19.85l1.25,27.14L167.95,655.41z M161.4,689.19
	l9.04,4.27L161.4,689.19z M129.06,711.06c-14.59,10.94-29.43,16.9-44.6,18.37l1.93,19.91c19.31-1.88,37.56-9.46,54.66-22.28
	L129.06,711.06z M84.46,729.43c-15.33,1.49-30.18-1.24-44.74-8.35l-8.77,17.97c17.75,8.66,36.3,12.14,55.45,10.28L84.46,729.43z
	 M39.76,721.1c-14.64-7.24-28.04-18.69-40.1-34.79l-16,11.99c13.61,18.16,29.32,31.87,47.24,40.72L39.76,721.1z M-0.34,686.32
	c-12.17-16.23-19.45-32.51-22.25-48.86l-19.71,3.38c3.43,19.97,12.22,39.14,25.96,57.47L-0.34,686.32z M-22.58,637.5
	c-2.78-16.65-1.02-32.32,5.2-47.25l-18.46-7.69c-7.71,18.51-9.84,38-6.47,58.23L-22.58,637.5z M-17.36,590.22
	c6.21-15.06,17.09-28.67,33.19-40.74l-12-16c-18.47,13.84-31.88,30.19-39.68,49.12L-17.36,590.22z M15.83,549.48
	c18.38-13.78,36.24-20.31,53.73-20.54l-0.27-20c-22.6,0.31-44.46,8.81-65.45,24.54L15.83,549.48z M69.55,528.94
	c17.47-0.24,33.34,5.56,47.95,17.88l12.9-15.29c-18.03-15.21-38.51-22.9-61.12-22.59L69.55,528.94z M117.95,531.17L83.62,556.9
	l12,16l34.33-25.73L117.95,531.17z M95.37,556.72c-10.26-7.2-21.72-10.48-34.06-9.6l1.44,19.95c7.58-0.55,14.51,1.37,21.13,6.02
	L95.37,556.72z M61.47,547.11c-12.57,0.7-24.75,5.95-36.41,14.69l12,16c9.46-7.09,17.93-10.31,25.52-10.73L61.47,547.11z
	 M25.06,561.81C6.41,575.78-4.45,593.36-5.75,614.42l19.96,1.23c0.87-14.06,7.89-26.64,22.85-37.85L25.06,561.81z M-5.75,614.35
	c-1.42,20.49,6.17,40.79,21.04,60.63l16-11.99c-12.96-17.29-18.08-32.95-17.09-47.26L-5.75,614.35z M15.29,674.98
	c14.84,19.79,32.01,32.73,51.76,36.92l4.14-19.57c-13.53-2.86-26.91-12.01-39.9-29.35L15.29,674.98z M67.21,711.93
	c19.86,3.86,38.78-1.34,56.21-14.4l-11.99-16c-13.62,10.21-26.9,13.4-40.4,10.77L67.21,711.93z M123.42,697.53
	c16.6-12.44,27.12-27.33,29.09-44.86l-19.88-2.23c-1.16,10.31-7.4,20.74-21.21,31.09L123.42,697.53z M152.51,652.68
	c1.89-16.7-2.24-33.25-11.59-49.4l-17.31,10.02c7.61,13.14,10.35,25.43,9.03,37.13L152.51,652.68z M126.27,600.3l-42.49,31.85l12,16
	l42.49-31.85L126.27,600.3z M97.78,634.15L80.51,611.1l-16,12l17.27,23.04L97.78,634.15z M78.5,625.1l73.46-55.06l-12-16
	L66.51,609.1L78.5,625.1z M137.96,568.04l69.27,92.42l16-11.99l-69.27-92.42L137.96,568.04z M209.24,646.46l-28.33,21.23l12,16
	l28.33-21.23L209.24,646.46z M194.21,668.87l-18.95-20.29l-14.61,13.66l18.95,20.28L194.21,668.87z M157.96,655.87
	c0.49,10.53-1.41,20.16-5.61,29.05l18.09,8.53c5.65-11.98,8.12-24.88,7.49-38.5L157.96,655.87z M152.36,684.92
	c-4.02,8.52-11.51,17.29-23.3,26.14l12,16c13.49-10.11,23.57-21.25,29.4-33.61L152.36,684.92z M279.19,606.52l-6.2,7.84l6.04,4.78
	l6.16-4.62L279.19,606.52z M108.83,471.77l-6-8l-10.39,7.79l10.18,8.06L108.83,471.77z M141.72,447.12l6.48-7.62l-6.09-5.18
	l-6.39,4.79L141.72,447.12z M272.19,558.16l-6.48,7.61l15.76-11.36L272.19,558.16z M207.5,397.82l-6-8l-6.15,4.61l2.88,7.13
	L207.5,397.82z M241.34,372.45l6.25-7.81l-6.05-4.84l-6.2,4.64L241.34,372.45z M376.13,480.25l-6.25,7.81l15.37-11.89L376.13,480.25
	z M306.16,323.87l-6-8l-6.39,4.79l3.26,7.29L306.16,323.87z M339.29,299.04l9.29-3.69l-4.83-12.15l-10.46,7.84L339.29,299.04z
	 M419.62,501.27l6,8l6.12-4.59l-2.82-7.11L419.62,501.27z M383.14,528.61l-6.18,7.86l6.03,4.74l6.14-4.6L383.14,528.61z
	 M256.39,429.04l6.18-7.86l-28.95-22.74l13.46,34.26L256.39,429.04z M315.44,579.35l6,8l6.1-4.57l-2.79-7.09L315.44,579.35z
	 M285.4,598.68L115.04,463.93l-12.41,15.69l170.36,134.75L285.4,598.68z M114.83,479.77l32.89-24.65l-11.99-16l-32.89,24.65
	L114.83,479.77z M135.24,454.74l130.47,111.04l12.96-15.23L148.2,439.51L135.24,454.74z M281.46,554.42l-64.69-160.34l-18.55,7.48
	l64.69,160.34L281.46,554.42z M213.49,405.82l33.85-25.37l-12-16l-33.85,25.37L213.49,405.82z M235.1,380.26l134.79,107.8
	l12.49-15.62l-134.79-107.8L235.1,380.26z M385.26,476.17l-69.97-156.38l-18.26,8.17L367,484.34L385.26,476.17z M312.16,331.87
	l33.13-24.83l-11.99-16l-33.13,24.83L312.16,331.87z M329.99,302.73l80.34,202.22l18.59-7.38l-80.34-202.22L329.99,302.73z
	 M413.63,493.26l-36.49,27.35l12,16l36.49-27.35L413.63,493.26z M389.32,520.75l-126.75-99.58l-12.36,15.73l126.75,99.58
	L389.32,520.75z M247.08,432.69l59.06,150.32l18.61-7.31l-59.05-150.32L247.08,432.69z M309.44,571.35l-36.25,27.17l11.99,16
	l36.25-27.17L309.44,571.35z M487.5,450.39l-8,6l6,8l8-6L487.5,450.39z M361.55,282.35l-6-8l-8,6l6,8L361.55,282.35z M398.04,255
	l4.46-8.95l-5.52-2.75l-4.93,3.7L398.04,255z M531.46,321.46l-4.46,8.95l17.94,8.94l-3.65-19.71L531.46,321.46z M504.39,175.29l-6-8
	l-4.96,3.72l1.13,6.1L504.39,175.29z M540.88,147.94l8-6l-6-8l-8,6L540.88,147.94z M666.82,315.98l6,8l8-6l-6-8L666.82,315.98z
	 M636.1,339.01l-8,6l6,8l8-6L636.1,339.01z M549.19,223.07l8-6l-17.85,7.71L549.19,223.07z M571.29,350.09l6,8l4.91-3.68l-1.05-6.04
	L571.29,350.09z M547.05,368.27l-4.41,8.98l5.5,2.7l4.91-3.68L547.05,368.27z M431.33,311.41l4.41-8.98l-12.41,14.97L431.33,311.41z
	 M518.23,427.36l6,8l8-6l-6-8L518.23,427.36z M495.51,444.39L369.56,276.35l-16,12L479.5,456.39L495.51,444.39z M367.55,290.35
	L404.04,263l-11.99-16l-36.49,27.35L367.55,290.35z M393.58,263.95L527,330.41l8.92-17.9L402.5,246.05L393.58,263.95z
	 M541.29,319.64l-27.08-146.17l-19.67,3.64l27.08,146.17L541.29,319.64z M510.38,183.29l36.49-27.35l-11.99-16l-36.49,27.35
	L510.38,183.29z M532.87,153.94l125.95,168.04l16-11.99L548.88,141.95L532.87,153.94z M660.83,307.98l-30.73,23.03l11.99,16
	l30.73-23.03L660.83,307.98z M644.1,333.02l-86.91-115.95l-16,11.99l86.91,115.95L644.1,333.02z M539.34,224.78l22.1,127.03
	l19.7-3.43l-22.1-127.03L539.34,224.78z M565.3,342.09l-24.25,18.17l11.99,16l24.25-18.17L565.3,342.09z M551.46,359.29
	l-115.72-56.85l-8.82,17.95l115.72,56.86L551.46,359.29z M423.32,317.41l86.9,115.95l16-12l-86.9-115.95L423.32,317.41z
	 M512.23,419.36l-30.73,23.03l12,16l30.73-23.03L512.23,419.36z"/>
<defs>
	
		<filter id="Adobe_OpacityMaskFilter_00000177483275143186364400000007859179142378529163_" filterUnits="userSpaceOnUse" x="805.15" y="-109.06" width="724.67" height="615.88">
		<feColorMatrix  type="matrix" values="1 0 0 0 0  0 1 0 0 0  0 0 1 0 0  0 0 0 1 0"/>
	</filter>
</defs>
<mask maskUnits="userSpaceOnUse" x="805.15" y="-109.06" width="724.67" height="615.88" id="path-4-outside-2_946_1128_00000173877656790889125320000004971189404670749079_">
	
		<rect x="760.17" y="-112.58" style="fill:#FFFFFF;filter:url(#Adobe_OpacityMaskFilter_00000177483275143186364400000007859179142378529163_);" width="772.48" height="662.45"/>
	<path d="M984.05,476.06c-15.84,11.88-32.39,18.65-49.63,20.33c-17.24,1.67-33.94-1.43-50.1-9.32
		c-16.28-8.05-30.83-20.63-43.67-37.75c-12.96-17.28-20.99-35.01-24.1-53.17c-3.08-18.44-1.13-36.02,5.84-52.74
		c7.01-17,19.15-31.98,36.43-44.93c19.68-14.76,39.55-22.27,59.59-22.54c20.04-0.27,38.22,6.47,54.53,20.24l-34.33,25.73
		c-8.44-5.92-17.64-8.52-27.6-7.81c-10.08,0.56-20.4,4.79-30.96,12.71c-16.8,12.6-25.75,27.67-26.83,45.23
		c-1.21,17.4,5.15,35.38,19.06,53.95c13.91,18.56,29.19,29.61,45.83,33.13c16.68,3.25,32.78-0.95,48.3-12.58
		c15.2-11.4,23.59-24.05,25.15-37.97c1.6-14.2-1.83-28.62-10.31-43.26l-42.49,31.85l-17.27-23.05l73.46-55.06l69.27,92.42
		l-28.32,21.23l-18.96-20.29c0.56,12.08-1.62,23.34-6.55,33.78C1005.48,456.62,996.7,466.58,984.05,476.06z M1128.19,363.52
		L957.83,228.77l32.89-24.65l130.47,111.04l-64.69-160.34l33.84-25.37l134.79,107.8l-69.97-156.38l33.13-24.83l80.34,202.22
		l-36.49,27.35l-126.75-99.58l59.05,150.32L1128.19,363.52z M1336.5,207.39L1210.55,39.35L1247.04,12l133.42,66.46l-27.07-146.17
		l36.48-27.35l125.95,168.04l-30.72,23.03l-86.91-115.95l22.1,127.03l-24.24,18.17l-115.72-56.85l86.9,115.95L1336.5,207.39z"/>
</mask>
<path class="st4" d="M934.43,496.38l0.97,9.95L934.43,496.38z M884.33,487.07l-4.43,8.96l0.02,0.01l0.02,0.01L884.33,487.07z
	 M816.56,396.15l-9.86,1.64l0,0.02l0,0.02L816.56,396.15z M822.4,343.41l9.23,3.85l0.01-0.02l0.01-0.02L822.4,343.41z
	 M918.41,275.94l-0.14-10L918.41,275.94z M972.95,296.18l6,8l10.06-7.54l-9.61-8.11L972.95,296.18z M938.62,321.9l-5.74,8.19
	l5.94,4.17l5.8-4.35L938.62,321.9z M911.02,314.1l0.55,9.99l0.08-0.01l0.08-0.01L911.02,314.1z M853.23,372.04l9.98,0.69l0-0.04
	l0-0.04L853.23,372.04z M918.12,459.12l-2.07,9.78l0.08,0.02l0.08,0.02L918.12,459.12z M991.58,408.56l-9.94-1.12v0.01
	L991.58,408.56z M981.27,365.3l8.65-5.01l-5.64-9.75l-9.01,6.75L981.27,365.3z M938.78,397.14l-8,6l6,8l8-6L938.78,397.14z
	 M921.51,374.1l-6-8l-8,6l6,8L921.51,374.1z M994.96,319.04l8-6l-5.99-8l-8,6L994.96,319.04z M1064.23,411.46l6,8l8-6l-5.99-8
	L1064.23,411.46z M1035.91,432.7l-7.31,6.83l6.13,6.55l7.18-5.38L1035.91,432.7z M1016.95,412.41l7.31-6.83l-18.55-19.85l1.25,27.14
	L1016.95,412.41z M1010.4,446.19l9.05,4.27L1010.4,446.19z M978.06,468.06c-14.59,10.94-29.43,16.9-44.6,18.37l1.93,19.91
	c19.31-1.88,37.56-9.46,54.66-22.28L978.06,468.06z M933.46,486.43c-15.33,1.49-30.18-1.24-44.74-8.35l-8.77,17.97
	c17.75,8.66,36.3,12.14,55.45,10.28L933.46,486.43z M888.76,478.1c-14.64-7.24-28.04-18.69-40.1-34.79l-16,11.99
	c13.61,18.16,29.33,31.87,47.24,40.72L888.76,478.1z M848.66,443.32c-12.17-16.23-19.45-32.51-22.25-48.86l-19.71,3.38
	c3.42,19.97,12.22,39.14,25.96,57.48L848.66,443.32z M826.42,394.5c-2.78-16.65-1.02-32.32,5.2-47.25l-18.46-7.69
	c-7.71,18.51-9.84,38-6.47,58.23L826.42,394.5z M831.64,347.22c6.21-15.06,17.09-28.67,33.19-40.74l-11.99-16
	c-18.47,13.84-31.88,30.19-39.68,49.12L831.64,347.22z M864.83,306.48c18.38-13.78,36.24-20.31,53.73-20.55l-0.27-20
	c-22.6,0.31-44.46,8.81-65.45,24.54L864.83,306.48z M918.55,285.94c17.47-0.24,33.34,5.56,47.95,17.88l12.9-15.29
	c-18.03-15.21-38.51-22.9-61.12-22.59L918.55,285.94z M966.95,288.17l-34.33,25.73l11.99,16l34.33-25.73L966.95,288.17z
	 M944.37,313.72c-10.26-7.2-21.73-10.49-34.06-9.6l1.44,19.95c7.58-0.55,14.51,1.37,21.13,6.02L944.37,313.72z M910.47,304.11
	c-12.58,0.7-24.75,5.95-36.41,14.69l11.99,16c9.46-7.09,17.93-10.31,25.52-10.73L910.47,304.11z M874.06,318.81
	c-18.65,13.98-29.52,31.56-30.82,52.62l19.96,1.23c0.87-14.06,7.89-26.64,22.85-37.85L874.06,318.81z M843.25,371.35
	c-1.42,20.49,6.16,40.79,21.04,60.63l16-11.99c-12.96-17.29-18.08-32.95-17.09-47.26L843.25,371.35z M864.29,431.98
	c14.84,19.79,32.01,32.73,51.76,36.92l4.15-19.57c-13.53-2.86-26.91-12.01-39.9-29.35L864.29,431.98z M916.21,468.93
	c19.86,3.86,38.78-1.33,56.21-14.4l-11.99-16c-13.62,10.21-26.9,13.4-40.4,10.77L916.21,468.93z M972.42,454.54
	c16.59-12.44,27.12-27.33,29.09-44.86l-19.87-2.23c-1.16,10.31-7.4,20.73-21.21,31.09L972.42,454.54z M1001.51,409.68
	c1.89-16.7-2.24-33.25-11.59-49.39l-17.31,10.02c7.61,13.14,10.35,25.43,9.03,37.13L1001.51,409.68z M975.27,357.3l-42.49,31.85
	l11.99,16l42.49-31.85L975.27,357.3z M946.78,391.15l-17.27-23.05l-16,11.99l17.27,23.05L946.78,391.15z M927.5,382.1l73.46-55.06
	l-12-16l-73.46,55.06L927.5,382.1z M986.96,325.04l69.27,92.42l16.01-12l-69.28-92.42L986.96,325.04z M1058.24,403.46l-28.33,21.23
	l12,16l28.32-21.23L1058.24,403.46z M1043.21,425.87l-18.95-20.29l-14.61,13.65l18.95,20.29L1043.21,425.87z M1006.96,412.87
	c0.49,10.53-1.41,20.16-5.6,29.05l18.09,8.53c5.65-11.99,8.12-24.88,7.49-38.5L1006.96,412.87z M1001.36,441.92
	c-4.02,8.52-11.51,17.3-23.3,26.14l12,16c13.49-10.11,23.57-21.25,29.4-33.61L1001.36,441.92z M1128.19,363.52l-6.2,7.84l6.04,4.78
	l6.16-4.62L1128.19,363.52z M957.83,228.77l-6-8l-10.39,7.79l10.18,8.06L957.83,228.77z M990.72,204.12l6.48-7.61l-6.09-5.18
	l-6.39,4.79L990.72,204.12z M1121.19,315.16l-6.48,7.62l15.75-11.36L1121.19,315.16z M1056.5,154.82l-6-8l-6.15,4.61l2.87,7.13
	L1056.5,154.82z M1090.34,129.45l6.25-7.81l-6.05-4.84l-6.19,4.64L1090.34,129.45z M1225.13,237.25l-6.24,7.81l15.37-11.89
	L1225.13,237.25z M1155.16,80.87l-6-8l-6.39,4.79l3.26,7.29L1155.16,80.87z M1188.29,56.04l9.29-3.69l-4.83-12.15l-10.46,7.84
	L1188.29,56.04z M1268.63,258.27l5.99,8l6.12-4.59l-2.82-7.11L1268.63,258.27z M1232.14,285.61l-6.18,7.86l6.03,4.74l6.14-4.6
	L1232.14,285.61z M1105.39,186.04l6.17-7.86l-28.94-22.74l13.46,34.26L1105.39,186.04z M1164.44,336.35l6,8l6.09-4.57l-2.78-7.09
	L1164.44,336.35z M1134.4,355.68L964.04,220.93l-12.41,15.69l170.36,134.75L1134.4,355.68z M963.83,236.77l32.89-24.65l-11.99-16
	l-32.89,24.65L963.83,236.77z M984.24,211.74l130.47,111.04l12.96-15.23L997.2,196.51L984.24,211.74z M1130.46,311.42l-64.69-160.34
	l-18.55,7.48l64.69,160.34L1130.46,311.42z M1062.49,162.82l33.85-25.37l-11.99-16l-33.85,25.37L1062.49,162.82z M1084.1,137.26
	l134.79,107.8l12.49-15.62l-134.79-107.8L1084.1,137.26z M1234.26,233.17l-69.97-156.38l-18.26,8.17L1216,241.34L1234.26,233.17z
	 M1161.16,88.87l33.12-24.83l-11.99-16l-33.13,24.83L1161.16,88.87z M1178.99,59.73l80.34,202.22l18.59-7.39l-80.34-202.22
	L1178.99,59.73z M1262.63,250.26l-36.49,27.35l11.99,16l36.49-27.35L1262.63,250.26z M1238.31,277.75l-126.75-99.58l-12.35,15.73
	l126.75,99.58L1238.31,277.75z M1096.08,189.69l59.05,150.32l18.62-7.31l-59.06-150.32L1096.08,189.69z M1158.44,328.35
	l-36.24,27.17l11.99,16l36.25-27.17L1158.44,328.35z M1336.5,207.39l-8,6l6,8l8-6L1336.5,207.39z M1210.55,39.35l-5.99-8l-8,6
	l5.99,8L1210.55,39.35z M1247.04,12l4.46-8.95l-5.52-2.75l-4.93,3.7L1247.04,12z M1380.46,78.46l-4.46,8.95l17.95,8.94l-3.65-19.71
	L1380.46,78.46z M1353.39-67.71l-6-8l-4.97,3.72l1.13,6.1L1353.39-67.71z M1389.87-95.06l8.01-6l-6-8l-8,6L1389.87-95.06z
	 M1515.82,72.98l6,8l8-6l-5.99-8L1515.82,72.98z M1485.1,96.01l-8,6l5.99,8l8.01-6L1485.1,96.01z M1398.19-19.93l8-6l-17.85,7.71
	L1398.19-19.93z M1420.29,107.09l6,8l4.91-3.68l-1.05-6.04L1420.29,107.09z M1396.05,125.27l-4.41,8.97l5.5,2.7l4.91-3.68
	L1396.05,125.27z M1280.33,68.41l4.41-8.98l-12.42,14.97L1280.33,68.41z M1367.23,184.36l6,8l8-6l-6-8L1367.23,184.36z
	 M1344.51,201.39L1218.56,33.35l-16.01,12l125.95,168.04L1344.51,201.39z M1216.55,47.35L1253.04,20l-11.99-16l-36.49,27.35
	L1216.55,47.35z M1242.58,20.95L1376,87.41l8.92-17.9L1251.5,3.05L1242.58,20.95z M1390.3,76.64l-27.08-146.17l-19.67,3.64
	l27.08,146.17L1390.3,76.64z M1359.38-59.71l36.49-27.35l-11.99-16l-36.49,27.35L1359.38-59.71z M1381.87-89.06l125.95,168.04
	l16.01-12l-125.95-168.04L1381.87-89.06z M1509.83,64.98l-30.73,23.03l12,16l30.72-23.03L1509.83,64.98z M1493.1,90.01
	l-86.91-115.95l-16,12l86.91,115.95L1493.1,90.01z M1388.34-18.22l22.1,127.03l19.71-3.43l-22.11-127.03L1388.34-18.22z
	 M1414.3,99.09l-24.25,18.17l12,16l24.24-18.17L1414.3,99.09z M1400.46,116.29l-115.72-56.86l-8.82,17.95l115.72,56.85
	L1400.46,116.29z M1272.32,74.41l86.91,115.95l16-11.99l-86.9-115.95L1272.32,74.41z M1361.23,176.35l-30.72,23.03l11.99,16
	l30.73-23.03L1361.23,176.35z"/>
<defs>
	
		<filter id="Adobe_OpacityMaskFilter_00000008132094714475456930000016725946612715274411_" filterUnits="userSpaceOnUse" x="1196.15" y="171.95" width="724.67" height="615.88">
		<feColorMatrix  type="matrix" values="1 0 0 0 0  0 1 0 0 0  0 0 1 0 0  0 0 0 1 0"/>
	</filter>
</defs>
<mask maskUnits="userSpaceOnUse" x="1196.15" y="171.95" width="724.67" height="615.88" id="path-6-outside-3_946_1128_00000125598224301074160780000002477761211253533594_">
	
		<rect x="1151.17" y="168.42" style="fill:#FFFFFF;filter:url(#Adobe_OpacityMaskFilter_00000008132094714475456930000016725946612715274411_);" width="772.48" height="662.45"/>
	<path d="M1375.05,757.06c-15.84,11.88-32.38,18.65-49.62,20.32c-17.24,1.68-33.94-1.43-50.1-9.32
		c-16.28-8.04-30.83-20.63-43.67-37.75c-12.95-17.28-20.99-35.01-24.1-53.17c-3.08-18.44-1.13-36.02,5.83-52.74
		c7.01-17,19.15-31.98,36.44-44.93c19.68-14.76,39.54-22.27,59.58-22.54c20.04-0.27,38.22,6.47,54.54,20.24l-34.33,25.73
		c-8.44-5.92-17.64-8.53-27.6-7.81c-10.08,0.56-20.4,4.79-30.96,12.71c-16.8,12.6-25.75,27.67-26.83,45.23
		c-1.21,17.4,5.15,35.38,19.06,53.95c13.91,18.56,29.19,29.61,45.83,33.13c16.68,3.24,32.78-0.95,48.3-12.59
		c15.21-11.4,23.59-24.05,25.16-37.97c1.6-14.2-1.84-28.62-10.31-43.26l-42.49,31.85l-17.27-23.05l73.45-55.06l69.27,92.42
		l-28.32,21.23l-18.96-20.29c0.56,12.08-1.62,23.34-6.55,33.78C1396.48,737.63,1387.7,747.58,1375.05,757.06z M1519.19,644.52
		l-170.36-134.75l32.89-24.65l130.47,111.04l-64.69-160.34l33.84-25.37l134.79,107.8l-69.97-156.38l33.13-24.83l80.34,202.23
		l-36.49,27.35l-126.75-99.58l59.05,150.32L1519.19,644.52z M1727.5,488.39l-125.95-168.04l36.49-27.35l133.42,66.46l-27.07-146.17
		l36.48-27.35l125.95,168.04l-30.72,23.03l-86.91-115.95l22.1,127.03l-24.24,18.17l-115.72-56.85l86.9,115.95L1727.5,488.39z"/>
</mask>
<path class="st6" d="M1325.43,777.38l0.97,9.95L1325.43,777.38z M1275.33,768.07l-4.43,8.97l0.02,0.01l0.03,0.01L1275.33,768.07z
	 M1207.56,677.15l-9.86,1.64v0.02v0.02L1207.56,677.15z M1213.39,624.41l9.24,3.84v-0.02l0.01-0.02L1213.39,624.41z M1309.41,556.94
	l-0.13-10L1309.41,556.94z M1363.95,577.18l6,8l10.06-7.54l-9.61-8.11L1363.95,577.18z M1329.62,602.91l-5.74,8.19l5.93,4.17
	l5.81-4.35L1329.62,602.91z M1302.02,595.1l0.56,9.98l0.08,0l0.08-0.01L1302.02,595.1z M1244.23,653.04l9.97,0.69v-0.04l0.01-0.04
	L1244.23,653.04z M1309.12,740.12l-2.07,9.78l0.08,0.02l0.08,0.02L1309.12,740.12z M1382.58,689.56l-9.94-1.12v0.01L1382.58,689.56z
	 M1372.27,646.3l8.65-5.01l-5.64-9.75l-9.01,6.75L1372.27,646.3z M1329.78,678.15l-8,6l5.99,8l8.01-6L1329.78,678.15z
	 M1312.51,655.1l-6-8l-8,6l5.99,8L1312.51,655.1z M1385.96,600.04l8-6l-5.99-8l-8.01,6L1385.96,600.04z M1455.23,692.46l6,8l8-6
	l-5.99-8L1455.23,692.46z M1426.91,713.7l-7.31,6.83l6.13,6.56l7.18-5.38L1426.91,713.7z M1407.95,693.41l7.31-6.83l-18.55-19.85
	l1.25,27.14L1407.95,693.41z M1401.4,727.19l9.05,4.27L1401.4,727.19z M1369.06,749.06c-14.59,10.94-29.43,16.9-44.6,18.37
	l1.94,19.91c19.31-1.88,37.56-9.46,54.65-22.28L1369.06,749.06z M1324.46,767.43c-15.33,1.49-30.18-1.24-44.74-8.35l-8.77,17.97
	c17.75,8.66,36.29,12.14,55.45,10.28L1324.46,767.43z M1279.76,759.1c-14.64-7.23-28.03-18.69-40.1-34.79l-16,12
	c13.61,18.16,29.33,31.87,47.24,40.72L1279.76,759.1z M1239.66,724.32c-12.16-16.23-19.44-32.51-22.25-48.86l-19.71,3.38
	c3.43,19.97,12.22,39.14,25.96,57.48L1239.66,724.32z M1217.42,675.5c-2.77-16.65-1.01-32.32,5.21-47.25l-18.47-7.69
	c-7.71,18.51-9.84,38-6.46,58.23L1217.42,675.5z M1222.64,628.22c6.21-15.06,17.09-28.67,33.19-40.74l-12-16
	c-18.47,13.84-31.88,30.19-39.68,49.12L1222.64,628.22z M1255.83,587.48c18.38-13.78,36.24-20.3,53.72-20.54l-0.27-20
	c-22.6,0.31-44.46,8.81-65.45,24.54L1255.83,587.48z M1309.55,566.94c17.47-0.24,33.34,5.56,47.95,17.88l12.9-15.29
	c-18.03-15.21-38.51-22.9-61.12-22.59L1309.55,566.94z M1357.95,569.17l-34.33,25.73l12,16l34.33-25.73L1357.95,569.17z
	 M1335.37,594.72c-10.26-7.2-21.73-10.48-34.06-9.6l1.43,19.95c7.59-0.55,14.52,1.37,21.14,6.02L1335.37,594.72z M1301.47,585.11
	c-12.57,0.7-24.75,5.95-36.41,14.69l12,16c9.46-7.09,17.93-10.31,25.52-10.73L1301.47,585.11z M1265.06,599.81
	c-18.65,13.98-29.51,31.56-30.81,52.62l19.96,1.23c0.87-14.06,7.89-26.64,22.85-37.85L1265.06,599.81z M1234.25,652.35
	c-1.42,20.49,6.17,40.79,21.04,60.63l16-11.99c-12.95-17.28-18.08-32.95-17.09-47.26L1234.25,652.35z M1255.29,712.98
	c14.83,19.79,32.01,32.74,51.76,36.92l4.14-19.57c-13.52-2.86-26.91-12.01-39.9-29.35L1255.29,712.98z M1307.21,749.93
	c19.86,3.86,38.78-1.34,56.21-14.4l-11.99-16c-13.62,10.21-26.9,13.4-40.4,10.77L1307.21,749.93z M1363.42,735.54
	c16.6-12.44,27.12-27.33,29.09-44.86l-19.87-2.23c-1.16,10.31-7.4,20.73-21.21,31.09L1363.42,735.54z M1392.51,690.68
	c1.89-16.7-2.24-33.25-11.59-49.4l-17.31,10.02c7.61,13.14,10.35,25.43,9.03,37.13L1392.51,690.68z M1366.27,638.3l-42.49,31.85
	l12,16l42.49-31.85L1366.27,638.3z M1337.78,672.15l-17.27-23.04l-16.01,11.99l17.28,23.04L1337.78,672.15z M1318.5,663.1
	l73.46-55.06l-12-16l-73.45,55.06L1318.5,663.1z M1377.96,606.04l69.27,92.42l16.01-12l-69.28-92.42L1377.96,606.04z
	 M1449.24,684.46l-28.33,21.23l12,16l28.32-21.23L1449.24,684.46z M1434.21,706.87l-18.95-20.29l-14.61,13.65l18.95,20.29
	L1434.21,706.87z M1397.96,693.87c0.49,10.53-1.41,20.16-5.6,29.05l18.09,8.53c5.65-11.98,8.12-24.88,7.49-38.5L1397.96,693.87z
	 M1392.36,722.92c-4.02,8.52-11.51,17.29-23.3,26.14l11.99,16c13.49-10.11,23.57-21.25,29.4-33.61L1392.36,722.92z M1519.19,644.52
	l-6.2,7.84l6.04,4.78l6.16-4.62L1519.19,644.52z M1348.83,509.77l-5.99-8l-10.39,7.79l10.18,8.06L1348.83,509.77z M1381.72,485.12
	l6.48-7.62l-6.08-5.18l-6.4,4.79L1381.72,485.12z M1512.19,596.16l-6.48,7.62l15.75-11.36L1512.19,596.16z M1447.5,435.82l-6-8
	l-6.15,4.61l2.87,7.13L1447.5,435.82z M1481.34,410.45l6.25-7.81l-6.05-4.84l-6.19,4.64L1481.34,410.45z M1616.13,518.25l-6.24,7.81
	l15.37-11.89L1616.13,518.25z M1546.16,361.87l-6-8l-6.39,4.79l3.26,7.29L1546.16,361.87z M1579.29,337.04l9.29-3.69l-4.83-12.15
	l-10.46,7.84L1579.29,337.04z M1659.63,539.27l5.99,8l6.12-4.59l-2.82-7.11L1659.63,539.27z M1623.14,566.61l-6.18,7.86l6.03,4.74
	l6.14-4.6L1623.14,566.61z M1496.39,467.04l6.17-7.86l-28.94-22.74l13.46,34.26L1496.39,467.04z M1555.44,617.35l6,8l6.09-4.57
	l-2.78-7.09L1555.44,617.35z M1525.4,636.68l-170.36-134.75l-12.41,15.69l170.36,134.75L1525.4,636.68z M1354.83,517.77l32.89-24.65
	l-12-16l-32.88,24.65L1354.83,517.77z M1375.24,492.74l130.47,111.04l12.96-15.23L1388.2,477.51L1375.24,492.74z M1521.46,592.42
	l-64.69-160.34l-18.55,7.48l64.69,160.34L1521.46,592.42z M1453.49,443.82l33.85-25.37l-11.99-16l-33.85,25.37L1453.49,443.82z
	 M1475.1,418.26l134.79,107.8l12.49-15.62l-134.79-107.8L1475.1,418.26z M1625.26,514.17l-69.97-156.38l-18.26,8.17L1607,522.34
	L1625.26,514.17z M1552.16,369.87l33.12-24.83l-11.99-16l-33.13,24.83L1552.16,369.87z M1569.99,340.73l80.34,202.22l18.59-7.39
	l-80.34-202.22L1569.99,340.73z M1653.63,531.26l-36.49,27.35l11.99,16l36.49-27.35L1653.63,531.26z M1629.31,558.75l-126.75-99.58
	l-12.35,15.73l126.75,99.58L1629.31,558.75z M1487.08,470.69l59.05,150.32l18.62-7.31l-59.06-150.32L1487.08,470.69z
	 M1549.44,609.35l-36.24,27.17l11.99,16l36.25-27.17L1549.44,609.35z M1727.5,488.39l-8,6l6,8l8-6L1727.5,488.39z M1601.55,320.35
	l-5.99-8l-8,6l5.99,8L1601.55,320.35z M1638.04,293l4.46-8.95l-5.52-2.75l-4.93,3.7L1638.04,293z M1771.46,359.46l-4.46,8.95
	l17.95,8.94l-3.65-19.71L1771.46,359.46z M1744.39,213.29l-6-8l-4.97,3.72l1.13,6.1L1744.39,213.29z M1780.87,185.94l8.01-6l-6-8
	l-8,6L1780.87,185.94z M1906.82,353.98l6,8l8-6l-5.99-8L1906.82,353.98z M1876.1,377.01l-8,6l5.99,8l8.01-6L1876.1,377.01z
	 M1789.19,261.07l8-6l-17.85,7.71L1789.19,261.07z M1811.29,388.09l6,8l4.91-3.68l-1.05-6.04L1811.29,388.09z M1787.05,406.27
	l-4.41,8.98l5.5,2.7l4.91-3.68L1787.05,406.27z M1671.33,349.41l4.41-8.98l-12.42,14.97L1671.33,349.41z M1758.23,465.36l6,8l8-6
	l-6-8L1758.23,465.36z M1735.51,482.39l-125.95-168.04l-16.01,11.99l125.95,168.04L1735.51,482.39z M1607.55,328.35l36.49-27.35
	l-11.99-16l-36.49,27.35L1607.55,328.35z M1633.58,301.95L1767,368.41l8.92-17.9l-133.42-66.46L1633.58,301.95z M1781.3,357.64
	l-27.08-146.17l-19.67,3.64l27.08,146.17L1781.3,357.64z M1750.38,221.29l36.49-27.35l-11.99-16l-36.49,27.35L1750.38,221.29z
	 M1772.87,191.94l125.95,168.04l16.01-11.99l-125.95-168.04L1772.87,191.94z M1900.83,345.98l-30.73,23.03l12,16l30.72-23.03
	L1900.83,345.98z M1884.1,371.02l-86.91-115.95l-16,11.99l86.91,115.95L1884.1,371.02z M1779.34,262.78l22.1,127.03l19.71-3.43
	l-22.11-127.03L1779.34,262.78z M1805.3,380.09l-24.25,18.17l12,16l24.24-18.17L1805.3,380.09z M1791.46,397.29l-115.72-56.85
	l-8.82,17.95l115.72,56.85L1791.46,397.29z M1663.32,355.41l86.91,115.95l16-12l-86.9-115.95L1663.32,355.41z M1752.23,457.36
	l-30.72,23.03l11.99,16l30.73-23.03L1752.23,457.36z"/>
</svg>
