<svg width="86" height="63" viewBox="0 0 86 63" fill="none" xmlns="http://www.w3.org/2000/svg">
<path opacity="0.2" d="M34.875 36.5H7.25C6.38805 36.5 5.5614 36.1576 4.9519 35.5481C4.34241 34.9386 4 34.112 4 33.25V7.25C4 6.38805 4.34241 5.5614 4.9519 4.9519C5.5614 4.34241 6.38805 4 7.25 4H31.625C32.487 4 33.3136 4.34241 33.9231 4.9519C34.5326 5.5614 34.875 6.38805 34.875 7.25V36.5Z" fill="#CEE0FA"/>
<path opacity="0.2" d="M82 36.5H54.375C53.513 36.5 52.6864 36.1576 52.0769 35.5481C51.4674 34.9386 51.125 34.112 51.125 33.25V7.25C51.125 6.38805 51.4674 5.5614 52.0769 4.9519C52.6864 4.34241 53.513 4 54.375 4H78.75C79.612 4 80.4386 4.34241 81.0481 4.9519C81.6576 5.5614 82 6.38805 82 7.25V36.5Z" fill="#CEE0FA"/>
<path d="M34.875 36.5H7.25C6.38805 36.5 5.5614 36.1576 4.9519 35.5481C4.34241 34.9386 4 34.112 4 33.25V7.25C4 6.38805 4.34241 5.5614 4.9519 4.9519C5.5614 4.34241 6.38805 4 7.25 4H31.625C32.487 4 33.3136 4.34241 33.9231 4.9519C34.5326 5.5614 34.875 6.38805 34.875 7.25V43C34.875 47.3098 33.163 51.443 30.1155 54.4905C27.068 57.538 22.9348 59.25 18.625 59.25" stroke="#5B93C7" stroke-width="6.70968" stroke-linecap="round" stroke-linejoin="round"/>
<path d="M82 36.5H54.375C53.513 36.5 52.6864 36.1576 52.0769 35.5481C51.4674 34.9386 51.125 34.112 51.125 33.25V7.25C51.125 6.38805 51.4674 5.5614 52.0769 4.9519C52.6864 4.34241 53.513 4 54.375 4H78.75C79.612 4 80.4386 4.34241 81.0481 4.9519C81.6576 5.5614 82 6.38805 82 7.25V43C82 47.3098 80.288 51.443 77.2405 54.4905C74.193 57.538 70.0598 59.25 65.75 59.25" stroke="#5B93C7" stroke-width="6.70968" stroke-linecap="round" stroke-linejoin="round"/>
</svg>
